%TF.GenerationSoftware,KiCad,Pcbnew,8.0.0*%
%TF.CreationDate,2024-03-31T13:14:54-03:00*%
%TF.ProjectId,ponderadaPcb,706f6e64-6572-4616-9461-5063622e6b69,rev?*%
%TF.SameCoordinates,Original*%
%TF.FileFunction,Legend,Top*%
%TF.FilePolarity,Positive*%
%FSLAX46Y46*%
G04 Gerber Fmt 4.6, Leading zero omitted, Abs format (unit mm)*
G04 Created by KiCad (PCBNEW 8.0.0) date 2024-03-31 13:14:54*
%MOMM*%
%LPD*%
G01*
G04 APERTURE LIST*
%ADD10C,0.150000*%
%ADD11C,0.120000*%
G04 APERTURE END LIST*
D10*
X144383095Y-94239819D02*
X144383095Y-95049342D01*
X144383095Y-95049342D02*
X144430714Y-95144580D01*
X144430714Y-95144580D02*
X144478333Y-95192200D01*
X144478333Y-95192200D02*
X144573571Y-95239819D01*
X144573571Y-95239819D02*
X144764047Y-95239819D01*
X144764047Y-95239819D02*
X144859285Y-95192200D01*
X144859285Y-95192200D02*
X144906904Y-95144580D01*
X144906904Y-95144580D02*
X144954523Y-95049342D01*
X144954523Y-95049342D02*
X144954523Y-94239819D01*
X145954523Y-95239819D02*
X145383095Y-95239819D01*
X145668809Y-95239819D02*
X145668809Y-94239819D01*
X145668809Y-94239819D02*
X145573571Y-94382676D01*
X145573571Y-94382676D02*
X145478333Y-94477914D01*
X145478333Y-94477914D02*
X145383095Y-94525533D01*
X131631435Y-101283431D02*
X131550623Y-101310368D01*
X131550623Y-101310368D02*
X131469811Y-101391180D01*
X131469811Y-101391180D02*
X131415936Y-101498930D01*
X131415936Y-101498930D02*
X131415936Y-101606680D01*
X131415936Y-101606680D02*
X131442873Y-101687492D01*
X131442873Y-101687492D02*
X131523685Y-101822179D01*
X131523685Y-101822179D02*
X131604498Y-101902991D01*
X131604498Y-101902991D02*
X131739185Y-101983803D01*
X131739185Y-101983803D02*
X131819997Y-102010741D01*
X131819997Y-102010741D02*
X131927746Y-102010741D01*
X131927746Y-102010741D02*
X132035496Y-101956866D01*
X132035496Y-101956866D02*
X132089371Y-101902991D01*
X132089371Y-101902991D02*
X132143246Y-101795241D01*
X132143246Y-101795241D02*
X132143246Y-101741367D01*
X132143246Y-101741367D02*
X131954684Y-101552805D01*
X131954684Y-101552805D02*
X131846934Y-101660554D01*
X132439557Y-101552805D02*
X131873872Y-100987119D01*
X131873872Y-100987119D02*
X132762806Y-101229556D01*
X132762806Y-101229556D02*
X132197120Y-100663871D01*
X133032180Y-100960182D02*
X132466494Y-100394497D01*
X132466494Y-100394497D02*
X132601181Y-100259810D01*
X132601181Y-100259810D02*
X132708931Y-100205935D01*
X132708931Y-100205935D02*
X132816680Y-100205935D01*
X132816680Y-100205935D02*
X132897493Y-100232872D01*
X132897493Y-100232872D02*
X133032180Y-100313685D01*
X133032180Y-100313685D02*
X133112992Y-100394497D01*
X133112992Y-100394497D02*
X133193804Y-100529184D01*
X133193804Y-100529184D02*
X133220741Y-100609996D01*
X133220741Y-100609996D02*
X133220741Y-100717746D01*
X133220741Y-100717746D02*
X133166867Y-100825495D01*
X133166867Y-100825495D02*
X133032180Y-100960182D01*
X131134998Y-111685868D02*
X131054185Y-111712805D01*
X131054185Y-111712805D02*
X130973373Y-111793618D01*
X130973373Y-111793618D02*
X130919498Y-111901367D01*
X130919498Y-111901367D02*
X130919498Y-112009117D01*
X130919498Y-112009117D02*
X130946436Y-112089929D01*
X130946436Y-112089929D02*
X131027248Y-112224616D01*
X131027248Y-112224616D02*
X131108060Y-112305428D01*
X131108060Y-112305428D02*
X131242747Y-112386241D01*
X131242747Y-112386241D02*
X131323560Y-112413178D01*
X131323560Y-112413178D02*
X131431309Y-112413178D01*
X131431309Y-112413178D02*
X131539059Y-112359303D01*
X131539059Y-112359303D02*
X131592934Y-112305428D01*
X131592934Y-112305428D02*
X131646808Y-112197679D01*
X131646808Y-112197679D02*
X131646808Y-112143804D01*
X131646808Y-112143804D02*
X131458247Y-111955242D01*
X131458247Y-111955242D02*
X131350497Y-112062992D01*
X131943120Y-111955242D02*
X131377434Y-111389557D01*
X131377434Y-111389557D02*
X131592934Y-111174057D01*
X131592934Y-111174057D02*
X131673746Y-111147120D01*
X131673746Y-111147120D02*
X131727621Y-111147120D01*
X131727621Y-111147120D02*
X131808433Y-111174057D01*
X131808433Y-111174057D02*
X131889245Y-111254870D01*
X131889245Y-111254870D02*
X131916182Y-111335682D01*
X131916182Y-111335682D02*
X131916182Y-111389557D01*
X131916182Y-111389557D02*
X131889245Y-111470369D01*
X131889245Y-111470369D02*
X131673746Y-111685868D01*
X132805117Y-111093245D02*
X132481868Y-111416494D01*
X132643492Y-111254870D02*
X132077807Y-110689184D01*
X132077807Y-110689184D02*
X132104744Y-110823871D01*
X132104744Y-110823871D02*
X132104744Y-110931621D01*
X132104744Y-110931621D02*
X132077807Y-111012433D01*
X132427993Y-110338998D02*
X132778179Y-109988812D01*
X132778179Y-109988812D02*
X132805117Y-110392873D01*
X132805117Y-110392873D02*
X132885929Y-110312060D01*
X132885929Y-110312060D02*
X132966741Y-110285123D01*
X132966741Y-110285123D02*
X133020616Y-110285123D01*
X133020616Y-110285123D02*
X133101428Y-110312060D01*
X133101428Y-110312060D02*
X133236115Y-110446747D01*
X133236115Y-110446747D02*
X133263053Y-110527560D01*
X133263053Y-110527560D02*
X133263053Y-110581434D01*
X133263053Y-110581434D02*
X133236115Y-110662247D01*
X133236115Y-110662247D02*
X133074491Y-110823871D01*
X133074491Y-110823871D02*
X132993679Y-110850808D01*
X132993679Y-110850808D02*
X132939804Y-110850808D01*
X131658372Y-80936494D02*
X131577560Y-80963431D01*
X131577560Y-80963431D02*
X131496748Y-81044243D01*
X131496748Y-81044243D02*
X131442873Y-81151993D01*
X131442873Y-81151993D02*
X131442873Y-81259742D01*
X131442873Y-81259742D02*
X131469810Y-81340555D01*
X131469810Y-81340555D02*
X131550623Y-81475242D01*
X131550623Y-81475242D02*
X131631435Y-81556054D01*
X131631435Y-81556054D02*
X131766122Y-81636866D01*
X131766122Y-81636866D02*
X131846934Y-81663803D01*
X131846934Y-81663803D02*
X131954684Y-81663803D01*
X131954684Y-81663803D02*
X132062433Y-81609929D01*
X132062433Y-81609929D02*
X132116308Y-81556054D01*
X132116308Y-81556054D02*
X132170183Y-81448304D01*
X132170183Y-81448304D02*
X132170183Y-81394429D01*
X132170183Y-81394429D02*
X131981621Y-81205868D01*
X131981621Y-81205868D02*
X131873871Y-81313617D01*
X132466494Y-81205868D02*
X131900809Y-80640182D01*
X131900809Y-80640182D02*
X132116308Y-80424683D01*
X132116308Y-80424683D02*
X132197120Y-80397746D01*
X132197120Y-80397746D02*
X132250995Y-80397746D01*
X132250995Y-80397746D02*
X132331807Y-80424683D01*
X132331807Y-80424683D02*
X132412619Y-80505495D01*
X132412619Y-80505495D02*
X132439557Y-80586307D01*
X132439557Y-80586307D02*
X132439557Y-80640182D01*
X132439557Y-80640182D02*
X132412619Y-80720994D01*
X132412619Y-80720994D02*
X132197120Y-80936494D01*
X132412619Y-80128372D02*
X132762806Y-79778185D01*
X132762806Y-79778185D02*
X132789743Y-80182246D01*
X132789743Y-80182246D02*
X132870555Y-80101434D01*
X132870555Y-80101434D02*
X132951367Y-80074497D01*
X132951367Y-80074497D02*
X133005242Y-80074497D01*
X133005242Y-80074497D02*
X133086054Y-80101434D01*
X133086054Y-80101434D02*
X133220741Y-80236121D01*
X133220741Y-80236121D02*
X133247679Y-80316933D01*
X133247679Y-80316933D02*
X133247679Y-80370808D01*
X133247679Y-80370808D02*
X133220741Y-80451620D01*
X133220741Y-80451620D02*
X133059117Y-80613245D01*
X133059117Y-80613245D02*
X132978305Y-80640182D01*
X132978305Y-80640182D02*
X132924430Y-80640182D01*
X131658372Y-98716494D02*
X131577560Y-98743431D01*
X131577560Y-98743431D02*
X131496748Y-98824243D01*
X131496748Y-98824243D02*
X131442873Y-98931993D01*
X131442873Y-98931993D02*
X131442873Y-99039742D01*
X131442873Y-99039742D02*
X131469810Y-99120555D01*
X131469810Y-99120555D02*
X131550623Y-99255242D01*
X131550623Y-99255242D02*
X131631435Y-99336054D01*
X131631435Y-99336054D02*
X131766122Y-99416866D01*
X131766122Y-99416866D02*
X131846934Y-99443803D01*
X131846934Y-99443803D02*
X131954684Y-99443803D01*
X131954684Y-99443803D02*
X132062433Y-99389929D01*
X132062433Y-99389929D02*
X132116308Y-99336054D01*
X132116308Y-99336054D02*
X132170183Y-99228304D01*
X132170183Y-99228304D02*
X132170183Y-99174429D01*
X132170183Y-99174429D02*
X131981621Y-98985868D01*
X131981621Y-98985868D02*
X131873871Y-99093617D01*
X132466494Y-98985868D02*
X131900809Y-98420182D01*
X131900809Y-98420182D02*
X132116308Y-98204683D01*
X132116308Y-98204683D02*
X132197120Y-98177746D01*
X132197120Y-98177746D02*
X132250995Y-98177746D01*
X132250995Y-98177746D02*
X132331807Y-98204683D01*
X132331807Y-98204683D02*
X132412619Y-98285495D01*
X132412619Y-98285495D02*
X132439557Y-98366307D01*
X132439557Y-98366307D02*
X132439557Y-98420182D01*
X132439557Y-98420182D02*
X132412619Y-98500994D01*
X132412619Y-98500994D02*
X132197120Y-98716494D01*
X133059117Y-98393245D02*
X133166867Y-98285495D01*
X133166867Y-98285495D02*
X133193804Y-98204683D01*
X133193804Y-98204683D02*
X133193804Y-98150808D01*
X133193804Y-98150808D02*
X133166867Y-98016121D01*
X133166867Y-98016121D02*
X133086054Y-97881434D01*
X133086054Y-97881434D02*
X132870555Y-97665935D01*
X132870555Y-97665935D02*
X132789743Y-97638998D01*
X132789743Y-97638998D02*
X132735868Y-97638998D01*
X132735868Y-97638998D02*
X132655056Y-97665935D01*
X132655056Y-97665935D02*
X132547306Y-97773685D01*
X132547306Y-97773685D02*
X132520369Y-97854497D01*
X132520369Y-97854497D02*
X132520369Y-97908372D01*
X132520369Y-97908372D02*
X132547306Y-97989184D01*
X132547306Y-97989184D02*
X132681993Y-98123871D01*
X132681993Y-98123871D02*
X132762806Y-98150808D01*
X132762806Y-98150808D02*
X132816680Y-98150808D01*
X132816680Y-98150808D02*
X132897493Y-98123871D01*
X132897493Y-98123871D02*
X133005242Y-98016121D01*
X133005242Y-98016121D02*
X133032180Y-97935309D01*
X133032180Y-97935309D02*
X133032180Y-97881434D01*
X133032180Y-97881434D02*
X133005242Y-97800622D01*
X131558372Y-78396494D02*
X131477560Y-78423431D01*
X131477560Y-78423431D02*
X131396748Y-78504243D01*
X131396748Y-78504243D02*
X131342873Y-78611993D01*
X131342873Y-78611993D02*
X131342873Y-78719742D01*
X131342873Y-78719742D02*
X131369810Y-78800555D01*
X131369810Y-78800555D02*
X131450623Y-78935242D01*
X131450623Y-78935242D02*
X131531435Y-79016054D01*
X131531435Y-79016054D02*
X131666122Y-79096866D01*
X131666122Y-79096866D02*
X131746934Y-79123803D01*
X131746934Y-79123803D02*
X131854684Y-79123803D01*
X131854684Y-79123803D02*
X131962433Y-79069929D01*
X131962433Y-79069929D02*
X132016308Y-79016054D01*
X132016308Y-79016054D02*
X132070183Y-78908304D01*
X132070183Y-78908304D02*
X132070183Y-78854429D01*
X132070183Y-78854429D02*
X131881621Y-78665868D01*
X131881621Y-78665868D02*
X131773871Y-78773617D01*
X132366494Y-78665868D02*
X131800809Y-78100182D01*
X131800809Y-78100182D02*
X132016308Y-77884683D01*
X132016308Y-77884683D02*
X132097120Y-77857746D01*
X132097120Y-77857746D02*
X132150995Y-77857746D01*
X132150995Y-77857746D02*
X132231807Y-77884683D01*
X132231807Y-77884683D02*
X132312619Y-77965495D01*
X132312619Y-77965495D02*
X132339557Y-78046307D01*
X132339557Y-78046307D02*
X132339557Y-78100182D01*
X132339557Y-78100182D02*
X132312619Y-78180994D01*
X132312619Y-78180994D02*
X132097120Y-78396494D01*
X132393432Y-77615309D02*
X132393432Y-77561434D01*
X132393432Y-77561434D02*
X132420369Y-77480622D01*
X132420369Y-77480622D02*
X132555056Y-77345935D01*
X132555056Y-77345935D02*
X132635868Y-77318998D01*
X132635868Y-77318998D02*
X132689743Y-77318998D01*
X132689743Y-77318998D02*
X132770555Y-77345935D01*
X132770555Y-77345935D02*
X132824430Y-77399810D01*
X132824430Y-77399810D02*
X132878305Y-77507559D01*
X132878305Y-77507559D02*
X132878305Y-78154057D01*
X132878305Y-78154057D02*
X133228491Y-77803871D01*
X131134998Y-119305868D02*
X131054185Y-119332805D01*
X131054185Y-119332805D02*
X130973373Y-119413618D01*
X130973373Y-119413618D02*
X130919498Y-119521367D01*
X130919498Y-119521367D02*
X130919498Y-119629117D01*
X130919498Y-119629117D02*
X130946436Y-119709929D01*
X130946436Y-119709929D02*
X131027248Y-119844616D01*
X131027248Y-119844616D02*
X131108060Y-119925428D01*
X131108060Y-119925428D02*
X131242747Y-120006241D01*
X131242747Y-120006241D02*
X131323560Y-120033178D01*
X131323560Y-120033178D02*
X131431309Y-120033178D01*
X131431309Y-120033178D02*
X131539059Y-119979303D01*
X131539059Y-119979303D02*
X131592934Y-119925428D01*
X131592934Y-119925428D02*
X131646808Y-119817679D01*
X131646808Y-119817679D02*
X131646808Y-119763804D01*
X131646808Y-119763804D02*
X131458247Y-119575242D01*
X131458247Y-119575242D02*
X131350497Y-119682992D01*
X131943120Y-119575242D02*
X131377434Y-119009557D01*
X131377434Y-119009557D02*
X131592934Y-118794057D01*
X131592934Y-118794057D02*
X131673746Y-118767120D01*
X131673746Y-118767120D02*
X131727621Y-118767120D01*
X131727621Y-118767120D02*
X131808433Y-118794057D01*
X131808433Y-118794057D02*
X131889245Y-118874870D01*
X131889245Y-118874870D02*
X131916182Y-118955682D01*
X131916182Y-118955682D02*
X131916182Y-119009557D01*
X131916182Y-119009557D02*
X131889245Y-119090369D01*
X131889245Y-119090369D02*
X131673746Y-119305868D01*
X132805117Y-118713245D02*
X132481868Y-119036494D01*
X132643492Y-118874870D02*
X132077807Y-118309184D01*
X132077807Y-118309184D02*
X132104744Y-118443871D01*
X132104744Y-118443871D02*
X132104744Y-118551621D01*
X132104744Y-118551621D02*
X132077807Y-118632433D01*
X132751242Y-117635749D02*
X132481868Y-117905123D01*
X132481868Y-117905123D02*
X132724305Y-118201434D01*
X132724305Y-118201434D02*
X132724305Y-118147560D01*
X132724305Y-118147560D02*
X132751242Y-118066747D01*
X132751242Y-118066747D02*
X132885929Y-117932060D01*
X132885929Y-117932060D02*
X132966741Y-117905123D01*
X132966741Y-117905123D02*
X133020616Y-117905123D01*
X133020616Y-117905123D02*
X133101428Y-117932060D01*
X133101428Y-117932060D02*
X133236115Y-118066747D01*
X133236115Y-118066747D02*
X133263053Y-118147560D01*
X133263053Y-118147560D02*
X133263053Y-118201434D01*
X133263053Y-118201434D02*
X133236115Y-118282247D01*
X133236115Y-118282247D02*
X133101428Y-118416934D01*
X133101428Y-118416934D02*
X133020616Y-118443871D01*
X133020616Y-118443871D02*
X132966741Y-118443871D01*
X131631435Y-88583431D02*
X131550623Y-88610368D01*
X131550623Y-88610368D02*
X131469811Y-88691180D01*
X131469811Y-88691180D02*
X131415936Y-88798930D01*
X131415936Y-88798930D02*
X131415936Y-88906680D01*
X131415936Y-88906680D02*
X131442873Y-88987492D01*
X131442873Y-88987492D02*
X131523685Y-89122179D01*
X131523685Y-89122179D02*
X131604498Y-89202991D01*
X131604498Y-89202991D02*
X131739185Y-89283803D01*
X131739185Y-89283803D02*
X131819997Y-89310741D01*
X131819997Y-89310741D02*
X131927746Y-89310741D01*
X131927746Y-89310741D02*
X132035496Y-89256866D01*
X132035496Y-89256866D02*
X132089371Y-89202991D01*
X132089371Y-89202991D02*
X132143246Y-89095241D01*
X132143246Y-89095241D02*
X132143246Y-89041367D01*
X132143246Y-89041367D02*
X131954684Y-88852805D01*
X131954684Y-88852805D02*
X131846934Y-88960554D01*
X132439557Y-88852805D02*
X131873872Y-88287119D01*
X131873872Y-88287119D02*
X132762806Y-88529556D01*
X132762806Y-88529556D02*
X132197120Y-87963871D01*
X133032180Y-88260182D02*
X132466494Y-87694497D01*
X132466494Y-87694497D02*
X132601181Y-87559810D01*
X132601181Y-87559810D02*
X132708931Y-87505935D01*
X132708931Y-87505935D02*
X132816680Y-87505935D01*
X132816680Y-87505935D02*
X132897493Y-87532872D01*
X132897493Y-87532872D02*
X133032180Y-87613685D01*
X133032180Y-87613685D02*
X133112992Y-87694497D01*
X133112992Y-87694497D02*
X133193804Y-87829184D01*
X133193804Y-87829184D02*
X133220741Y-87909996D01*
X133220741Y-87909996D02*
X133220741Y-88017746D01*
X133220741Y-88017746D02*
X133166867Y-88125495D01*
X133166867Y-88125495D02*
X133032180Y-88260182D01*
X131558372Y-73306494D02*
X131477560Y-73333431D01*
X131477560Y-73333431D02*
X131396748Y-73414243D01*
X131396748Y-73414243D02*
X131342873Y-73521993D01*
X131342873Y-73521993D02*
X131342873Y-73629742D01*
X131342873Y-73629742D02*
X131369810Y-73710555D01*
X131369810Y-73710555D02*
X131450623Y-73845242D01*
X131450623Y-73845242D02*
X131531435Y-73926054D01*
X131531435Y-73926054D02*
X131666122Y-74006866D01*
X131666122Y-74006866D02*
X131746934Y-74033803D01*
X131746934Y-74033803D02*
X131854684Y-74033803D01*
X131854684Y-74033803D02*
X131962433Y-73979929D01*
X131962433Y-73979929D02*
X132016308Y-73926054D01*
X132016308Y-73926054D02*
X132070183Y-73818304D01*
X132070183Y-73818304D02*
X132070183Y-73764429D01*
X132070183Y-73764429D02*
X131881621Y-73575868D01*
X131881621Y-73575868D02*
X131773871Y-73683617D01*
X132366494Y-73575868D02*
X131800809Y-73010182D01*
X131800809Y-73010182D02*
X132016308Y-72794683D01*
X132016308Y-72794683D02*
X132097120Y-72767746D01*
X132097120Y-72767746D02*
X132150995Y-72767746D01*
X132150995Y-72767746D02*
X132231807Y-72794683D01*
X132231807Y-72794683D02*
X132312619Y-72875495D01*
X132312619Y-72875495D02*
X132339557Y-72956307D01*
X132339557Y-72956307D02*
X132339557Y-73010182D01*
X132339557Y-73010182D02*
X132312619Y-73090994D01*
X132312619Y-73090994D02*
X132097120Y-73306494D01*
X133228491Y-72713871D02*
X132905242Y-73037120D01*
X133066867Y-72875495D02*
X132501181Y-72309810D01*
X132501181Y-72309810D02*
X132528119Y-72444497D01*
X132528119Y-72444497D02*
X132528119Y-72552246D01*
X132528119Y-72552246D02*
X132501181Y-72633059D01*
X157242998Y-111685868D02*
X157162185Y-111712805D01*
X157162185Y-111712805D02*
X157081373Y-111793618D01*
X157081373Y-111793618D02*
X157027498Y-111901367D01*
X157027498Y-111901367D02*
X157027498Y-112009117D01*
X157027498Y-112009117D02*
X157054436Y-112089929D01*
X157054436Y-112089929D02*
X157135248Y-112224616D01*
X157135248Y-112224616D02*
X157216060Y-112305428D01*
X157216060Y-112305428D02*
X157350747Y-112386241D01*
X157350747Y-112386241D02*
X157431560Y-112413178D01*
X157431560Y-112413178D02*
X157539309Y-112413178D01*
X157539309Y-112413178D02*
X157647059Y-112359303D01*
X157647059Y-112359303D02*
X157700934Y-112305428D01*
X157700934Y-112305428D02*
X157754808Y-112197679D01*
X157754808Y-112197679D02*
X157754808Y-112143804D01*
X157754808Y-112143804D02*
X157566247Y-111955242D01*
X157566247Y-111955242D02*
X157458497Y-112062992D01*
X158051120Y-111955242D02*
X157485434Y-111389557D01*
X157485434Y-111389557D02*
X157700934Y-111174057D01*
X157700934Y-111174057D02*
X157781746Y-111147120D01*
X157781746Y-111147120D02*
X157835621Y-111147120D01*
X157835621Y-111147120D02*
X157916433Y-111174057D01*
X157916433Y-111174057D02*
X157997245Y-111254870D01*
X157997245Y-111254870D02*
X158024182Y-111335682D01*
X158024182Y-111335682D02*
X158024182Y-111389557D01*
X158024182Y-111389557D02*
X157997245Y-111470369D01*
X157997245Y-111470369D02*
X157781746Y-111685868D01*
X158913117Y-111093245D02*
X158589868Y-111416494D01*
X158751492Y-111254870D02*
X158185807Y-110689184D01*
X158185807Y-110689184D02*
X158212744Y-110823871D01*
X158212744Y-110823871D02*
X158212744Y-110931621D01*
X158212744Y-110931621D02*
X158185807Y-111012433D01*
X158913117Y-110446747D02*
X158832305Y-110473685D01*
X158832305Y-110473685D02*
X158778430Y-110473685D01*
X158778430Y-110473685D02*
X158697618Y-110446747D01*
X158697618Y-110446747D02*
X158670680Y-110419810D01*
X158670680Y-110419810D02*
X158643743Y-110338998D01*
X158643743Y-110338998D02*
X158643743Y-110285123D01*
X158643743Y-110285123D02*
X158670680Y-110204311D01*
X158670680Y-110204311D02*
X158778430Y-110096561D01*
X158778430Y-110096561D02*
X158859242Y-110069624D01*
X158859242Y-110069624D02*
X158913117Y-110069624D01*
X158913117Y-110069624D02*
X158993929Y-110096561D01*
X158993929Y-110096561D02*
X159020866Y-110123499D01*
X159020866Y-110123499D02*
X159047804Y-110204311D01*
X159047804Y-110204311D02*
X159047804Y-110258186D01*
X159047804Y-110258186D02*
X159020866Y-110338998D01*
X159020866Y-110338998D02*
X158913117Y-110446747D01*
X158913117Y-110446747D02*
X158886179Y-110527560D01*
X158886179Y-110527560D02*
X158886179Y-110581434D01*
X158886179Y-110581434D02*
X158913117Y-110662247D01*
X158913117Y-110662247D02*
X159020866Y-110769996D01*
X159020866Y-110769996D02*
X159101679Y-110796934D01*
X159101679Y-110796934D02*
X159155553Y-110796934D01*
X159155553Y-110796934D02*
X159236366Y-110769996D01*
X159236366Y-110769996D02*
X159344115Y-110662247D01*
X159344115Y-110662247D02*
X159371053Y-110581434D01*
X159371053Y-110581434D02*
X159371053Y-110527560D01*
X159371053Y-110527560D02*
X159344115Y-110446747D01*
X159344115Y-110446747D02*
X159236366Y-110338998D01*
X159236366Y-110338998D02*
X159155553Y-110312060D01*
X159155553Y-110312060D02*
X159101679Y-110312060D01*
X159101679Y-110312060D02*
X159020866Y-110338998D01*
X157242998Y-98985868D02*
X157162185Y-99012805D01*
X157162185Y-99012805D02*
X157081373Y-99093618D01*
X157081373Y-99093618D02*
X157027498Y-99201367D01*
X157027498Y-99201367D02*
X157027498Y-99309117D01*
X157027498Y-99309117D02*
X157054436Y-99389929D01*
X157054436Y-99389929D02*
X157135248Y-99524616D01*
X157135248Y-99524616D02*
X157216060Y-99605428D01*
X157216060Y-99605428D02*
X157350747Y-99686241D01*
X157350747Y-99686241D02*
X157431560Y-99713178D01*
X157431560Y-99713178D02*
X157539309Y-99713178D01*
X157539309Y-99713178D02*
X157647059Y-99659303D01*
X157647059Y-99659303D02*
X157700934Y-99605428D01*
X157700934Y-99605428D02*
X157754808Y-99497679D01*
X157754808Y-99497679D02*
X157754808Y-99443804D01*
X157754808Y-99443804D02*
X157566247Y-99255242D01*
X157566247Y-99255242D02*
X157458497Y-99362992D01*
X158051120Y-99255242D02*
X157485434Y-98689557D01*
X157485434Y-98689557D02*
X157700934Y-98474057D01*
X157700934Y-98474057D02*
X157781746Y-98447120D01*
X157781746Y-98447120D02*
X157835621Y-98447120D01*
X157835621Y-98447120D02*
X157916433Y-98474057D01*
X157916433Y-98474057D02*
X157997245Y-98554870D01*
X157997245Y-98554870D02*
X158024182Y-98635682D01*
X158024182Y-98635682D02*
X158024182Y-98689557D01*
X158024182Y-98689557D02*
X157997245Y-98770369D01*
X157997245Y-98770369D02*
X157781746Y-98985868D01*
X158078057Y-98204683D02*
X158078057Y-98150809D01*
X158078057Y-98150809D02*
X158104995Y-98069996D01*
X158104995Y-98069996D02*
X158239682Y-97935309D01*
X158239682Y-97935309D02*
X158320494Y-97908372D01*
X158320494Y-97908372D02*
X158374369Y-97908372D01*
X158374369Y-97908372D02*
X158455181Y-97935309D01*
X158455181Y-97935309D02*
X158509056Y-97989184D01*
X158509056Y-97989184D02*
X158562930Y-98096934D01*
X158562930Y-98096934D02*
X158562930Y-98743431D01*
X158562930Y-98743431D02*
X158913117Y-98393245D01*
X158616805Y-97665935D02*
X158616805Y-97612060D01*
X158616805Y-97612060D02*
X158643743Y-97531248D01*
X158643743Y-97531248D02*
X158778430Y-97396561D01*
X158778430Y-97396561D02*
X158859242Y-97369624D01*
X158859242Y-97369624D02*
X158913117Y-97369624D01*
X158913117Y-97369624D02*
X158993929Y-97396561D01*
X158993929Y-97396561D02*
X159047804Y-97450436D01*
X159047804Y-97450436D02*
X159101679Y-97558186D01*
X159101679Y-97558186D02*
X159101679Y-98204683D01*
X159101679Y-98204683D02*
X159451865Y-97854497D01*
X130988998Y-106605868D02*
X130908185Y-106632805D01*
X130908185Y-106632805D02*
X130827373Y-106713618D01*
X130827373Y-106713618D02*
X130773498Y-106821367D01*
X130773498Y-106821367D02*
X130773498Y-106929117D01*
X130773498Y-106929117D02*
X130800436Y-107009929D01*
X130800436Y-107009929D02*
X130881248Y-107144616D01*
X130881248Y-107144616D02*
X130962060Y-107225428D01*
X130962060Y-107225428D02*
X131096747Y-107306241D01*
X131096747Y-107306241D02*
X131177560Y-107333178D01*
X131177560Y-107333178D02*
X131285309Y-107333178D01*
X131285309Y-107333178D02*
X131393059Y-107279303D01*
X131393059Y-107279303D02*
X131446934Y-107225428D01*
X131446934Y-107225428D02*
X131500808Y-107117679D01*
X131500808Y-107117679D02*
X131500808Y-107063804D01*
X131500808Y-107063804D02*
X131312247Y-106875242D01*
X131312247Y-106875242D02*
X131204497Y-106982992D01*
X131797120Y-106875242D02*
X131231434Y-106309557D01*
X131231434Y-106309557D02*
X131446934Y-106094057D01*
X131446934Y-106094057D02*
X131527746Y-106067120D01*
X131527746Y-106067120D02*
X131581621Y-106067120D01*
X131581621Y-106067120D02*
X131662433Y-106094057D01*
X131662433Y-106094057D02*
X131743245Y-106174870D01*
X131743245Y-106174870D02*
X131770182Y-106255682D01*
X131770182Y-106255682D02*
X131770182Y-106309557D01*
X131770182Y-106309557D02*
X131743245Y-106390369D01*
X131743245Y-106390369D02*
X131527746Y-106605868D01*
X132659117Y-106013245D02*
X132335868Y-106336494D01*
X132497492Y-106174870D02*
X131931807Y-105609184D01*
X131931807Y-105609184D02*
X131958744Y-105743871D01*
X131958744Y-105743871D02*
X131958744Y-105851621D01*
X131958744Y-105851621D02*
X131931807Y-105932433D01*
X133197865Y-105474497D02*
X132874616Y-105797746D01*
X133036240Y-105636121D02*
X132470555Y-105070436D01*
X132470555Y-105070436D02*
X132497492Y-105205123D01*
X132497492Y-105205123D02*
X132497492Y-105312873D01*
X132497492Y-105312873D02*
X132470555Y-105393685D01*
X137635475Y-121309200D02*
X137749761Y-121347295D01*
X137749761Y-121347295D02*
X137940237Y-121347295D01*
X137940237Y-121347295D02*
X138016428Y-121309200D01*
X138016428Y-121309200D02*
X138054523Y-121271104D01*
X138054523Y-121271104D02*
X138092618Y-121194914D01*
X138092618Y-121194914D02*
X138092618Y-121118723D01*
X138092618Y-121118723D02*
X138054523Y-121042533D01*
X138054523Y-121042533D02*
X138016428Y-121004438D01*
X138016428Y-121004438D02*
X137940237Y-120966342D01*
X137940237Y-120966342D02*
X137787856Y-120928247D01*
X137787856Y-120928247D02*
X137711666Y-120890152D01*
X137711666Y-120890152D02*
X137673571Y-120852057D01*
X137673571Y-120852057D02*
X137635475Y-120775866D01*
X137635475Y-120775866D02*
X137635475Y-120699676D01*
X137635475Y-120699676D02*
X137673571Y-120623485D01*
X137673571Y-120623485D02*
X137711666Y-120585390D01*
X137711666Y-120585390D02*
X137787856Y-120547295D01*
X137787856Y-120547295D02*
X137978333Y-120547295D01*
X137978333Y-120547295D02*
X138092618Y-120585390D01*
X138359285Y-120547295D02*
X138549761Y-121347295D01*
X138549761Y-121347295D02*
X138702142Y-120775866D01*
X138702142Y-120775866D02*
X138854523Y-121347295D01*
X138854523Y-121347295D02*
X139045000Y-120547295D01*
X139806905Y-121271104D02*
X139768809Y-121309200D01*
X139768809Y-121309200D02*
X139654524Y-121347295D01*
X139654524Y-121347295D02*
X139578333Y-121347295D01*
X139578333Y-121347295D02*
X139464047Y-121309200D01*
X139464047Y-121309200D02*
X139387857Y-121233009D01*
X139387857Y-121233009D02*
X139349762Y-121156819D01*
X139349762Y-121156819D02*
X139311666Y-121004438D01*
X139311666Y-121004438D02*
X139311666Y-120890152D01*
X139311666Y-120890152D02*
X139349762Y-120737771D01*
X139349762Y-120737771D02*
X139387857Y-120661580D01*
X139387857Y-120661580D02*
X139464047Y-120585390D01*
X139464047Y-120585390D02*
X139578333Y-120547295D01*
X139578333Y-120547295D02*
X139654524Y-120547295D01*
X139654524Y-120547295D02*
X139768809Y-120585390D01*
X139768809Y-120585390D02*
X139806905Y-120623485D01*
X140530714Y-121347295D02*
X140149762Y-121347295D01*
X140149762Y-121347295D02*
X140149762Y-120547295D01*
X140797381Y-121347295D02*
X140797381Y-120547295D01*
X141254524Y-121347295D02*
X140911666Y-120890152D01*
X141254524Y-120547295D02*
X140797381Y-121004438D01*
X130988998Y-109145868D02*
X130908185Y-109172805D01*
X130908185Y-109172805D02*
X130827373Y-109253618D01*
X130827373Y-109253618D02*
X130773498Y-109361367D01*
X130773498Y-109361367D02*
X130773498Y-109469117D01*
X130773498Y-109469117D02*
X130800436Y-109549929D01*
X130800436Y-109549929D02*
X130881248Y-109684616D01*
X130881248Y-109684616D02*
X130962060Y-109765428D01*
X130962060Y-109765428D02*
X131096747Y-109846241D01*
X131096747Y-109846241D02*
X131177560Y-109873178D01*
X131177560Y-109873178D02*
X131285309Y-109873178D01*
X131285309Y-109873178D02*
X131393059Y-109819303D01*
X131393059Y-109819303D02*
X131446934Y-109765428D01*
X131446934Y-109765428D02*
X131500808Y-109657679D01*
X131500808Y-109657679D02*
X131500808Y-109603804D01*
X131500808Y-109603804D02*
X131312247Y-109415242D01*
X131312247Y-109415242D02*
X131204497Y-109522992D01*
X131797120Y-109415242D02*
X131231434Y-108849557D01*
X131231434Y-108849557D02*
X131446934Y-108634057D01*
X131446934Y-108634057D02*
X131527746Y-108607120D01*
X131527746Y-108607120D02*
X131581621Y-108607120D01*
X131581621Y-108607120D02*
X131662433Y-108634057D01*
X131662433Y-108634057D02*
X131743245Y-108714870D01*
X131743245Y-108714870D02*
X131770182Y-108795682D01*
X131770182Y-108795682D02*
X131770182Y-108849557D01*
X131770182Y-108849557D02*
X131743245Y-108930369D01*
X131743245Y-108930369D02*
X131527746Y-109145868D01*
X132659117Y-108553245D02*
X132335868Y-108876494D01*
X132497492Y-108714870D02*
X131931807Y-108149184D01*
X131931807Y-108149184D02*
X131958744Y-108283871D01*
X131958744Y-108283871D02*
X131958744Y-108391621D01*
X131958744Y-108391621D02*
X131931807Y-108472433D01*
X132362805Y-107825935D02*
X132362805Y-107772060D01*
X132362805Y-107772060D02*
X132389743Y-107691248D01*
X132389743Y-107691248D02*
X132524430Y-107556561D01*
X132524430Y-107556561D02*
X132605242Y-107529624D01*
X132605242Y-107529624D02*
X132659117Y-107529624D01*
X132659117Y-107529624D02*
X132739929Y-107556561D01*
X132739929Y-107556561D02*
X132793804Y-107610436D01*
X132793804Y-107610436D02*
X132847679Y-107718186D01*
X132847679Y-107718186D02*
X132847679Y-108364683D01*
X132847679Y-108364683D02*
X133197865Y-108014497D01*
X131658372Y-70776494D02*
X131577560Y-70803431D01*
X131577560Y-70803431D02*
X131496748Y-70884243D01*
X131496748Y-70884243D02*
X131442873Y-70991993D01*
X131442873Y-70991993D02*
X131442873Y-71099742D01*
X131442873Y-71099742D02*
X131469810Y-71180555D01*
X131469810Y-71180555D02*
X131550623Y-71315242D01*
X131550623Y-71315242D02*
X131631435Y-71396054D01*
X131631435Y-71396054D02*
X131766122Y-71476866D01*
X131766122Y-71476866D02*
X131846934Y-71503803D01*
X131846934Y-71503803D02*
X131954684Y-71503803D01*
X131954684Y-71503803D02*
X132062433Y-71449929D01*
X132062433Y-71449929D02*
X132116308Y-71396054D01*
X132116308Y-71396054D02*
X132170183Y-71288304D01*
X132170183Y-71288304D02*
X132170183Y-71234429D01*
X132170183Y-71234429D02*
X131981621Y-71045868D01*
X131981621Y-71045868D02*
X131873871Y-71153617D01*
X132466494Y-71045868D02*
X131900809Y-70480182D01*
X131900809Y-70480182D02*
X132116308Y-70264683D01*
X132116308Y-70264683D02*
X132197120Y-70237746D01*
X132197120Y-70237746D02*
X132250995Y-70237746D01*
X132250995Y-70237746D02*
X132331807Y-70264683D01*
X132331807Y-70264683D02*
X132412619Y-70345495D01*
X132412619Y-70345495D02*
X132439557Y-70426307D01*
X132439557Y-70426307D02*
X132439557Y-70480182D01*
X132439557Y-70480182D02*
X132412619Y-70560994D01*
X132412619Y-70560994D02*
X132197120Y-70776494D01*
X132574244Y-69806747D02*
X132628119Y-69752872D01*
X132628119Y-69752872D02*
X132708931Y-69725935D01*
X132708931Y-69725935D02*
X132762806Y-69725935D01*
X132762806Y-69725935D02*
X132843618Y-69752872D01*
X132843618Y-69752872D02*
X132978305Y-69833685D01*
X132978305Y-69833685D02*
X133112992Y-69968372D01*
X133112992Y-69968372D02*
X133193804Y-70103059D01*
X133193804Y-70103059D02*
X133220741Y-70183871D01*
X133220741Y-70183871D02*
X133220741Y-70237746D01*
X133220741Y-70237746D02*
X133193804Y-70318558D01*
X133193804Y-70318558D02*
X133139929Y-70372433D01*
X133139929Y-70372433D02*
X133059117Y-70399370D01*
X133059117Y-70399370D02*
X133005242Y-70399370D01*
X133005242Y-70399370D02*
X132924430Y-70372433D01*
X132924430Y-70372433D02*
X132789743Y-70291620D01*
X132789743Y-70291620D02*
X132655056Y-70156933D01*
X132655056Y-70156933D02*
X132574244Y-70022246D01*
X132574244Y-70022246D02*
X132547306Y-69941434D01*
X132547306Y-69941434D02*
X132547306Y-69887559D01*
X132547306Y-69887559D02*
X132574244Y-69806747D01*
X131658372Y-91096494D02*
X131577560Y-91123431D01*
X131577560Y-91123431D02*
X131496748Y-91204243D01*
X131496748Y-91204243D02*
X131442873Y-91311993D01*
X131442873Y-91311993D02*
X131442873Y-91419742D01*
X131442873Y-91419742D02*
X131469810Y-91500555D01*
X131469810Y-91500555D02*
X131550623Y-91635242D01*
X131550623Y-91635242D02*
X131631435Y-91716054D01*
X131631435Y-91716054D02*
X131766122Y-91796866D01*
X131766122Y-91796866D02*
X131846934Y-91823803D01*
X131846934Y-91823803D02*
X131954684Y-91823803D01*
X131954684Y-91823803D02*
X132062433Y-91769929D01*
X132062433Y-91769929D02*
X132116308Y-91716054D01*
X132116308Y-91716054D02*
X132170183Y-91608304D01*
X132170183Y-91608304D02*
X132170183Y-91554429D01*
X132170183Y-91554429D02*
X131981621Y-91365868D01*
X131981621Y-91365868D02*
X131873871Y-91473617D01*
X132466494Y-91365868D02*
X131900809Y-90800182D01*
X131900809Y-90800182D02*
X132116308Y-90584683D01*
X132116308Y-90584683D02*
X132197120Y-90557746D01*
X132197120Y-90557746D02*
X132250995Y-90557746D01*
X132250995Y-90557746D02*
X132331807Y-90584683D01*
X132331807Y-90584683D02*
X132412619Y-90665495D01*
X132412619Y-90665495D02*
X132439557Y-90746307D01*
X132439557Y-90746307D02*
X132439557Y-90800182D01*
X132439557Y-90800182D02*
X132412619Y-90880994D01*
X132412619Y-90880994D02*
X132197120Y-91096494D01*
X132708931Y-89992060D02*
X132601181Y-90099810D01*
X132601181Y-90099810D02*
X132574244Y-90180622D01*
X132574244Y-90180622D02*
X132574244Y-90234497D01*
X132574244Y-90234497D02*
X132601181Y-90369184D01*
X132601181Y-90369184D02*
X132681993Y-90503871D01*
X132681993Y-90503871D02*
X132897493Y-90719370D01*
X132897493Y-90719370D02*
X132978305Y-90746307D01*
X132978305Y-90746307D02*
X133032180Y-90746307D01*
X133032180Y-90746307D02*
X133112992Y-90719370D01*
X133112992Y-90719370D02*
X133220741Y-90611620D01*
X133220741Y-90611620D02*
X133247679Y-90530808D01*
X133247679Y-90530808D02*
X133247679Y-90476933D01*
X133247679Y-90476933D02*
X133220741Y-90396121D01*
X133220741Y-90396121D02*
X133086054Y-90261434D01*
X133086054Y-90261434D02*
X133005242Y-90234497D01*
X133005242Y-90234497D02*
X132951367Y-90234497D01*
X132951367Y-90234497D02*
X132870555Y-90261434D01*
X132870555Y-90261434D02*
X132762806Y-90369184D01*
X132762806Y-90369184D02*
X132735868Y-90449996D01*
X132735868Y-90449996D02*
X132735868Y-90503871D01*
X132735868Y-90503871D02*
X132762806Y-90584683D01*
X157242998Y-93905868D02*
X157162185Y-93932805D01*
X157162185Y-93932805D02*
X157081373Y-94013618D01*
X157081373Y-94013618D02*
X157027498Y-94121367D01*
X157027498Y-94121367D02*
X157027498Y-94229117D01*
X157027498Y-94229117D02*
X157054436Y-94309929D01*
X157054436Y-94309929D02*
X157135248Y-94444616D01*
X157135248Y-94444616D02*
X157216060Y-94525428D01*
X157216060Y-94525428D02*
X157350747Y-94606241D01*
X157350747Y-94606241D02*
X157431560Y-94633178D01*
X157431560Y-94633178D02*
X157539309Y-94633178D01*
X157539309Y-94633178D02*
X157647059Y-94579303D01*
X157647059Y-94579303D02*
X157700934Y-94525428D01*
X157700934Y-94525428D02*
X157754808Y-94417679D01*
X157754808Y-94417679D02*
X157754808Y-94363804D01*
X157754808Y-94363804D02*
X157566247Y-94175242D01*
X157566247Y-94175242D02*
X157458497Y-94282992D01*
X158051120Y-94175242D02*
X157485434Y-93609557D01*
X157485434Y-93609557D02*
X157700934Y-93394057D01*
X157700934Y-93394057D02*
X157781746Y-93367120D01*
X157781746Y-93367120D02*
X157835621Y-93367120D01*
X157835621Y-93367120D02*
X157916433Y-93394057D01*
X157916433Y-93394057D02*
X157997245Y-93474870D01*
X157997245Y-93474870D02*
X158024182Y-93555682D01*
X158024182Y-93555682D02*
X158024182Y-93609557D01*
X158024182Y-93609557D02*
X157997245Y-93690369D01*
X157997245Y-93690369D02*
X157781746Y-93905868D01*
X158078057Y-93124683D02*
X158078057Y-93070809D01*
X158078057Y-93070809D02*
X158104995Y-92989996D01*
X158104995Y-92989996D02*
X158239682Y-92855309D01*
X158239682Y-92855309D02*
X158320494Y-92828372D01*
X158320494Y-92828372D02*
X158374369Y-92828372D01*
X158374369Y-92828372D02*
X158455181Y-92855309D01*
X158455181Y-92855309D02*
X158509056Y-92909184D01*
X158509056Y-92909184D02*
X158562930Y-93016934D01*
X158562930Y-93016934D02*
X158562930Y-93663431D01*
X158562930Y-93663431D02*
X158913117Y-93313245D01*
X158832305Y-92262686D02*
X158724555Y-92370436D01*
X158724555Y-92370436D02*
X158697618Y-92451248D01*
X158697618Y-92451248D02*
X158697618Y-92505123D01*
X158697618Y-92505123D02*
X158724555Y-92639810D01*
X158724555Y-92639810D02*
X158805367Y-92774497D01*
X158805367Y-92774497D02*
X159020866Y-92989996D01*
X159020866Y-92989996D02*
X159101679Y-93016934D01*
X159101679Y-93016934D02*
X159155553Y-93016934D01*
X159155553Y-93016934D02*
X159236366Y-92989996D01*
X159236366Y-92989996D02*
X159344115Y-92882247D01*
X159344115Y-92882247D02*
X159371053Y-92801434D01*
X159371053Y-92801434D02*
X159371053Y-92747560D01*
X159371053Y-92747560D02*
X159344115Y-92666747D01*
X159344115Y-92666747D02*
X159209428Y-92532060D01*
X159209428Y-92532060D02*
X159128616Y-92505123D01*
X159128616Y-92505123D02*
X159074741Y-92505123D01*
X159074741Y-92505123D02*
X158993929Y-92532060D01*
X158993929Y-92532060D02*
X158886179Y-92639810D01*
X158886179Y-92639810D02*
X158859242Y-92720622D01*
X158859242Y-92720622D02*
X158859242Y-92774497D01*
X158859242Y-92774497D02*
X158886179Y-92855309D01*
X131088998Y-116765868D02*
X131008185Y-116792805D01*
X131008185Y-116792805D02*
X130927373Y-116873618D01*
X130927373Y-116873618D02*
X130873498Y-116981367D01*
X130873498Y-116981367D02*
X130873498Y-117089117D01*
X130873498Y-117089117D02*
X130900436Y-117169929D01*
X130900436Y-117169929D02*
X130981248Y-117304616D01*
X130981248Y-117304616D02*
X131062060Y-117385428D01*
X131062060Y-117385428D02*
X131196747Y-117466241D01*
X131196747Y-117466241D02*
X131277560Y-117493178D01*
X131277560Y-117493178D02*
X131385309Y-117493178D01*
X131385309Y-117493178D02*
X131493059Y-117439303D01*
X131493059Y-117439303D02*
X131546934Y-117385428D01*
X131546934Y-117385428D02*
X131600808Y-117277679D01*
X131600808Y-117277679D02*
X131600808Y-117223804D01*
X131600808Y-117223804D02*
X131412247Y-117035242D01*
X131412247Y-117035242D02*
X131304497Y-117142992D01*
X131897120Y-117035242D02*
X131331434Y-116469557D01*
X131331434Y-116469557D02*
X131546934Y-116254057D01*
X131546934Y-116254057D02*
X131627746Y-116227120D01*
X131627746Y-116227120D02*
X131681621Y-116227120D01*
X131681621Y-116227120D02*
X131762433Y-116254057D01*
X131762433Y-116254057D02*
X131843245Y-116334870D01*
X131843245Y-116334870D02*
X131870182Y-116415682D01*
X131870182Y-116415682D02*
X131870182Y-116469557D01*
X131870182Y-116469557D02*
X131843245Y-116550369D01*
X131843245Y-116550369D02*
X131627746Y-116765868D01*
X132759117Y-116173245D02*
X132435868Y-116496494D01*
X132597492Y-116334870D02*
X132031807Y-115769184D01*
X132031807Y-115769184D02*
X132058744Y-115903871D01*
X132058744Y-115903871D02*
X132058744Y-116011621D01*
X132058744Y-116011621D02*
X132031807Y-116092433D01*
X132866866Y-115311248D02*
X133243990Y-115688372D01*
X132516680Y-115230436D02*
X132786054Y-115769184D01*
X132786054Y-115769184D02*
X133136240Y-115418998D01*
X157067407Y-78743584D02*
X157417593Y-78393398D01*
X157417593Y-78393398D02*
X157444531Y-78797459D01*
X157444531Y-78797459D02*
X157525343Y-78716646D01*
X157525343Y-78716646D02*
X157606155Y-78689709D01*
X157606155Y-78689709D02*
X157660030Y-78689709D01*
X157660030Y-78689709D02*
X157740842Y-78716646D01*
X157740842Y-78716646D02*
X157875529Y-78851333D01*
X157875529Y-78851333D02*
X157902467Y-78932146D01*
X157902467Y-78932146D02*
X157902467Y-78986020D01*
X157902467Y-78986020D02*
X157875529Y-79066833D01*
X157875529Y-79066833D02*
X157713905Y-79228457D01*
X157713905Y-79228457D02*
X157633093Y-79255394D01*
X157633093Y-79255394D02*
X157579218Y-79255394D01*
X157579218Y-78231773D02*
X158333465Y-78608897D01*
X158333465Y-78608897D02*
X157956342Y-77854649D01*
X158091028Y-77719963D02*
X158441215Y-77369776D01*
X158441215Y-77369776D02*
X158468152Y-77773837D01*
X158468152Y-77773837D02*
X158548964Y-77693025D01*
X158548964Y-77693025D02*
X158629776Y-77666088D01*
X158629776Y-77666088D02*
X158683651Y-77666088D01*
X158683651Y-77666088D02*
X158764464Y-77693025D01*
X158764464Y-77693025D02*
X158899151Y-77827712D01*
X158899151Y-77827712D02*
X158926088Y-77908524D01*
X158926088Y-77908524D02*
X158926088Y-77962399D01*
X158926088Y-77962399D02*
X158899151Y-78043211D01*
X158899151Y-78043211D02*
X158737526Y-78204836D01*
X158737526Y-78204836D02*
X158656714Y-78231773D01*
X158656714Y-78231773D02*
X158602839Y-78231773D01*
X159168525Y-77881587D02*
X159599523Y-77450588D01*
X159384024Y-76965715D02*
X159572586Y-76777153D01*
X159949709Y-76992652D02*
X159680335Y-77262026D01*
X159680335Y-77262026D02*
X159114650Y-76696341D01*
X159114650Y-76696341D02*
X159384024Y-76426967D01*
X160192146Y-76750215D02*
X159626461Y-76184530D01*
X159626461Y-76184530D02*
X160515395Y-76426967D01*
X160515395Y-76426967D02*
X159949710Y-75861281D01*
X157231435Y-75883431D02*
X157150623Y-75910368D01*
X157150623Y-75910368D02*
X157069811Y-75991180D01*
X157069811Y-75991180D02*
X157015936Y-76098930D01*
X157015936Y-76098930D02*
X157015936Y-76206680D01*
X157015936Y-76206680D02*
X157042873Y-76287492D01*
X157042873Y-76287492D02*
X157123685Y-76422179D01*
X157123685Y-76422179D02*
X157204498Y-76502991D01*
X157204498Y-76502991D02*
X157339185Y-76583803D01*
X157339185Y-76583803D02*
X157419997Y-76610741D01*
X157419997Y-76610741D02*
X157527746Y-76610741D01*
X157527746Y-76610741D02*
X157635496Y-76556866D01*
X157635496Y-76556866D02*
X157689371Y-76502991D01*
X157689371Y-76502991D02*
X157743246Y-76395241D01*
X157743246Y-76395241D02*
X157743246Y-76341367D01*
X157743246Y-76341367D02*
X157554684Y-76152805D01*
X157554684Y-76152805D02*
X157446934Y-76260554D01*
X158039557Y-76152805D02*
X157473872Y-75587119D01*
X157473872Y-75587119D02*
X158362806Y-75829556D01*
X158362806Y-75829556D02*
X157797120Y-75263871D01*
X158632180Y-75560182D02*
X158066494Y-74994497D01*
X158066494Y-74994497D02*
X158201181Y-74859810D01*
X158201181Y-74859810D02*
X158308931Y-74805935D01*
X158308931Y-74805935D02*
X158416680Y-74805935D01*
X158416680Y-74805935D02*
X158497493Y-74832872D01*
X158497493Y-74832872D02*
X158632180Y-74913685D01*
X158632180Y-74913685D02*
X158712992Y-74994497D01*
X158712992Y-74994497D02*
X158793804Y-75129184D01*
X158793804Y-75129184D02*
X158820741Y-75209996D01*
X158820741Y-75209996D02*
X158820741Y-75317746D01*
X158820741Y-75317746D02*
X158766867Y-75425495D01*
X158766867Y-75425495D02*
X158632180Y-75560182D01*
X131134998Y-104065868D02*
X131054185Y-104092805D01*
X131054185Y-104092805D02*
X130973373Y-104173618D01*
X130973373Y-104173618D02*
X130919498Y-104281367D01*
X130919498Y-104281367D02*
X130919498Y-104389117D01*
X130919498Y-104389117D02*
X130946436Y-104469929D01*
X130946436Y-104469929D02*
X131027248Y-104604616D01*
X131027248Y-104604616D02*
X131108060Y-104685428D01*
X131108060Y-104685428D02*
X131242747Y-104766241D01*
X131242747Y-104766241D02*
X131323560Y-104793178D01*
X131323560Y-104793178D02*
X131431309Y-104793178D01*
X131431309Y-104793178D02*
X131539059Y-104739303D01*
X131539059Y-104739303D02*
X131592934Y-104685428D01*
X131592934Y-104685428D02*
X131646808Y-104577679D01*
X131646808Y-104577679D02*
X131646808Y-104523804D01*
X131646808Y-104523804D02*
X131458247Y-104335242D01*
X131458247Y-104335242D02*
X131350497Y-104442992D01*
X131943120Y-104335242D02*
X131377434Y-103769557D01*
X131377434Y-103769557D02*
X131592934Y-103554057D01*
X131592934Y-103554057D02*
X131673746Y-103527120D01*
X131673746Y-103527120D02*
X131727621Y-103527120D01*
X131727621Y-103527120D02*
X131808433Y-103554057D01*
X131808433Y-103554057D02*
X131889245Y-103634870D01*
X131889245Y-103634870D02*
X131916182Y-103715682D01*
X131916182Y-103715682D02*
X131916182Y-103769557D01*
X131916182Y-103769557D02*
X131889245Y-103850369D01*
X131889245Y-103850369D02*
X131673746Y-104065868D01*
X132805117Y-103473245D02*
X132481868Y-103796494D01*
X132643492Y-103634870D02*
X132077807Y-103069184D01*
X132077807Y-103069184D02*
X132104744Y-103203871D01*
X132104744Y-103203871D02*
X132104744Y-103311621D01*
X132104744Y-103311621D02*
X132077807Y-103392433D01*
X132589618Y-102557373D02*
X132643492Y-102503499D01*
X132643492Y-102503499D02*
X132724305Y-102476561D01*
X132724305Y-102476561D02*
X132778179Y-102476561D01*
X132778179Y-102476561D02*
X132858992Y-102503499D01*
X132858992Y-102503499D02*
X132993679Y-102584311D01*
X132993679Y-102584311D02*
X133128366Y-102718998D01*
X133128366Y-102718998D02*
X133209178Y-102853685D01*
X133209178Y-102853685D02*
X133236115Y-102934497D01*
X133236115Y-102934497D02*
X133236115Y-102988372D01*
X133236115Y-102988372D02*
X133209178Y-103069184D01*
X133209178Y-103069184D02*
X133155303Y-103123059D01*
X133155303Y-103123059D02*
X133074491Y-103149996D01*
X133074491Y-103149996D02*
X133020616Y-103149996D01*
X133020616Y-103149996D02*
X132939804Y-103123059D01*
X132939804Y-103123059D02*
X132805117Y-103042247D01*
X132805117Y-103042247D02*
X132670430Y-102907560D01*
X132670430Y-102907560D02*
X132589618Y-102772873D01*
X132589618Y-102772873D02*
X132562680Y-102692060D01*
X132562680Y-102692060D02*
X132562680Y-102638186D01*
X132562680Y-102638186D02*
X132589618Y-102557373D01*
X157231435Y-101283431D02*
X157150623Y-101310368D01*
X157150623Y-101310368D02*
X157069811Y-101391180D01*
X157069811Y-101391180D02*
X157015936Y-101498930D01*
X157015936Y-101498930D02*
X157015936Y-101606680D01*
X157015936Y-101606680D02*
X157042873Y-101687492D01*
X157042873Y-101687492D02*
X157123685Y-101822179D01*
X157123685Y-101822179D02*
X157204498Y-101902991D01*
X157204498Y-101902991D02*
X157339185Y-101983803D01*
X157339185Y-101983803D02*
X157419997Y-102010741D01*
X157419997Y-102010741D02*
X157527746Y-102010741D01*
X157527746Y-102010741D02*
X157635496Y-101956866D01*
X157635496Y-101956866D02*
X157689371Y-101902991D01*
X157689371Y-101902991D02*
X157743246Y-101795241D01*
X157743246Y-101795241D02*
X157743246Y-101741367D01*
X157743246Y-101741367D02*
X157554684Y-101552805D01*
X157554684Y-101552805D02*
X157446934Y-101660554D01*
X158039557Y-101552805D02*
X157473872Y-100987119D01*
X157473872Y-100987119D02*
X158362806Y-101229556D01*
X158362806Y-101229556D02*
X157797120Y-100663871D01*
X158632180Y-100960182D02*
X158066494Y-100394497D01*
X158066494Y-100394497D02*
X158201181Y-100259810D01*
X158201181Y-100259810D02*
X158308931Y-100205935D01*
X158308931Y-100205935D02*
X158416680Y-100205935D01*
X158416680Y-100205935D02*
X158497493Y-100232872D01*
X158497493Y-100232872D02*
X158632180Y-100313685D01*
X158632180Y-100313685D02*
X158712992Y-100394497D01*
X158712992Y-100394497D02*
X158793804Y-100529184D01*
X158793804Y-100529184D02*
X158820741Y-100609996D01*
X158820741Y-100609996D02*
X158820741Y-100717746D01*
X158820741Y-100717746D02*
X158766867Y-100825495D01*
X158766867Y-100825495D02*
X158632180Y-100960182D01*
X157231435Y-113983431D02*
X157150623Y-114010368D01*
X157150623Y-114010368D02*
X157069811Y-114091180D01*
X157069811Y-114091180D02*
X157015936Y-114198930D01*
X157015936Y-114198930D02*
X157015936Y-114306680D01*
X157015936Y-114306680D02*
X157042873Y-114387492D01*
X157042873Y-114387492D02*
X157123685Y-114522179D01*
X157123685Y-114522179D02*
X157204498Y-114602991D01*
X157204498Y-114602991D02*
X157339185Y-114683803D01*
X157339185Y-114683803D02*
X157419997Y-114710741D01*
X157419997Y-114710741D02*
X157527746Y-114710741D01*
X157527746Y-114710741D02*
X157635496Y-114656866D01*
X157635496Y-114656866D02*
X157689371Y-114602991D01*
X157689371Y-114602991D02*
X157743246Y-114495241D01*
X157743246Y-114495241D02*
X157743246Y-114441367D01*
X157743246Y-114441367D02*
X157554684Y-114252805D01*
X157554684Y-114252805D02*
X157446934Y-114360554D01*
X158039557Y-114252805D02*
X157473872Y-113687119D01*
X157473872Y-113687119D02*
X158362806Y-113929556D01*
X158362806Y-113929556D02*
X157797120Y-113363871D01*
X158632180Y-113660182D02*
X158066494Y-113094497D01*
X158066494Y-113094497D02*
X158201181Y-112959810D01*
X158201181Y-112959810D02*
X158308931Y-112905935D01*
X158308931Y-112905935D02*
X158416680Y-112905935D01*
X158416680Y-112905935D02*
X158497493Y-112932872D01*
X158497493Y-112932872D02*
X158632180Y-113013685D01*
X158632180Y-113013685D02*
X158712992Y-113094497D01*
X158712992Y-113094497D02*
X158793804Y-113229184D01*
X158793804Y-113229184D02*
X158820741Y-113309996D01*
X158820741Y-113309996D02*
X158820741Y-113417746D01*
X158820741Y-113417746D02*
X158766867Y-113525495D01*
X158766867Y-113525495D02*
X158632180Y-113660182D01*
X157242998Y-104075868D02*
X157162185Y-104102805D01*
X157162185Y-104102805D02*
X157081373Y-104183618D01*
X157081373Y-104183618D02*
X157027498Y-104291367D01*
X157027498Y-104291367D02*
X157027498Y-104399117D01*
X157027498Y-104399117D02*
X157054436Y-104479929D01*
X157054436Y-104479929D02*
X157135248Y-104614616D01*
X157135248Y-104614616D02*
X157216060Y-104695428D01*
X157216060Y-104695428D02*
X157350747Y-104776241D01*
X157350747Y-104776241D02*
X157431560Y-104803178D01*
X157431560Y-104803178D02*
X157539309Y-104803178D01*
X157539309Y-104803178D02*
X157647059Y-104749303D01*
X157647059Y-104749303D02*
X157700934Y-104695428D01*
X157700934Y-104695428D02*
X157754808Y-104587679D01*
X157754808Y-104587679D02*
X157754808Y-104533804D01*
X157754808Y-104533804D02*
X157566247Y-104345242D01*
X157566247Y-104345242D02*
X157458497Y-104452992D01*
X158051120Y-104345242D02*
X157485434Y-103779557D01*
X157485434Y-103779557D02*
X157700934Y-103564057D01*
X157700934Y-103564057D02*
X157781746Y-103537120D01*
X157781746Y-103537120D02*
X157835621Y-103537120D01*
X157835621Y-103537120D02*
X157916433Y-103564057D01*
X157916433Y-103564057D02*
X157997245Y-103644870D01*
X157997245Y-103644870D02*
X158024182Y-103725682D01*
X158024182Y-103725682D02*
X158024182Y-103779557D01*
X158024182Y-103779557D02*
X157997245Y-103860369D01*
X157997245Y-103860369D02*
X157781746Y-104075868D01*
X158078057Y-103294683D02*
X158078057Y-103240809D01*
X158078057Y-103240809D02*
X158104995Y-103159996D01*
X158104995Y-103159996D02*
X158239682Y-103025309D01*
X158239682Y-103025309D02*
X158320494Y-102998372D01*
X158320494Y-102998372D02*
X158374369Y-102998372D01*
X158374369Y-102998372D02*
X158455181Y-103025309D01*
X158455181Y-103025309D02*
X158509056Y-103079184D01*
X158509056Y-103079184D02*
X158562930Y-103186934D01*
X158562930Y-103186934D02*
X158562930Y-103833431D01*
X158562930Y-103833431D02*
X158913117Y-103483245D01*
X159451865Y-102944497D02*
X159128616Y-103267746D01*
X159290240Y-103106121D02*
X158724555Y-102540436D01*
X158724555Y-102540436D02*
X158751492Y-102675123D01*
X158751492Y-102675123D02*
X158751492Y-102782873D01*
X158751492Y-102782873D02*
X158724555Y-102863685D01*
X157098406Y-71312585D02*
X157852653Y-71689709D01*
X157852653Y-71689709D02*
X157475529Y-70935462D01*
X158122027Y-70827712D02*
X158229776Y-70773838D01*
X158229776Y-70773838D02*
X158283651Y-70773838D01*
X158283651Y-70773838D02*
X158364463Y-70800775D01*
X158364463Y-70800775D02*
X158445276Y-70881587D01*
X158445276Y-70881587D02*
X158472213Y-70962399D01*
X158472213Y-70962399D02*
X158472213Y-71016274D01*
X158472213Y-71016274D02*
X158445276Y-71097086D01*
X158445276Y-71097086D02*
X158229776Y-71312586D01*
X158229776Y-71312586D02*
X157664091Y-70746900D01*
X157664091Y-70746900D02*
X157852653Y-70558338D01*
X157852653Y-70558338D02*
X157933465Y-70531401D01*
X157933465Y-70531401D02*
X157987340Y-70531401D01*
X157987340Y-70531401D02*
X158068152Y-70558338D01*
X158068152Y-70558338D02*
X158122027Y-70612213D01*
X158122027Y-70612213D02*
X158148964Y-70693025D01*
X158148964Y-70693025D02*
X158148964Y-70746900D01*
X158148964Y-70746900D02*
X158122027Y-70827712D01*
X158122027Y-70827712D02*
X157933465Y-71016274D01*
X158229776Y-70181215D02*
X158687712Y-70639151D01*
X158687712Y-70639151D02*
X158768524Y-70666088D01*
X158768524Y-70666088D02*
X158822399Y-70666088D01*
X158822399Y-70666088D02*
X158903211Y-70639151D01*
X158903211Y-70639151D02*
X159010961Y-70531401D01*
X159010961Y-70531401D02*
X159037898Y-70450589D01*
X159037898Y-70450589D02*
X159037898Y-70396714D01*
X159037898Y-70396714D02*
X159010961Y-70315902D01*
X159010961Y-70315902D02*
X158553025Y-69857966D01*
X159334210Y-70154277D02*
X159441959Y-70100403D01*
X159441959Y-70100403D02*
X159576646Y-69965716D01*
X159576646Y-69965716D02*
X159603584Y-69884903D01*
X159603584Y-69884903D02*
X159603584Y-69831029D01*
X159603584Y-69831029D02*
X159576646Y-69750216D01*
X159576646Y-69750216D02*
X159522771Y-69696342D01*
X159522771Y-69696342D02*
X159441959Y-69669404D01*
X159441959Y-69669404D02*
X159388084Y-69669404D01*
X159388084Y-69669404D02*
X159307272Y-69696342D01*
X159307272Y-69696342D02*
X159172585Y-69777154D01*
X159172585Y-69777154D02*
X159091773Y-69804091D01*
X159091773Y-69804091D02*
X159037898Y-69804091D01*
X159037898Y-69804091D02*
X158957086Y-69777154D01*
X158957086Y-69777154D02*
X158903211Y-69723279D01*
X158903211Y-69723279D02*
X158876274Y-69642467D01*
X158876274Y-69642467D02*
X158876274Y-69588592D01*
X158876274Y-69588592D02*
X158903211Y-69507780D01*
X158903211Y-69507780D02*
X159037898Y-69373093D01*
X159037898Y-69373093D02*
X159145648Y-69319218D01*
X157065749Y-73855242D02*
X157819996Y-74232366D01*
X157819996Y-74232366D02*
X157442873Y-73478118D01*
X158143245Y-73855242D02*
X158250995Y-73801367D01*
X158250995Y-73801367D02*
X158385682Y-73666680D01*
X158385682Y-73666680D02*
X158412619Y-73585868D01*
X158412619Y-73585868D02*
X158412619Y-73531993D01*
X158412619Y-73531993D02*
X158385682Y-73451181D01*
X158385682Y-73451181D02*
X158331807Y-73397306D01*
X158331807Y-73397306D02*
X158250995Y-73370369D01*
X158250995Y-73370369D02*
X158197120Y-73370369D01*
X158197120Y-73370369D02*
X158116308Y-73397306D01*
X158116308Y-73397306D02*
X157981621Y-73478118D01*
X157981621Y-73478118D02*
X157900808Y-73505056D01*
X157900808Y-73505056D02*
X157846934Y-73505056D01*
X157846934Y-73505056D02*
X157766121Y-73478118D01*
X157766121Y-73478118D02*
X157712247Y-73424244D01*
X157712247Y-73424244D02*
X157685309Y-73343431D01*
X157685309Y-73343431D02*
X157685309Y-73289557D01*
X157685309Y-73289557D02*
X157712247Y-73208744D01*
X157712247Y-73208744D02*
X157846934Y-73074057D01*
X157846934Y-73074057D02*
X157954683Y-73020183D01*
X158574244Y-72939370D02*
X158843618Y-73208744D01*
X158089370Y-72831621D02*
X158574244Y-72939370D01*
X158574244Y-72939370D02*
X158466494Y-72454497D01*
X159166866Y-72831621D02*
X159274616Y-72777746D01*
X159274616Y-72777746D02*
X159409303Y-72643059D01*
X159409303Y-72643059D02*
X159436240Y-72562247D01*
X159436240Y-72562247D02*
X159436240Y-72508372D01*
X159436240Y-72508372D02*
X159409303Y-72427560D01*
X159409303Y-72427560D02*
X159355428Y-72373685D01*
X159355428Y-72373685D02*
X159274616Y-72346748D01*
X159274616Y-72346748D02*
X159220741Y-72346748D01*
X159220741Y-72346748D02*
X159139929Y-72373685D01*
X159139929Y-72373685D02*
X159005242Y-72454497D01*
X159005242Y-72454497D02*
X158924430Y-72481435D01*
X158924430Y-72481435D02*
X158870555Y-72481435D01*
X158870555Y-72481435D02*
X158789743Y-72454497D01*
X158789743Y-72454497D02*
X158735868Y-72400622D01*
X158735868Y-72400622D02*
X158708930Y-72319810D01*
X158708930Y-72319810D02*
X158708930Y-72265935D01*
X158708930Y-72265935D02*
X158735868Y-72185123D01*
X158735868Y-72185123D02*
X158870555Y-72050436D01*
X158870555Y-72050436D02*
X158978304Y-71996561D01*
X149049761Y-121309200D02*
X149164047Y-121347295D01*
X149164047Y-121347295D02*
X149354523Y-121347295D01*
X149354523Y-121347295D02*
X149430714Y-121309200D01*
X149430714Y-121309200D02*
X149468809Y-121271104D01*
X149468809Y-121271104D02*
X149506904Y-121194914D01*
X149506904Y-121194914D02*
X149506904Y-121118723D01*
X149506904Y-121118723D02*
X149468809Y-121042533D01*
X149468809Y-121042533D02*
X149430714Y-121004438D01*
X149430714Y-121004438D02*
X149354523Y-120966342D01*
X149354523Y-120966342D02*
X149202142Y-120928247D01*
X149202142Y-120928247D02*
X149125952Y-120890152D01*
X149125952Y-120890152D02*
X149087857Y-120852057D01*
X149087857Y-120852057D02*
X149049761Y-120775866D01*
X149049761Y-120775866D02*
X149049761Y-120699676D01*
X149049761Y-120699676D02*
X149087857Y-120623485D01*
X149087857Y-120623485D02*
X149125952Y-120585390D01*
X149125952Y-120585390D02*
X149202142Y-120547295D01*
X149202142Y-120547295D02*
X149392619Y-120547295D01*
X149392619Y-120547295D02*
X149506904Y-120585390D01*
X149773571Y-120547295D02*
X149964047Y-121347295D01*
X149964047Y-121347295D02*
X150116428Y-120775866D01*
X150116428Y-120775866D02*
X150268809Y-121347295D01*
X150268809Y-121347295D02*
X150459286Y-120547295D01*
X150764048Y-121347295D02*
X150764048Y-120547295D01*
X150764048Y-120547295D02*
X150954524Y-120547295D01*
X150954524Y-120547295D02*
X151068810Y-120585390D01*
X151068810Y-120585390D02*
X151145000Y-120661580D01*
X151145000Y-120661580D02*
X151183095Y-120737771D01*
X151183095Y-120737771D02*
X151221191Y-120890152D01*
X151221191Y-120890152D02*
X151221191Y-121004438D01*
X151221191Y-121004438D02*
X151183095Y-121156819D01*
X151183095Y-121156819D02*
X151145000Y-121233009D01*
X151145000Y-121233009D02*
X151068810Y-121309200D01*
X151068810Y-121309200D02*
X150954524Y-121347295D01*
X150954524Y-121347295D02*
X150764048Y-121347295D01*
X151564048Y-121347295D02*
X151564048Y-120547295D01*
X152097381Y-120547295D02*
X152249762Y-120547295D01*
X152249762Y-120547295D02*
X152325952Y-120585390D01*
X152325952Y-120585390D02*
X152402143Y-120661580D01*
X152402143Y-120661580D02*
X152440238Y-120813961D01*
X152440238Y-120813961D02*
X152440238Y-121080628D01*
X152440238Y-121080628D02*
X152402143Y-121233009D01*
X152402143Y-121233009D02*
X152325952Y-121309200D01*
X152325952Y-121309200D02*
X152249762Y-121347295D01*
X152249762Y-121347295D02*
X152097381Y-121347295D01*
X152097381Y-121347295D02*
X152021190Y-121309200D01*
X152021190Y-121309200D02*
X151945000Y-121233009D01*
X151945000Y-121233009D02*
X151906904Y-121080628D01*
X151906904Y-121080628D02*
X151906904Y-120813961D01*
X151906904Y-120813961D02*
X151945000Y-120661580D01*
X151945000Y-120661580D02*
X152021190Y-120585390D01*
X152021190Y-120585390D02*
X152097381Y-120547295D01*
X131758372Y-93606494D02*
X131677560Y-93633431D01*
X131677560Y-93633431D02*
X131596748Y-93714243D01*
X131596748Y-93714243D02*
X131542873Y-93821993D01*
X131542873Y-93821993D02*
X131542873Y-93929742D01*
X131542873Y-93929742D02*
X131569810Y-94010555D01*
X131569810Y-94010555D02*
X131650623Y-94145242D01*
X131650623Y-94145242D02*
X131731435Y-94226054D01*
X131731435Y-94226054D02*
X131866122Y-94306866D01*
X131866122Y-94306866D02*
X131946934Y-94333803D01*
X131946934Y-94333803D02*
X132054684Y-94333803D01*
X132054684Y-94333803D02*
X132162433Y-94279929D01*
X132162433Y-94279929D02*
X132216308Y-94226054D01*
X132216308Y-94226054D02*
X132270183Y-94118304D01*
X132270183Y-94118304D02*
X132270183Y-94064429D01*
X132270183Y-94064429D02*
X132081621Y-93875868D01*
X132081621Y-93875868D02*
X131973871Y-93983617D01*
X132566494Y-93875868D02*
X132000809Y-93310182D01*
X132000809Y-93310182D02*
X132216308Y-93094683D01*
X132216308Y-93094683D02*
X132297120Y-93067746D01*
X132297120Y-93067746D02*
X132350995Y-93067746D01*
X132350995Y-93067746D02*
X132431807Y-93094683D01*
X132431807Y-93094683D02*
X132512619Y-93175495D01*
X132512619Y-93175495D02*
X132539557Y-93256307D01*
X132539557Y-93256307D02*
X132539557Y-93310182D01*
X132539557Y-93310182D02*
X132512619Y-93390994D01*
X132512619Y-93390994D02*
X132297120Y-93606494D01*
X132512619Y-92798372D02*
X132889743Y-92421248D01*
X132889743Y-92421248D02*
X133212992Y-93229370D01*
X157300064Y-84319049D02*
X157569438Y-84049675D01*
X157407813Y-84534549D02*
X157030690Y-83780301D01*
X157030690Y-83780301D02*
X157784937Y-84157425D01*
X157973499Y-83968863D02*
X157407813Y-83403178D01*
X157407813Y-83403178D02*
X157542500Y-83268491D01*
X157542500Y-83268491D02*
X157650250Y-83214616D01*
X157650250Y-83214616D02*
X157757999Y-83214616D01*
X157757999Y-83214616D02*
X157838812Y-83241553D01*
X157838812Y-83241553D02*
X157973499Y-83322366D01*
X157973499Y-83322366D02*
X158054311Y-83403178D01*
X158054311Y-83403178D02*
X158135123Y-83537865D01*
X158135123Y-83537865D02*
X158162060Y-83618677D01*
X158162060Y-83618677D02*
X158162060Y-83726427D01*
X158162060Y-83726427D02*
X158108186Y-83834176D01*
X158108186Y-83834176D02*
X157973499Y-83968863D01*
X158808558Y-83026054D02*
X158808558Y-83079929D01*
X158808558Y-83079929D02*
X158754683Y-83187679D01*
X158754683Y-83187679D02*
X158700808Y-83241553D01*
X158700808Y-83241553D02*
X158593059Y-83295428D01*
X158593059Y-83295428D02*
X158485309Y-83295428D01*
X158485309Y-83295428D02*
X158404497Y-83268491D01*
X158404497Y-83268491D02*
X158269810Y-83187679D01*
X158269810Y-83187679D02*
X158188998Y-83106866D01*
X158188998Y-83106866D02*
X158108186Y-82972179D01*
X158108186Y-82972179D02*
X158081248Y-82891367D01*
X158081248Y-82891367D02*
X158081248Y-82783618D01*
X158081248Y-82783618D02*
X158135123Y-82675868D01*
X158135123Y-82675868D02*
X158188998Y-82621993D01*
X158188998Y-82621993D02*
X158296747Y-82568118D01*
X158296747Y-82568118D02*
X158350622Y-82568118D01*
X159024057Y-83026054D02*
X159455056Y-82595056D01*
X158889370Y-81921621D02*
X159643618Y-82298744D01*
X159643618Y-82298744D02*
X159266494Y-81544497D01*
X160343990Y-81598372D02*
X159886054Y-81517560D01*
X160020741Y-81921621D02*
X159455056Y-81355935D01*
X159455056Y-81355935D02*
X159670555Y-81140436D01*
X159670555Y-81140436D02*
X159751367Y-81113499D01*
X159751367Y-81113499D02*
X159805242Y-81113499D01*
X159805242Y-81113499D02*
X159886054Y-81140436D01*
X159886054Y-81140436D02*
X159966866Y-81221248D01*
X159966866Y-81221248D02*
X159993804Y-81302061D01*
X159993804Y-81302061D02*
X159993804Y-81355935D01*
X159993804Y-81355935D02*
X159966866Y-81436748D01*
X159966866Y-81436748D02*
X159751367Y-81652247D01*
X160290115Y-81059624D02*
X160478677Y-80871062D01*
X160855800Y-81086561D02*
X160586426Y-81355935D01*
X160586426Y-81355935D02*
X160020741Y-80790250D01*
X160020741Y-80790250D02*
X160290115Y-80520876D01*
X160990488Y-80359251D02*
X160801926Y-80547813D01*
X161098237Y-80844125D02*
X160532552Y-80278439D01*
X160532552Y-80278439D02*
X160801926Y-80009065D01*
X157296873Y-89526240D02*
X157566247Y-89256866D01*
X157404623Y-89741739D02*
X157027499Y-88987492D01*
X157027499Y-88987492D02*
X157781746Y-89364615D01*
X157727871Y-88340994D02*
X157647059Y-88367932D01*
X157647059Y-88367932D02*
X157566247Y-88448744D01*
X157566247Y-88448744D02*
X157512372Y-88556494D01*
X157512372Y-88556494D02*
X157512372Y-88664243D01*
X157512372Y-88664243D02*
X157539310Y-88745055D01*
X157539310Y-88745055D02*
X157620122Y-88879742D01*
X157620122Y-88879742D02*
X157700934Y-88960555D01*
X157700934Y-88960555D02*
X157835621Y-89041367D01*
X157835621Y-89041367D02*
X157916433Y-89068304D01*
X157916433Y-89068304D02*
X158024183Y-89068304D01*
X158024183Y-89068304D02*
X158131932Y-89014429D01*
X158131932Y-89014429D02*
X158185807Y-88960555D01*
X158185807Y-88960555D02*
X158239682Y-88852805D01*
X158239682Y-88852805D02*
X158239682Y-88798930D01*
X158239682Y-88798930D02*
X158051120Y-88610368D01*
X158051120Y-88610368D02*
X157943371Y-88718118D01*
X158535993Y-88610368D02*
X157970308Y-88044683D01*
X157970308Y-88044683D02*
X158859242Y-88287120D01*
X158859242Y-88287120D02*
X158293557Y-87721434D01*
X159128616Y-88017746D02*
X158562931Y-87452060D01*
X158562931Y-87452060D02*
X158697618Y-87317373D01*
X158697618Y-87317373D02*
X158805367Y-87263498D01*
X158805367Y-87263498D02*
X158913117Y-87263498D01*
X158913117Y-87263498D02*
X158993929Y-87290436D01*
X158993929Y-87290436D02*
X159128616Y-87371248D01*
X159128616Y-87371248D02*
X159209428Y-87452060D01*
X159209428Y-87452060D02*
X159290241Y-87586747D01*
X159290241Y-87586747D02*
X159317178Y-87667560D01*
X159317178Y-87667560D02*
X159317178Y-87775309D01*
X159317178Y-87775309D02*
X159263303Y-87883059D01*
X159263303Y-87883059D02*
X159128616Y-88017746D01*
X131631435Y-75883431D02*
X131550623Y-75910368D01*
X131550623Y-75910368D02*
X131469811Y-75991180D01*
X131469811Y-75991180D02*
X131415936Y-76098930D01*
X131415936Y-76098930D02*
X131415936Y-76206680D01*
X131415936Y-76206680D02*
X131442873Y-76287492D01*
X131442873Y-76287492D02*
X131523685Y-76422179D01*
X131523685Y-76422179D02*
X131604498Y-76502991D01*
X131604498Y-76502991D02*
X131739185Y-76583803D01*
X131739185Y-76583803D02*
X131819997Y-76610741D01*
X131819997Y-76610741D02*
X131927746Y-76610741D01*
X131927746Y-76610741D02*
X132035496Y-76556866D01*
X132035496Y-76556866D02*
X132089371Y-76502991D01*
X132089371Y-76502991D02*
X132143246Y-76395241D01*
X132143246Y-76395241D02*
X132143246Y-76341367D01*
X132143246Y-76341367D02*
X131954684Y-76152805D01*
X131954684Y-76152805D02*
X131846934Y-76260554D01*
X132439557Y-76152805D02*
X131873872Y-75587119D01*
X131873872Y-75587119D02*
X132762806Y-75829556D01*
X132762806Y-75829556D02*
X132197120Y-75263871D01*
X133032180Y-75560182D02*
X132466494Y-74994497D01*
X132466494Y-74994497D02*
X132601181Y-74859810D01*
X132601181Y-74859810D02*
X132708931Y-74805935D01*
X132708931Y-74805935D02*
X132816680Y-74805935D01*
X132816680Y-74805935D02*
X132897493Y-74832872D01*
X132897493Y-74832872D02*
X133032180Y-74913685D01*
X133032180Y-74913685D02*
X133112992Y-74994497D01*
X133112992Y-74994497D02*
X133193804Y-75129184D01*
X133193804Y-75129184D02*
X133220741Y-75209996D01*
X133220741Y-75209996D02*
X133220741Y-75317746D01*
X133220741Y-75317746D02*
X133166867Y-75425495D01*
X133166867Y-75425495D02*
X133032180Y-75560182D01*
X157242998Y-91375868D02*
X157162185Y-91402805D01*
X157162185Y-91402805D02*
X157081373Y-91483618D01*
X157081373Y-91483618D02*
X157027498Y-91591367D01*
X157027498Y-91591367D02*
X157027498Y-91699117D01*
X157027498Y-91699117D02*
X157054436Y-91779929D01*
X157054436Y-91779929D02*
X157135248Y-91914616D01*
X157135248Y-91914616D02*
X157216060Y-91995428D01*
X157216060Y-91995428D02*
X157350747Y-92076241D01*
X157350747Y-92076241D02*
X157431560Y-92103178D01*
X157431560Y-92103178D02*
X157539309Y-92103178D01*
X157539309Y-92103178D02*
X157647059Y-92049303D01*
X157647059Y-92049303D02*
X157700934Y-91995428D01*
X157700934Y-91995428D02*
X157754808Y-91887679D01*
X157754808Y-91887679D02*
X157754808Y-91833804D01*
X157754808Y-91833804D02*
X157566247Y-91645242D01*
X157566247Y-91645242D02*
X157458497Y-91752992D01*
X158051120Y-91645242D02*
X157485434Y-91079557D01*
X157485434Y-91079557D02*
X157700934Y-90864057D01*
X157700934Y-90864057D02*
X157781746Y-90837120D01*
X157781746Y-90837120D02*
X157835621Y-90837120D01*
X157835621Y-90837120D02*
X157916433Y-90864057D01*
X157916433Y-90864057D02*
X157997245Y-90944870D01*
X157997245Y-90944870D02*
X158024182Y-91025682D01*
X158024182Y-91025682D02*
X158024182Y-91079557D01*
X158024182Y-91079557D02*
X157997245Y-91160369D01*
X157997245Y-91160369D02*
X157781746Y-91375868D01*
X158078057Y-90594683D02*
X158078057Y-90540809D01*
X158078057Y-90540809D02*
X158104995Y-90459996D01*
X158104995Y-90459996D02*
X158239682Y-90325309D01*
X158239682Y-90325309D02*
X158320494Y-90298372D01*
X158320494Y-90298372D02*
X158374369Y-90298372D01*
X158374369Y-90298372D02*
X158455181Y-90325309D01*
X158455181Y-90325309D02*
X158509056Y-90379184D01*
X158509056Y-90379184D02*
X158562930Y-90486934D01*
X158562930Y-90486934D02*
X158562930Y-91133431D01*
X158562930Y-91133431D02*
X158913117Y-90783245D01*
X158535993Y-90028998D02*
X158913117Y-89651874D01*
X158913117Y-89651874D02*
X159236366Y-90459996D01*
X131658372Y-86016494D02*
X131577560Y-86043431D01*
X131577560Y-86043431D02*
X131496748Y-86124243D01*
X131496748Y-86124243D02*
X131442873Y-86231993D01*
X131442873Y-86231993D02*
X131442873Y-86339742D01*
X131442873Y-86339742D02*
X131469810Y-86420555D01*
X131469810Y-86420555D02*
X131550623Y-86555242D01*
X131550623Y-86555242D02*
X131631435Y-86636054D01*
X131631435Y-86636054D02*
X131766122Y-86716866D01*
X131766122Y-86716866D02*
X131846934Y-86743803D01*
X131846934Y-86743803D02*
X131954684Y-86743803D01*
X131954684Y-86743803D02*
X132062433Y-86689929D01*
X132062433Y-86689929D02*
X132116308Y-86636054D01*
X132116308Y-86636054D02*
X132170183Y-86528304D01*
X132170183Y-86528304D02*
X132170183Y-86474429D01*
X132170183Y-86474429D02*
X131981621Y-86285868D01*
X131981621Y-86285868D02*
X131873871Y-86393617D01*
X132466494Y-86285868D02*
X131900809Y-85720182D01*
X131900809Y-85720182D02*
X132116308Y-85504683D01*
X132116308Y-85504683D02*
X132197120Y-85477746D01*
X132197120Y-85477746D02*
X132250995Y-85477746D01*
X132250995Y-85477746D02*
X132331807Y-85504683D01*
X132331807Y-85504683D02*
X132412619Y-85585495D01*
X132412619Y-85585495D02*
X132439557Y-85666307D01*
X132439557Y-85666307D02*
X132439557Y-85720182D01*
X132439557Y-85720182D02*
X132412619Y-85800994D01*
X132412619Y-85800994D02*
X132197120Y-86016494D01*
X132735868Y-84885123D02*
X132466494Y-85154497D01*
X132466494Y-85154497D02*
X132708931Y-85450808D01*
X132708931Y-85450808D02*
X132708931Y-85396933D01*
X132708931Y-85396933D02*
X132735868Y-85316121D01*
X132735868Y-85316121D02*
X132870555Y-85181434D01*
X132870555Y-85181434D02*
X132951367Y-85154497D01*
X132951367Y-85154497D02*
X133005242Y-85154497D01*
X133005242Y-85154497D02*
X133086054Y-85181434D01*
X133086054Y-85181434D02*
X133220741Y-85316121D01*
X133220741Y-85316121D02*
X133247679Y-85396933D01*
X133247679Y-85396933D02*
X133247679Y-85450808D01*
X133247679Y-85450808D02*
X133220741Y-85531620D01*
X133220741Y-85531620D02*
X133086054Y-85666307D01*
X133086054Y-85666307D02*
X133005242Y-85693245D01*
X133005242Y-85693245D02*
X132951367Y-85693245D01*
X157983651Y-96728710D02*
X157525716Y-96647898D01*
X157660403Y-97051959D02*
X157094717Y-96486274D01*
X157094717Y-96486274D02*
X157310216Y-96270775D01*
X157310216Y-96270775D02*
X157391029Y-96243837D01*
X157391029Y-96243837D02*
X157444903Y-96243837D01*
X157444903Y-96243837D02*
X157525716Y-96270775D01*
X157525716Y-96270775D02*
X157606528Y-96351587D01*
X157606528Y-96351587D02*
X157633465Y-96432399D01*
X157633465Y-96432399D02*
X157633465Y-96486274D01*
X157633465Y-96486274D02*
X157606528Y-96567086D01*
X157606528Y-96567086D02*
X157391029Y-96782585D01*
X157660403Y-95920588D02*
X158118338Y-96378524D01*
X158118338Y-96378524D02*
X158199151Y-96405462D01*
X158199151Y-96405462D02*
X158253025Y-96405462D01*
X158253025Y-96405462D02*
X158333838Y-96378524D01*
X158333838Y-96378524D02*
X158441587Y-96270775D01*
X158441587Y-96270775D02*
X158468525Y-96189962D01*
X158468525Y-96189962D02*
X158468525Y-96136088D01*
X158468525Y-96136088D02*
X158441587Y-96055275D01*
X158441587Y-96055275D02*
X157983651Y-95597340D01*
X158818711Y-95893651D02*
X158253025Y-95327966D01*
X158253025Y-95327966D02*
X159141959Y-95570402D01*
X159141959Y-95570402D02*
X158576274Y-95004717D01*
X131658372Y-96176494D02*
X131577560Y-96203431D01*
X131577560Y-96203431D02*
X131496748Y-96284243D01*
X131496748Y-96284243D02*
X131442873Y-96391993D01*
X131442873Y-96391993D02*
X131442873Y-96499742D01*
X131442873Y-96499742D02*
X131469810Y-96580555D01*
X131469810Y-96580555D02*
X131550623Y-96715242D01*
X131550623Y-96715242D02*
X131631435Y-96796054D01*
X131631435Y-96796054D02*
X131766122Y-96876866D01*
X131766122Y-96876866D02*
X131846934Y-96903803D01*
X131846934Y-96903803D02*
X131954684Y-96903803D01*
X131954684Y-96903803D02*
X132062433Y-96849929D01*
X132062433Y-96849929D02*
X132116308Y-96796054D01*
X132116308Y-96796054D02*
X132170183Y-96688304D01*
X132170183Y-96688304D02*
X132170183Y-96634429D01*
X132170183Y-96634429D02*
X131981621Y-96445868D01*
X131981621Y-96445868D02*
X131873871Y-96553617D01*
X132466494Y-96445868D02*
X131900809Y-95880182D01*
X131900809Y-95880182D02*
X132116308Y-95664683D01*
X132116308Y-95664683D02*
X132197120Y-95637746D01*
X132197120Y-95637746D02*
X132250995Y-95637746D01*
X132250995Y-95637746D02*
X132331807Y-95664683D01*
X132331807Y-95664683D02*
X132412619Y-95745495D01*
X132412619Y-95745495D02*
X132439557Y-95826307D01*
X132439557Y-95826307D02*
X132439557Y-95880182D01*
X132439557Y-95880182D02*
X132412619Y-95960994D01*
X132412619Y-95960994D02*
X132197120Y-96176494D01*
X132789743Y-95476121D02*
X132708931Y-95503059D01*
X132708931Y-95503059D02*
X132655056Y-95503059D01*
X132655056Y-95503059D02*
X132574244Y-95476121D01*
X132574244Y-95476121D02*
X132547306Y-95449184D01*
X132547306Y-95449184D02*
X132520369Y-95368372D01*
X132520369Y-95368372D02*
X132520369Y-95314497D01*
X132520369Y-95314497D02*
X132547306Y-95233685D01*
X132547306Y-95233685D02*
X132655056Y-95125935D01*
X132655056Y-95125935D02*
X132735868Y-95098998D01*
X132735868Y-95098998D02*
X132789743Y-95098998D01*
X132789743Y-95098998D02*
X132870555Y-95125935D01*
X132870555Y-95125935D02*
X132897493Y-95152872D01*
X132897493Y-95152872D02*
X132924430Y-95233685D01*
X132924430Y-95233685D02*
X132924430Y-95287559D01*
X132924430Y-95287559D02*
X132897493Y-95368372D01*
X132897493Y-95368372D02*
X132789743Y-95476121D01*
X132789743Y-95476121D02*
X132762806Y-95556933D01*
X132762806Y-95556933D02*
X132762806Y-95610808D01*
X132762806Y-95610808D02*
X132789743Y-95691620D01*
X132789743Y-95691620D02*
X132897493Y-95799370D01*
X132897493Y-95799370D02*
X132978305Y-95826307D01*
X132978305Y-95826307D02*
X133032180Y-95826307D01*
X133032180Y-95826307D02*
X133112992Y-95799370D01*
X133112992Y-95799370D02*
X133220741Y-95691620D01*
X133220741Y-95691620D02*
X133247679Y-95610808D01*
X133247679Y-95610808D02*
X133247679Y-95556933D01*
X133247679Y-95556933D02*
X133220741Y-95476121D01*
X133220741Y-95476121D02*
X133112992Y-95368372D01*
X133112992Y-95368372D02*
X133032180Y-95341434D01*
X133032180Y-95341434D02*
X132978305Y-95341434D01*
X132978305Y-95341434D02*
X132897493Y-95368372D01*
X131631435Y-113983431D02*
X131550623Y-114010368D01*
X131550623Y-114010368D02*
X131469811Y-114091180D01*
X131469811Y-114091180D02*
X131415936Y-114198930D01*
X131415936Y-114198930D02*
X131415936Y-114306680D01*
X131415936Y-114306680D02*
X131442873Y-114387492D01*
X131442873Y-114387492D02*
X131523685Y-114522179D01*
X131523685Y-114522179D02*
X131604498Y-114602991D01*
X131604498Y-114602991D02*
X131739185Y-114683803D01*
X131739185Y-114683803D02*
X131819997Y-114710741D01*
X131819997Y-114710741D02*
X131927746Y-114710741D01*
X131927746Y-114710741D02*
X132035496Y-114656866D01*
X132035496Y-114656866D02*
X132089371Y-114602991D01*
X132089371Y-114602991D02*
X132143246Y-114495241D01*
X132143246Y-114495241D02*
X132143246Y-114441367D01*
X132143246Y-114441367D02*
X131954684Y-114252805D01*
X131954684Y-114252805D02*
X131846934Y-114360554D01*
X132439557Y-114252805D02*
X131873872Y-113687119D01*
X131873872Y-113687119D02*
X132762806Y-113929556D01*
X132762806Y-113929556D02*
X132197120Y-113363871D01*
X133032180Y-113660182D02*
X132466494Y-113094497D01*
X132466494Y-113094497D02*
X132601181Y-112959810D01*
X132601181Y-112959810D02*
X132708931Y-112905935D01*
X132708931Y-112905935D02*
X132816680Y-112905935D01*
X132816680Y-112905935D02*
X132897493Y-112932872D01*
X132897493Y-112932872D02*
X133032180Y-113013685D01*
X133032180Y-113013685D02*
X133112992Y-113094497D01*
X133112992Y-113094497D02*
X133193804Y-113229184D01*
X133193804Y-113229184D02*
X133220741Y-113309996D01*
X133220741Y-113309996D02*
X133220741Y-113417746D01*
X133220741Y-113417746D02*
X133166867Y-113525495D01*
X133166867Y-113525495D02*
X133032180Y-113660182D01*
X157242998Y-106605868D02*
X157162185Y-106632805D01*
X157162185Y-106632805D02*
X157081373Y-106713618D01*
X157081373Y-106713618D02*
X157027498Y-106821367D01*
X157027498Y-106821367D02*
X157027498Y-106929117D01*
X157027498Y-106929117D02*
X157054436Y-107009929D01*
X157054436Y-107009929D02*
X157135248Y-107144616D01*
X157135248Y-107144616D02*
X157216060Y-107225428D01*
X157216060Y-107225428D02*
X157350747Y-107306241D01*
X157350747Y-107306241D02*
X157431560Y-107333178D01*
X157431560Y-107333178D02*
X157539309Y-107333178D01*
X157539309Y-107333178D02*
X157647059Y-107279303D01*
X157647059Y-107279303D02*
X157700934Y-107225428D01*
X157700934Y-107225428D02*
X157754808Y-107117679D01*
X157754808Y-107117679D02*
X157754808Y-107063804D01*
X157754808Y-107063804D02*
X157566247Y-106875242D01*
X157566247Y-106875242D02*
X157458497Y-106982992D01*
X158051120Y-106875242D02*
X157485434Y-106309557D01*
X157485434Y-106309557D02*
X157700934Y-106094057D01*
X157700934Y-106094057D02*
X157781746Y-106067120D01*
X157781746Y-106067120D02*
X157835621Y-106067120D01*
X157835621Y-106067120D02*
X157916433Y-106094057D01*
X157916433Y-106094057D02*
X157997245Y-106174870D01*
X157997245Y-106174870D02*
X158024182Y-106255682D01*
X158024182Y-106255682D02*
X158024182Y-106309557D01*
X158024182Y-106309557D02*
X157997245Y-106390369D01*
X157997245Y-106390369D02*
X157781746Y-106605868D01*
X158078057Y-105824683D02*
X158078057Y-105770809D01*
X158078057Y-105770809D02*
X158104995Y-105689996D01*
X158104995Y-105689996D02*
X158239682Y-105555309D01*
X158239682Y-105555309D02*
X158320494Y-105528372D01*
X158320494Y-105528372D02*
X158374369Y-105528372D01*
X158374369Y-105528372D02*
X158455181Y-105555309D01*
X158455181Y-105555309D02*
X158509056Y-105609184D01*
X158509056Y-105609184D02*
X158562930Y-105716934D01*
X158562930Y-105716934D02*
X158562930Y-106363431D01*
X158562930Y-106363431D02*
X158913117Y-106013245D01*
X158697618Y-105097373D02*
X158751492Y-105043499D01*
X158751492Y-105043499D02*
X158832305Y-105016561D01*
X158832305Y-105016561D02*
X158886179Y-105016561D01*
X158886179Y-105016561D02*
X158966992Y-105043499D01*
X158966992Y-105043499D02*
X159101679Y-105124311D01*
X159101679Y-105124311D02*
X159236366Y-105258998D01*
X159236366Y-105258998D02*
X159317178Y-105393685D01*
X159317178Y-105393685D02*
X159344115Y-105474497D01*
X159344115Y-105474497D02*
X159344115Y-105528372D01*
X159344115Y-105528372D02*
X159317178Y-105609184D01*
X159317178Y-105609184D02*
X159263303Y-105663059D01*
X159263303Y-105663059D02*
X159182491Y-105689996D01*
X159182491Y-105689996D02*
X159128616Y-105689996D01*
X159128616Y-105689996D02*
X159047804Y-105663059D01*
X159047804Y-105663059D02*
X158913117Y-105582247D01*
X158913117Y-105582247D02*
X158778430Y-105447560D01*
X158778430Y-105447560D02*
X158697618Y-105312873D01*
X158697618Y-105312873D02*
X158670680Y-105232060D01*
X158670680Y-105232060D02*
X158670680Y-105178186D01*
X158670680Y-105178186D02*
X158697618Y-105097373D01*
X157242998Y-116765868D02*
X157162185Y-116792805D01*
X157162185Y-116792805D02*
X157081373Y-116873618D01*
X157081373Y-116873618D02*
X157027498Y-116981367D01*
X157027498Y-116981367D02*
X157027498Y-117089117D01*
X157027498Y-117089117D02*
X157054436Y-117169929D01*
X157054436Y-117169929D02*
X157135248Y-117304616D01*
X157135248Y-117304616D02*
X157216060Y-117385428D01*
X157216060Y-117385428D02*
X157350747Y-117466241D01*
X157350747Y-117466241D02*
X157431560Y-117493178D01*
X157431560Y-117493178D02*
X157539309Y-117493178D01*
X157539309Y-117493178D02*
X157647059Y-117439303D01*
X157647059Y-117439303D02*
X157700934Y-117385428D01*
X157700934Y-117385428D02*
X157754808Y-117277679D01*
X157754808Y-117277679D02*
X157754808Y-117223804D01*
X157754808Y-117223804D02*
X157566247Y-117035242D01*
X157566247Y-117035242D02*
X157458497Y-117142992D01*
X158051120Y-117035242D02*
X157485434Y-116469557D01*
X157485434Y-116469557D02*
X157700934Y-116254057D01*
X157700934Y-116254057D02*
X157781746Y-116227120D01*
X157781746Y-116227120D02*
X157835621Y-116227120D01*
X157835621Y-116227120D02*
X157916433Y-116254057D01*
X157916433Y-116254057D02*
X157997245Y-116334870D01*
X157997245Y-116334870D02*
X158024182Y-116415682D01*
X158024182Y-116415682D02*
X158024182Y-116469557D01*
X158024182Y-116469557D02*
X157997245Y-116550369D01*
X157997245Y-116550369D02*
X157781746Y-116765868D01*
X158913117Y-116173245D02*
X158589868Y-116496494D01*
X158751492Y-116334870D02*
X158185807Y-115769184D01*
X158185807Y-115769184D02*
X158212744Y-115903871D01*
X158212744Y-115903871D02*
X158212744Y-116011621D01*
X158212744Y-116011621D02*
X158185807Y-116092433D01*
X158535993Y-115418998D02*
X158913117Y-115041874D01*
X158913117Y-115041874D02*
X159236366Y-115849996D01*
X157242998Y-119305868D02*
X157162185Y-119332805D01*
X157162185Y-119332805D02*
X157081373Y-119413618D01*
X157081373Y-119413618D02*
X157027498Y-119521367D01*
X157027498Y-119521367D02*
X157027498Y-119629117D01*
X157027498Y-119629117D02*
X157054436Y-119709929D01*
X157054436Y-119709929D02*
X157135248Y-119844616D01*
X157135248Y-119844616D02*
X157216060Y-119925428D01*
X157216060Y-119925428D02*
X157350747Y-120006241D01*
X157350747Y-120006241D02*
X157431560Y-120033178D01*
X157431560Y-120033178D02*
X157539309Y-120033178D01*
X157539309Y-120033178D02*
X157647059Y-119979303D01*
X157647059Y-119979303D02*
X157700934Y-119925428D01*
X157700934Y-119925428D02*
X157754808Y-119817679D01*
X157754808Y-119817679D02*
X157754808Y-119763804D01*
X157754808Y-119763804D02*
X157566247Y-119575242D01*
X157566247Y-119575242D02*
X157458497Y-119682992D01*
X158051120Y-119575242D02*
X157485434Y-119009557D01*
X157485434Y-119009557D02*
X157700934Y-118794057D01*
X157700934Y-118794057D02*
X157781746Y-118767120D01*
X157781746Y-118767120D02*
X157835621Y-118767120D01*
X157835621Y-118767120D02*
X157916433Y-118794057D01*
X157916433Y-118794057D02*
X157997245Y-118874870D01*
X157997245Y-118874870D02*
X158024182Y-118955682D01*
X158024182Y-118955682D02*
X158024182Y-119009557D01*
X158024182Y-119009557D02*
X157997245Y-119090369D01*
X157997245Y-119090369D02*
X157781746Y-119305868D01*
X158913117Y-118713245D02*
X158589868Y-119036494D01*
X158751492Y-118874870D02*
X158185807Y-118309184D01*
X158185807Y-118309184D02*
X158212744Y-118443871D01*
X158212744Y-118443871D02*
X158212744Y-118551621D01*
X158212744Y-118551621D02*
X158185807Y-118632433D01*
X158832305Y-117662686D02*
X158724555Y-117770436D01*
X158724555Y-117770436D02*
X158697618Y-117851248D01*
X158697618Y-117851248D02*
X158697618Y-117905123D01*
X158697618Y-117905123D02*
X158724555Y-118039810D01*
X158724555Y-118039810D02*
X158805367Y-118174497D01*
X158805367Y-118174497D02*
X159020866Y-118389996D01*
X159020866Y-118389996D02*
X159101679Y-118416934D01*
X159101679Y-118416934D02*
X159155553Y-118416934D01*
X159155553Y-118416934D02*
X159236366Y-118389996D01*
X159236366Y-118389996D02*
X159344115Y-118282247D01*
X159344115Y-118282247D02*
X159371053Y-118201434D01*
X159371053Y-118201434D02*
X159371053Y-118147560D01*
X159371053Y-118147560D02*
X159344115Y-118066747D01*
X159344115Y-118066747D02*
X159209428Y-117932060D01*
X159209428Y-117932060D02*
X159128616Y-117905123D01*
X159128616Y-117905123D02*
X159074741Y-117905123D01*
X159074741Y-117905123D02*
X158993929Y-117932060D01*
X158993929Y-117932060D02*
X158886179Y-118039810D01*
X158886179Y-118039810D02*
X158859242Y-118120622D01*
X158859242Y-118120622D02*
X158859242Y-118174497D01*
X158859242Y-118174497D02*
X158886179Y-118255309D01*
X157242998Y-86031868D02*
X157162185Y-86058805D01*
X157162185Y-86058805D02*
X157081373Y-86139618D01*
X157081373Y-86139618D02*
X157027498Y-86247367D01*
X157027498Y-86247367D02*
X157027498Y-86355117D01*
X157027498Y-86355117D02*
X157054436Y-86435929D01*
X157054436Y-86435929D02*
X157135248Y-86570616D01*
X157135248Y-86570616D02*
X157216060Y-86651428D01*
X157216060Y-86651428D02*
X157350747Y-86732241D01*
X157350747Y-86732241D02*
X157431560Y-86759178D01*
X157431560Y-86759178D02*
X157539309Y-86759178D01*
X157539309Y-86759178D02*
X157647059Y-86705303D01*
X157647059Y-86705303D02*
X157700934Y-86651428D01*
X157700934Y-86651428D02*
X157754808Y-86543679D01*
X157754808Y-86543679D02*
X157754808Y-86489804D01*
X157754808Y-86489804D02*
X157566247Y-86301242D01*
X157566247Y-86301242D02*
X157458497Y-86408992D01*
X158051120Y-86301242D02*
X157485434Y-85735557D01*
X157485434Y-85735557D02*
X157700934Y-85520057D01*
X157700934Y-85520057D02*
X157781746Y-85493120D01*
X157781746Y-85493120D02*
X157835621Y-85493120D01*
X157835621Y-85493120D02*
X157916433Y-85520057D01*
X157916433Y-85520057D02*
X157997245Y-85600870D01*
X157997245Y-85600870D02*
X158024182Y-85681682D01*
X158024182Y-85681682D02*
X158024182Y-85735557D01*
X158024182Y-85735557D02*
X157997245Y-85816369D01*
X157997245Y-85816369D02*
X157781746Y-86031868D01*
X158078057Y-85250683D02*
X158078057Y-85196809D01*
X158078057Y-85196809D02*
X158104995Y-85115996D01*
X158104995Y-85115996D02*
X158239682Y-84981309D01*
X158239682Y-84981309D02*
X158320494Y-84954372D01*
X158320494Y-84954372D02*
X158374369Y-84954372D01*
X158374369Y-84954372D02*
X158455181Y-84981309D01*
X158455181Y-84981309D02*
X158509056Y-85035184D01*
X158509056Y-85035184D02*
X158562930Y-85142934D01*
X158562930Y-85142934D02*
X158562930Y-85789431D01*
X158562930Y-85789431D02*
X158913117Y-85439245D01*
X158913117Y-84792747D02*
X158832305Y-84819685D01*
X158832305Y-84819685D02*
X158778430Y-84819685D01*
X158778430Y-84819685D02*
X158697618Y-84792747D01*
X158697618Y-84792747D02*
X158670680Y-84765810D01*
X158670680Y-84765810D02*
X158643743Y-84684998D01*
X158643743Y-84684998D02*
X158643743Y-84631123D01*
X158643743Y-84631123D02*
X158670680Y-84550311D01*
X158670680Y-84550311D02*
X158778430Y-84442561D01*
X158778430Y-84442561D02*
X158859242Y-84415624D01*
X158859242Y-84415624D02*
X158913117Y-84415624D01*
X158913117Y-84415624D02*
X158993929Y-84442561D01*
X158993929Y-84442561D02*
X159020866Y-84469499D01*
X159020866Y-84469499D02*
X159047804Y-84550311D01*
X159047804Y-84550311D02*
X159047804Y-84604186D01*
X159047804Y-84604186D02*
X159020866Y-84684998D01*
X159020866Y-84684998D02*
X158913117Y-84792747D01*
X158913117Y-84792747D02*
X158886179Y-84873560D01*
X158886179Y-84873560D02*
X158886179Y-84927434D01*
X158886179Y-84927434D02*
X158913117Y-85008247D01*
X158913117Y-85008247D02*
X159020866Y-85115996D01*
X159020866Y-85115996D02*
X159101679Y-85142934D01*
X159101679Y-85142934D02*
X159155553Y-85142934D01*
X159155553Y-85142934D02*
X159236366Y-85115996D01*
X159236366Y-85115996D02*
X159344115Y-85008247D01*
X159344115Y-85008247D02*
X159371053Y-84927434D01*
X159371053Y-84927434D02*
X159371053Y-84873560D01*
X159371053Y-84873560D02*
X159344115Y-84792747D01*
X159344115Y-84792747D02*
X159236366Y-84684998D01*
X159236366Y-84684998D02*
X159155553Y-84658060D01*
X159155553Y-84658060D02*
X159101679Y-84658060D01*
X159101679Y-84658060D02*
X159020866Y-84684998D01*
X131658372Y-83476494D02*
X131577560Y-83503431D01*
X131577560Y-83503431D02*
X131496748Y-83584243D01*
X131496748Y-83584243D02*
X131442873Y-83691993D01*
X131442873Y-83691993D02*
X131442873Y-83799742D01*
X131442873Y-83799742D02*
X131469810Y-83880555D01*
X131469810Y-83880555D02*
X131550623Y-84015242D01*
X131550623Y-84015242D02*
X131631435Y-84096054D01*
X131631435Y-84096054D02*
X131766122Y-84176866D01*
X131766122Y-84176866D02*
X131846934Y-84203803D01*
X131846934Y-84203803D02*
X131954684Y-84203803D01*
X131954684Y-84203803D02*
X132062433Y-84149929D01*
X132062433Y-84149929D02*
X132116308Y-84096054D01*
X132116308Y-84096054D02*
X132170183Y-83988304D01*
X132170183Y-83988304D02*
X132170183Y-83934429D01*
X132170183Y-83934429D02*
X131981621Y-83745868D01*
X131981621Y-83745868D02*
X131873871Y-83853617D01*
X132466494Y-83745868D02*
X131900809Y-83180182D01*
X131900809Y-83180182D02*
X132116308Y-82964683D01*
X132116308Y-82964683D02*
X132197120Y-82937746D01*
X132197120Y-82937746D02*
X132250995Y-82937746D01*
X132250995Y-82937746D02*
X132331807Y-82964683D01*
X132331807Y-82964683D02*
X132412619Y-83045495D01*
X132412619Y-83045495D02*
X132439557Y-83126307D01*
X132439557Y-83126307D02*
X132439557Y-83180182D01*
X132439557Y-83180182D02*
X132412619Y-83260994D01*
X132412619Y-83260994D02*
X132197120Y-83476494D01*
X132897493Y-82560622D02*
X133274616Y-82937746D01*
X132547306Y-82479810D02*
X132816680Y-83018558D01*
X132816680Y-83018558D02*
X133166867Y-82668372D01*
X157035123Y-81275868D02*
X157385309Y-80925682D01*
X157385309Y-80925682D02*
X157412247Y-81329743D01*
X157412247Y-81329743D02*
X157493059Y-81248931D01*
X157493059Y-81248931D02*
X157573871Y-81221993D01*
X157573871Y-81221993D02*
X157627746Y-81221993D01*
X157627746Y-81221993D02*
X157708558Y-81248931D01*
X157708558Y-81248931D02*
X157843245Y-81383618D01*
X157843245Y-81383618D02*
X157870182Y-81464430D01*
X157870182Y-81464430D02*
X157870182Y-81518305D01*
X157870182Y-81518305D02*
X157843245Y-81599117D01*
X157843245Y-81599117D02*
X157681621Y-81760741D01*
X157681621Y-81760741D02*
X157600808Y-81787679D01*
X157600808Y-81787679D02*
X157546934Y-81787679D01*
X157546934Y-80764057D02*
X158301181Y-81141181D01*
X158301181Y-81141181D02*
X157924057Y-80386934D01*
X158058744Y-80252247D02*
X158408930Y-79902061D01*
X158408930Y-79902061D02*
X158435868Y-80306122D01*
X158435868Y-80306122D02*
X158516680Y-80225309D01*
X158516680Y-80225309D02*
X158597492Y-80198372D01*
X158597492Y-80198372D02*
X158651367Y-80198372D01*
X158651367Y-80198372D02*
X158732179Y-80225309D01*
X158732179Y-80225309D02*
X158866866Y-80359996D01*
X158866866Y-80359996D02*
X158893804Y-80440809D01*
X158893804Y-80440809D02*
X158893804Y-80494683D01*
X158893804Y-80494683D02*
X158866866Y-80575496D01*
X158866866Y-80575496D02*
X158705242Y-80737120D01*
X158705242Y-80737120D02*
X158624430Y-80764057D01*
X158624430Y-80764057D02*
X158570555Y-80764057D01*
X157242998Y-109145868D02*
X157162185Y-109172805D01*
X157162185Y-109172805D02*
X157081373Y-109253618D01*
X157081373Y-109253618D02*
X157027498Y-109361367D01*
X157027498Y-109361367D02*
X157027498Y-109469117D01*
X157027498Y-109469117D02*
X157054436Y-109549929D01*
X157054436Y-109549929D02*
X157135248Y-109684616D01*
X157135248Y-109684616D02*
X157216060Y-109765428D01*
X157216060Y-109765428D02*
X157350747Y-109846241D01*
X157350747Y-109846241D02*
X157431560Y-109873178D01*
X157431560Y-109873178D02*
X157539309Y-109873178D01*
X157539309Y-109873178D02*
X157647059Y-109819303D01*
X157647059Y-109819303D02*
X157700934Y-109765428D01*
X157700934Y-109765428D02*
X157754808Y-109657679D01*
X157754808Y-109657679D02*
X157754808Y-109603804D01*
X157754808Y-109603804D02*
X157566247Y-109415242D01*
X157566247Y-109415242D02*
X157458497Y-109522992D01*
X158051120Y-109415242D02*
X157485434Y-108849557D01*
X157485434Y-108849557D02*
X157700934Y-108634057D01*
X157700934Y-108634057D02*
X157781746Y-108607120D01*
X157781746Y-108607120D02*
X157835621Y-108607120D01*
X157835621Y-108607120D02*
X157916433Y-108634057D01*
X157916433Y-108634057D02*
X157997245Y-108714870D01*
X157997245Y-108714870D02*
X158024182Y-108795682D01*
X158024182Y-108795682D02*
X158024182Y-108849557D01*
X158024182Y-108849557D02*
X157997245Y-108930369D01*
X157997245Y-108930369D02*
X157781746Y-109145868D01*
X158913117Y-108553245D02*
X158589868Y-108876494D01*
X158751492Y-108714870D02*
X158185807Y-108149184D01*
X158185807Y-108149184D02*
X158212744Y-108283871D01*
X158212744Y-108283871D02*
X158212744Y-108391621D01*
X158212744Y-108391621D02*
X158185807Y-108472433D01*
X159182491Y-108283871D02*
X159290240Y-108176121D01*
X159290240Y-108176121D02*
X159317178Y-108095309D01*
X159317178Y-108095309D02*
X159317178Y-108041434D01*
X159317178Y-108041434D02*
X159290240Y-107906747D01*
X159290240Y-107906747D02*
X159209428Y-107772060D01*
X159209428Y-107772060D02*
X158993929Y-107556561D01*
X158993929Y-107556561D02*
X158913117Y-107529624D01*
X158913117Y-107529624D02*
X158859242Y-107529624D01*
X158859242Y-107529624D02*
X158778430Y-107556561D01*
X158778430Y-107556561D02*
X158670680Y-107664311D01*
X158670680Y-107664311D02*
X158643743Y-107745123D01*
X158643743Y-107745123D02*
X158643743Y-107798998D01*
X158643743Y-107798998D02*
X158670680Y-107879810D01*
X158670680Y-107879810D02*
X158805367Y-108014497D01*
X158805367Y-108014497D02*
X158886179Y-108041434D01*
X158886179Y-108041434D02*
X158940054Y-108041434D01*
X158940054Y-108041434D02*
X159020866Y-108014497D01*
X159020866Y-108014497D02*
X159128616Y-107906747D01*
X159128616Y-107906747D02*
X159155553Y-107825935D01*
X159155553Y-107825935D02*
X159155553Y-107772060D01*
X159155553Y-107772060D02*
X159128616Y-107691248D01*
X172781905Y-82769819D02*
X172781905Y-81769819D01*
X172781905Y-81769819D02*
X173020000Y-81769819D01*
X173020000Y-81769819D02*
X173162857Y-81817438D01*
X173162857Y-81817438D02*
X173258095Y-81912676D01*
X173258095Y-81912676D02*
X173305714Y-82007914D01*
X173305714Y-82007914D02*
X173353333Y-82198390D01*
X173353333Y-82198390D02*
X173353333Y-82341247D01*
X173353333Y-82341247D02*
X173305714Y-82531723D01*
X173305714Y-82531723D02*
X173258095Y-82626961D01*
X173258095Y-82626961D02*
X173162857Y-82722200D01*
X173162857Y-82722200D02*
X173020000Y-82769819D01*
X173020000Y-82769819D02*
X172781905Y-82769819D01*
X174305714Y-82769819D02*
X173734286Y-82769819D01*
X174020000Y-82769819D02*
X174020000Y-81769819D01*
X174020000Y-81769819D02*
X173924762Y-81912676D01*
X173924762Y-81912676D02*
X173829524Y-82007914D01*
X173829524Y-82007914D02*
X173734286Y-82055533D01*
X166788333Y-84874819D02*
X166455000Y-84398628D01*
X166216905Y-84874819D02*
X166216905Y-83874819D01*
X166216905Y-83874819D02*
X166597857Y-83874819D01*
X166597857Y-83874819D02*
X166693095Y-83922438D01*
X166693095Y-83922438D02*
X166740714Y-83970057D01*
X166740714Y-83970057D02*
X166788333Y-84065295D01*
X166788333Y-84065295D02*
X166788333Y-84208152D01*
X166788333Y-84208152D02*
X166740714Y-84303390D01*
X166740714Y-84303390D02*
X166693095Y-84351009D01*
X166693095Y-84351009D02*
X166597857Y-84398628D01*
X166597857Y-84398628D02*
X166216905Y-84398628D01*
X167740714Y-84874819D02*
X167169286Y-84874819D01*
X167455000Y-84874819D02*
X167455000Y-83874819D01*
X167455000Y-83874819D02*
X167359762Y-84017676D01*
X167359762Y-84017676D02*
X167264524Y-84112914D01*
X167264524Y-84112914D02*
X167169286Y-84160533D01*
X169920057Y-94910238D02*
X169872438Y-95005476D01*
X169872438Y-95005476D02*
X169777200Y-95100714D01*
X169777200Y-95100714D02*
X169634342Y-95243571D01*
X169634342Y-95243571D02*
X169586723Y-95338809D01*
X169586723Y-95338809D02*
X169586723Y-95434047D01*
X169824819Y-95386428D02*
X169777200Y-95481666D01*
X169777200Y-95481666D02*
X169681961Y-95576904D01*
X169681961Y-95576904D02*
X169491485Y-95624523D01*
X169491485Y-95624523D02*
X169158152Y-95624523D01*
X169158152Y-95624523D02*
X168967676Y-95576904D01*
X168967676Y-95576904D02*
X168872438Y-95481666D01*
X168872438Y-95481666D02*
X168824819Y-95386428D01*
X168824819Y-95386428D02*
X168824819Y-95195952D01*
X168824819Y-95195952D02*
X168872438Y-95100714D01*
X168872438Y-95100714D02*
X168967676Y-95005476D01*
X168967676Y-95005476D02*
X169158152Y-94957857D01*
X169158152Y-94957857D02*
X169491485Y-94957857D01*
X169491485Y-94957857D02*
X169681961Y-95005476D01*
X169681961Y-95005476D02*
X169777200Y-95100714D01*
X169777200Y-95100714D02*
X169824819Y-95195952D01*
X169824819Y-95195952D02*
X169824819Y-95386428D01*
X169824819Y-94005476D02*
X169824819Y-94576904D01*
X169824819Y-94291190D02*
X168824819Y-94291190D01*
X168824819Y-94291190D02*
X168967676Y-94386428D01*
X168967676Y-94386428D02*
X169062914Y-94481666D01*
X169062914Y-94481666D02*
X169110533Y-94576904D01*
D11*
%TO.C,U1*%
X134645000Y-69285000D02*
X134645000Y-69585000D01*
X134645000Y-69285000D02*
X155645000Y-69285000D01*
X134645000Y-71685000D02*
X134645000Y-72085000D01*
X134645000Y-71952000D02*
X137652000Y-71952000D01*
X134645000Y-74285000D02*
X134645000Y-74685000D01*
X134645000Y-76785000D02*
X134645000Y-77185000D01*
X134645000Y-79385000D02*
X134645000Y-79785000D01*
X134645000Y-81885000D02*
X134645000Y-82285000D01*
X134645000Y-84385000D02*
X134645000Y-84785000D01*
X134645000Y-86985000D02*
X134645000Y-87385000D01*
X134645000Y-89485000D02*
X134645000Y-89885000D01*
X134645000Y-92085000D02*
X134645000Y-92485000D01*
X134645000Y-94585000D02*
X134645000Y-94985000D01*
X134645000Y-97085000D02*
X134645000Y-97485000D01*
X134645000Y-99685000D02*
X134645000Y-100085000D01*
X134645000Y-102185000D02*
X134645000Y-102585000D01*
X134645000Y-104785000D02*
X134645000Y-105185000D01*
X134645000Y-107285000D02*
X134645000Y-107685000D01*
X134645000Y-109885000D02*
X134645000Y-110285000D01*
X134645000Y-112385000D02*
X134645000Y-112785000D01*
X134645000Y-114885000D02*
X134645000Y-115285000D01*
X134645000Y-117485000D02*
X134645000Y-117885000D01*
X137652000Y-71952000D02*
X137652000Y-69285000D01*
X141445000Y-120285000D02*
X134645000Y-120285000D01*
X143645000Y-120285000D02*
X144045000Y-120285000D01*
X146245000Y-120285000D02*
X146645000Y-120285000D01*
X155645000Y-69285000D02*
X155645000Y-69585000D01*
X155645000Y-71685000D02*
X155645000Y-72085000D01*
X155645000Y-74285000D02*
X155645000Y-74685000D01*
X155645000Y-76785000D02*
X155645000Y-77185000D01*
X155645000Y-79385000D02*
X155645000Y-79785000D01*
X155645000Y-81885000D02*
X155645000Y-82285000D01*
X155645000Y-84385000D02*
X155645000Y-84785000D01*
X155645000Y-86985000D02*
X155645000Y-87385000D01*
X155645000Y-89485000D02*
X155645000Y-89885000D01*
X155645000Y-92085000D02*
X155645000Y-92485000D01*
X155645000Y-94585000D02*
X155645000Y-94985000D01*
X155645000Y-97085000D02*
X155645000Y-97485000D01*
X155645000Y-99685000D02*
X155645000Y-100085000D01*
X155645000Y-102185000D02*
X155645000Y-102585000D01*
X155645000Y-104785000D02*
X155645000Y-105185000D01*
X155645000Y-107285000D02*
X155645000Y-107685000D01*
X155645000Y-109885000D02*
X155645000Y-110285000D01*
X155645000Y-112385000D02*
X155645000Y-112785000D01*
X155645000Y-114885000D02*
X155645000Y-115285000D01*
X155645000Y-117485000D02*
X155645000Y-117885000D01*
X155645000Y-120285000D02*
X148845000Y-120285000D01*
%TO.C,D1*%
X171810000Y-90565000D02*
X171810000Y-92285000D01*
X171810000Y-92285000D02*
X175230000Y-92285000D01*
X171930000Y-90565000D02*
X171930000Y-92285000D01*
X172050000Y-90565000D02*
X172050000Y-92285000D01*
X172250000Y-85355000D02*
X172250000Y-85355000D01*
X172250000Y-85355000D02*
X172250000Y-90565000D01*
X172250000Y-90565000D02*
X172250000Y-85355000D01*
X172250000Y-90565000D02*
X172250000Y-90565000D01*
X172560000Y-92285000D02*
X172560000Y-93685000D01*
X172560000Y-93685000D02*
X174480000Y-93685000D01*
X174480000Y-92285000D02*
X172560000Y-92285000D01*
X174480000Y-93685000D02*
X174480000Y-92285000D01*
X174790000Y-85355000D02*
X174790000Y-85355000D01*
X174790000Y-85355000D02*
X174790000Y-90565000D01*
X174790000Y-90565000D02*
X174790000Y-85355000D01*
X174790000Y-90565000D02*
X174790000Y-90565000D01*
X175230000Y-90565000D02*
X171810000Y-90565000D01*
X175230000Y-92285000D02*
X175230000Y-90565000D01*
%TO.C,R1*%
X167584905Y-81750642D02*
G75*
G02*
X167487867Y-83199999I320095J-749358D01*
G01*
%TO.C,Q1*%
X164880000Y-90695000D02*
X164880000Y-98935000D01*
X165200000Y-93215000D02*
X164880000Y-93215000D01*
X165710000Y-96416000D02*
X164880000Y-96416000D01*
X168370000Y-90695000D02*
X164880000Y-90695000D01*
X168370000Y-90695000D02*
X168370000Y-98935000D01*
X168370000Y-93215000D02*
X167300000Y-93215000D01*
X168370000Y-96416000D02*
X166790000Y-96416000D01*
X168370000Y-98935000D02*
X164880000Y-98935000D01*
%TD*%
M02*
