%TF.GenerationSoftware,KiCad,Pcbnew,8.0.0*%
%TF.CreationDate,2024-03-31T13:14:54-03:00*%
%TF.ProjectId,ponderadaPcb,706f6e64-6572-4616-9461-5063622e6b69,rev?*%
%TF.SameCoordinates,Original*%
%TF.FileFunction,Soldermask,Top*%
%TF.FilePolarity,Negative*%
%FSLAX46Y46*%
G04 Gerber Fmt 4.6, Leading zero omitted, Abs format (unit mm)*
G04 Created by KiCad (PCBNEW 8.0.0) date 2024-03-31 13:14:54*
%MOMM*%
%LPD*%
G01*
G04 APERTURE LIST*
%ADD10O,1.800000X1.800000*%
%ADD11O,1.500000X1.500000*%
%ADD12O,1.700000X1.700000*%
%ADD13R,3.500000X1.700000*%
%ADD14R,1.700000X1.700000*%
%ADD15R,1.700000X3.500000*%
%ADD16R,1.800000X1.800000*%
%ADD17C,1.800000*%
%ADD18C,1.400000*%
%ADD19O,1.400000X1.400000*%
G04 APERTURE END LIST*
D10*
%TO.C,U1*%
X142420000Y-70785000D03*
D11*
X142720000Y-73815000D03*
X147570000Y-73815000D03*
D10*
X147870000Y-70785000D03*
D12*
X136255000Y-70655000D03*
D13*
X135355000Y-70655000D03*
D12*
X136255000Y-73195000D03*
D13*
X135355000Y-73195000D03*
D14*
X136255000Y-75735000D03*
D13*
X135355000Y-75735000D03*
D12*
X136255000Y-78275000D03*
D13*
X135355000Y-78275000D03*
D12*
X136255000Y-80815000D03*
D13*
X135355000Y-80815000D03*
D12*
X136255000Y-83355000D03*
D13*
X135355000Y-83355000D03*
D12*
X136255000Y-85895000D03*
D13*
X135355000Y-85895000D03*
D14*
X136255000Y-88435000D03*
D13*
X135355000Y-88435000D03*
D12*
X136255000Y-90975000D03*
D13*
X135355000Y-90975000D03*
D12*
X136255000Y-93515000D03*
D13*
X135355000Y-93515000D03*
D12*
X136255000Y-96055000D03*
D13*
X135355000Y-96055000D03*
D12*
X136255000Y-98595000D03*
D13*
X135355000Y-98595000D03*
D14*
X136255000Y-101135000D03*
D13*
X135355000Y-101135000D03*
D12*
X136255000Y-103675000D03*
D13*
X135355000Y-103675000D03*
D12*
X136255000Y-106215000D03*
D13*
X135355000Y-106215000D03*
D12*
X136255000Y-108755000D03*
D13*
X135355000Y-108755000D03*
D12*
X136255000Y-111295000D03*
D13*
X135355000Y-111295000D03*
D14*
X136255000Y-113835000D03*
D13*
X135355000Y-113835000D03*
D12*
X136255000Y-116375000D03*
D13*
X135355000Y-116375000D03*
D12*
X136255000Y-118915000D03*
D13*
X135355000Y-118915000D03*
D12*
X154035000Y-118915000D03*
D13*
X154935000Y-118915000D03*
D12*
X154035000Y-116375000D03*
D13*
X154935000Y-116375000D03*
D14*
X154035000Y-113835000D03*
D13*
X154935000Y-113835000D03*
D12*
X154035000Y-111295000D03*
D13*
X154935000Y-111295000D03*
D12*
X154035000Y-108755000D03*
D13*
X154935000Y-108755000D03*
D12*
X154035000Y-106215000D03*
D13*
X154935000Y-106215000D03*
D12*
X154035000Y-103675000D03*
D13*
X154935000Y-103675000D03*
D14*
X154035000Y-101135000D03*
D13*
X154935000Y-101135000D03*
D12*
X154035000Y-98595000D03*
D13*
X154935000Y-98595000D03*
D12*
X154035000Y-96055000D03*
D13*
X154935000Y-96055000D03*
D12*
X154035000Y-93515000D03*
D13*
X154935000Y-93515000D03*
D12*
X154035000Y-90975000D03*
D13*
X154935000Y-90975000D03*
D14*
X154035000Y-88435000D03*
D13*
X154935000Y-88435000D03*
D12*
X154035000Y-85895000D03*
D13*
X154935000Y-85895000D03*
D12*
X154035000Y-83355000D03*
D13*
X154935000Y-83355000D03*
D12*
X154035000Y-80815000D03*
D13*
X154935000Y-80815000D03*
D12*
X154035000Y-78275000D03*
D13*
X154935000Y-78275000D03*
D14*
X154035000Y-75735000D03*
D13*
X154935000Y-75735000D03*
D12*
X154035000Y-73195000D03*
D13*
X154935000Y-73195000D03*
D12*
X154035000Y-70655000D03*
D13*
X154935000Y-70655000D03*
D12*
X142605000Y-118685000D03*
D15*
X142605000Y-119585000D03*
D14*
X145145000Y-118685000D03*
D15*
X145145000Y-119585000D03*
D12*
X147685000Y-118685000D03*
D15*
X147685000Y-119585000D03*
%TD*%
D16*
%TO.C,D1*%
X172250000Y-84275000D03*
D17*
X174790000Y-84275000D03*
%TD*%
D18*
%TO.C,R1*%
X167905000Y-82500000D03*
D19*
X166005000Y-82500000D03*
%TD*%
D16*
%TO.C,Q1*%
X166250000Y-92275000D03*
D10*
X166250000Y-94815000D03*
X166250000Y-97355000D03*
%TD*%
M02*
