%TF.GenerationSoftware,KiCad,Pcbnew,8.0.0*%
%TF.CreationDate,2024-03-31T13:14:54-03:00*%
%TF.ProjectId,ponderadaPcb,706f6e64-6572-4616-9461-5063622e6b69,rev?*%
%TF.SameCoordinates,Original*%
%TF.FileFunction,Copper,L1,Top*%
%TF.FilePolarity,Positive*%
%FSLAX46Y46*%
G04 Gerber Fmt 4.6, Leading zero omitted, Abs format (unit mm)*
G04 Created by KiCad (PCBNEW 8.0.0) date 2024-03-31 13:14:54*
%MOMM*%
%LPD*%
G01*
G04 APERTURE LIST*
%TA.AperFunction,ComponentPad*%
%ADD10O,1.700000X1.700000*%
%TD*%
%TA.AperFunction,SMDPad,CuDef*%
%ADD11R,3.500000X1.700000*%
%TD*%
%TA.AperFunction,ComponentPad*%
%ADD12R,1.700000X1.700000*%
%TD*%
%TA.AperFunction,SMDPad,CuDef*%
%ADD13R,1.700000X3.500000*%
%TD*%
%TA.AperFunction,ComponentPad*%
%ADD14R,1.800000X1.800000*%
%TD*%
%TA.AperFunction,ComponentPad*%
%ADD15C,1.800000*%
%TD*%
%TA.AperFunction,ComponentPad*%
%ADD16C,1.400000*%
%TD*%
%TA.AperFunction,ComponentPad*%
%ADD17O,1.400000X1.400000*%
%TD*%
%TA.AperFunction,ComponentPad*%
%ADD18O,1.800000X1.800000*%
%TD*%
%TA.AperFunction,Conductor*%
%ADD19C,1.000000*%
%TD*%
%TA.AperFunction,Conductor*%
%ADD20C,0.200000*%
%TD*%
G04 APERTURE END LIST*
D10*
%TO.P,U1,1,GPIO0*%
%TO.N,unconnected-(U1-GPIO0-Pad1)*%
X136255000Y-70655000D03*
D11*
X135355000Y-70655000D03*
D10*
%TO.P,U1,2,GPIO1*%
%TO.N,unconnected-(U1-GPIO1-Pad2)*%
X136255000Y-73195000D03*
D11*
X135355000Y-73195000D03*
D12*
%TO.P,U1,3,GND*%
%TO.N,unconnected-(U1-GND-Pad3)*%
X136255000Y-75735000D03*
D11*
X135355000Y-75735000D03*
D10*
%TO.P,U1,4,GPIO2*%
%TO.N,unconnected-(U1-GPIO2-Pad4)*%
X136255000Y-78275000D03*
D11*
X135355000Y-78275000D03*
D10*
%TO.P,U1,5,GPIO3*%
%TO.N,unconnected-(U1-GPIO3-Pad5)*%
X136255000Y-80815000D03*
D11*
X135355000Y-80815000D03*
D10*
%TO.P,U1,6,GPIO4*%
%TO.N,unconnected-(U1-GPIO4-Pad6)*%
X136255000Y-83355000D03*
D11*
X135355000Y-83355000D03*
D10*
%TO.P,U1,7,GPIO5*%
%TO.N,unconnected-(U1-GPIO5-Pad7)*%
X136255000Y-85895000D03*
D11*
X135355000Y-85895000D03*
D12*
%TO.P,U1,8,GND*%
%TO.N,unconnected-(U1-GND-Pad8)*%
X136255000Y-88435000D03*
D11*
X135355000Y-88435000D03*
D10*
%TO.P,U1,9,GPIO6*%
%TO.N,unconnected-(U1-GPIO6-Pad9)*%
X136255000Y-90975000D03*
D11*
X135355000Y-90975000D03*
D10*
%TO.P,U1,10,GPIO7*%
%TO.N,unconnected-(U1-GPIO7-Pad10)*%
X136255000Y-93515000D03*
D11*
X135355000Y-93515000D03*
D10*
%TO.P,U1,11,GPIO8*%
%TO.N,unconnected-(U1-GPIO8-Pad11)*%
X136255000Y-96055000D03*
D11*
X135355000Y-96055000D03*
D10*
%TO.P,U1,12,GPIO9*%
%TO.N,unconnected-(U1-GPIO9-Pad12)*%
X136255000Y-98595000D03*
D11*
X135355000Y-98595000D03*
D12*
%TO.P,U1,13,GND*%
%TO.N,unconnected-(U1-GND-Pad13)*%
X136255000Y-101135000D03*
D11*
X135355000Y-101135000D03*
D10*
%TO.P,U1,14,GPIO10*%
%TO.N,unconnected-(U1-GPIO10-Pad14)*%
X136255000Y-103675000D03*
D11*
X135355000Y-103675000D03*
D10*
%TO.P,U1,15,GPIO11*%
%TO.N,unconnected-(U1-GPIO11-Pad15)*%
X136255000Y-106215000D03*
D11*
X135355000Y-106215000D03*
D10*
%TO.P,U1,16,GPIO12*%
%TO.N,unconnected-(U1-GPIO12-Pad16)*%
X136255000Y-108755000D03*
D11*
X135355000Y-108755000D03*
D10*
%TO.P,U1,17,GPIO13*%
%TO.N,unconnected-(U1-GPIO13-Pad17)*%
X136255000Y-111295000D03*
D11*
X135355000Y-111295000D03*
D12*
%TO.P,U1,18,GND*%
%TO.N,unconnected-(U1-GND-Pad18)*%
X136255000Y-113835000D03*
D11*
X135355000Y-113835000D03*
D10*
%TO.P,U1,19,GPIO14*%
%TO.N,unconnected-(U1-GPIO14-Pad19)*%
X136255000Y-116375000D03*
D11*
X135355000Y-116375000D03*
D10*
%TO.P,U1,20,GPIO15*%
%TO.N,unconnected-(U1-GPIO15-Pad20)*%
X136255000Y-118915000D03*
D11*
X135355000Y-118915000D03*
D10*
%TO.P,U1,21,GPIO16*%
%TO.N,unconnected-(U1-GPIO16-Pad21)*%
X154035000Y-118915000D03*
D11*
X154935000Y-118915000D03*
D10*
%TO.P,U1,22,GPIO17*%
%TO.N,unconnected-(U1-GPIO17-Pad22)*%
X154035000Y-116375000D03*
D11*
X154935000Y-116375000D03*
D12*
%TO.P,U1,23,GND*%
%TO.N,unconnected-(U1-GND-Pad23)*%
X154035000Y-113835000D03*
D11*
X154935000Y-113835000D03*
D10*
%TO.P,U1,24,GPIO18*%
%TO.N,Net-(Q1-B)*%
X154035000Y-111295000D03*
D11*
X154935000Y-111295000D03*
D10*
%TO.P,U1,25,GPIO19*%
X154035000Y-108755000D03*
D11*
X154935000Y-108755000D03*
D10*
%TO.P,U1,26,GPIO20*%
%TO.N,unconnected-(U1-GPIO20-Pad26)*%
X154035000Y-106215000D03*
D11*
X154935000Y-106215000D03*
D10*
%TO.P,U1,27,GPIO21*%
%TO.N,unconnected-(U1-GPIO21-Pad27)*%
X154035000Y-103675000D03*
D11*
X154935000Y-103675000D03*
D12*
%TO.P,U1,28,GND*%
%TO.N,unconnected-(U1-GND-Pad28)*%
X154035000Y-101135000D03*
D11*
X154935000Y-101135000D03*
D10*
%TO.P,U1,29,GPIO22*%
%TO.N,unconnected-(U1-GPIO22-Pad29)*%
X154035000Y-98595000D03*
D11*
X154935000Y-98595000D03*
D10*
%TO.P,U1,30,RUN*%
%TO.N,unconnected-(U1-RUN-Pad30)*%
X154035000Y-96055000D03*
D11*
X154935000Y-96055000D03*
D10*
%TO.P,U1,31,GPIO26_ADC0*%
%TO.N,unconnected-(U1-GPIO26_ADC0-Pad31)*%
X154035000Y-93515000D03*
D11*
X154935000Y-93515000D03*
D10*
%TO.P,U1,32,GPIO27_ADC1*%
%TO.N,unconnected-(U1-GPIO27_ADC1-Pad32)*%
X154035000Y-90975000D03*
D11*
X154935000Y-90975000D03*
D12*
%TO.P,U1,33,AGND*%
%TO.N,unconnected-(U1-AGND-Pad33)*%
X154035000Y-88435000D03*
D11*
X154935000Y-88435000D03*
D10*
%TO.P,U1,34,GPIO28_ADC2*%
%TO.N,unconnected-(U1-GPIO28_ADC2-Pad34)*%
X154035000Y-85895000D03*
D11*
X154935000Y-85895000D03*
D10*
%TO.P,U1,35,ADC_VREF*%
%TO.N,unconnected-(U1-ADC_VREF-Pad35)*%
X154035000Y-83355000D03*
D11*
X154935000Y-83355000D03*
D10*
%TO.P,U1,36,3V3*%
%TO.N,unconnected-(U1-3V3-Pad36)*%
X154035000Y-80815000D03*
D11*
X154935000Y-80815000D03*
D10*
%TO.P,U1,37,3V3_EN*%
%TO.N,GND*%
X154035000Y-78275000D03*
D11*
X154935000Y-78275000D03*
D12*
%TO.P,U1,38,GND*%
X154035000Y-75735000D03*
D11*
X154935000Y-75735000D03*
D10*
%TO.P,U1,39,VSYS*%
%TO.N,VCC*%
X154035000Y-73195000D03*
D11*
X154935000Y-73195000D03*
D10*
%TO.P,U1,40,VBUS*%
%TO.N,unconnected-(U1-VBUS-Pad40)*%
X154035000Y-70655000D03*
D11*
X154935000Y-70655000D03*
D10*
%TO.P,U1,41,SWCLK*%
%TO.N,unconnected-(U1-SWCLK-Pad41)*%
X142605000Y-118685000D03*
D13*
X142605000Y-119585000D03*
D12*
%TO.P,U1,42,GND*%
%TO.N,unconnected-(U1-GND-Pad42)*%
X145145000Y-118685000D03*
D13*
X145145000Y-119585000D03*
D10*
%TO.P,U1,43,SWDIO*%
%TO.N,unconnected-(U1-SWDIO-Pad43)*%
X147685000Y-118685000D03*
D13*
X147685000Y-119585000D03*
%TD*%
D14*
%TO.P,D1,1,K*%
%TO.N,Net-(D1-K)*%
X172250000Y-84275000D03*
D15*
%TO.P,D1,2,A*%
%TO.N,Net-(D1-A)*%
X174790000Y-84275000D03*
%TD*%
D16*
%TO.P,R1,1*%
%TO.N,Net-(D1-A)*%
X167905000Y-82500000D03*
D17*
%TO.P,R1,2*%
%TO.N,VCC*%
X166005000Y-82500000D03*
%TD*%
D14*
%TO.P,Q1,1,E*%
%TO.N,GND*%
X166250000Y-92275000D03*
D18*
%TO.P,Q1,2,C*%
%TO.N,Net-(D1-K)*%
X166250000Y-94815000D03*
%TO.P,Q1,3,B*%
%TO.N,Net-(Q1-B)*%
X166250000Y-97355000D03*
%TD*%
D19*
%TO.N,Net-(D1-K)*%
X172000000Y-94500000D02*
X172000000Y-89065000D01*
X172000000Y-94500000D02*
X166500000Y-94815000D01*
X172000000Y-89065000D02*
X172250000Y-88815000D01*
X172250000Y-84275000D02*
X172250000Y-88815000D01*
D20*
%TO.N,Net-(D1-A)*%
X174790000Y-82790000D02*
X174500000Y-82500000D01*
D19*
X174790000Y-84275000D02*
X174790000Y-82790000D01*
X174500000Y-82500000D02*
X167905000Y-82500000D01*
%TO.N,GND*%
X164350000Y-90375000D02*
X166250000Y-92275000D01*
X155595000Y-75735000D02*
X164350000Y-84490000D01*
D20*
X154035000Y-75735000D02*
X155595000Y-75735000D01*
D19*
X164350000Y-84490000D02*
X164350000Y-90375000D01*
D20*
%TO.N,Net-(Q1-B)*%
X155595000Y-111295000D02*
X154035000Y-111295000D01*
D19*
X166250000Y-100640000D02*
X155595000Y-111295000D01*
X166250000Y-97355000D02*
X166250000Y-100640000D01*
%TO.N,VCC*%
X156700000Y-73195000D02*
X166005000Y-82500000D01*
D20*
X154035000Y-73195000D02*
X156700000Y-73195000D01*
%TD*%
%TA.AperFunction,Conductor*%
%TO.N,GND*%
G36*
X157390203Y-75300569D02*
G01*
X157396681Y-75306601D01*
X164800401Y-82710321D01*
X164831986Y-82764067D01*
X164880770Y-82935525D01*
X164880775Y-82935538D01*
X164979938Y-83134683D01*
X164979943Y-83134691D01*
X165114020Y-83312238D01*
X165278437Y-83462123D01*
X165278439Y-83462125D01*
X165467595Y-83579245D01*
X165467596Y-83579245D01*
X165467599Y-83579247D01*
X165675060Y-83659618D01*
X165893757Y-83700500D01*
X165893759Y-83700500D01*
X166116241Y-83700500D01*
X166116243Y-83700500D01*
X166334940Y-83659618D01*
X166542401Y-83579247D01*
X166731562Y-83462124D01*
X166871462Y-83334587D01*
X166934266Y-83303971D01*
X167003653Y-83312168D01*
X167038537Y-83334587D01*
X167131553Y-83419383D01*
X167178437Y-83462123D01*
X167178439Y-83462125D01*
X167367595Y-83579245D01*
X167367596Y-83579245D01*
X167367599Y-83579247D01*
X167575060Y-83659618D01*
X167793757Y-83700500D01*
X167793759Y-83700500D01*
X168016241Y-83700500D01*
X168016243Y-83700500D01*
X168234940Y-83659618D01*
X168442401Y-83579247D01*
X168539586Y-83519073D01*
X168604863Y-83500500D01*
X170725500Y-83500500D01*
X170792539Y-83520185D01*
X170838294Y-83572989D01*
X170849500Y-83624500D01*
X170849500Y-85222870D01*
X170849501Y-85222876D01*
X170855908Y-85282483D01*
X170906202Y-85417328D01*
X170906206Y-85417335D01*
X170992452Y-85532544D01*
X170992455Y-85532547D01*
X171107664Y-85618793D01*
X171107669Y-85618796D01*
X171168833Y-85641608D01*
X171224766Y-85683478D01*
X171249184Y-85748942D01*
X171249500Y-85757790D01*
X171249500Y-88350389D01*
X171229815Y-88417428D01*
X171224763Y-88424370D01*
X171113371Y-88591079D01*
X171113364Y-88591092D01*
X171037950Y-88773160D01*
X171037947Y-88773170D01*
X170999500Y-88966456D01*
X170999500Y-93438059D01*
X170979815Y-93505098D01*
X170927011Y-93550853D01*
X170882590Y-93561856D01*
X167595444Y-93750120D01*
X167527389Y-93734301D01*
X167478690Y-93684200D01*
X167464808Y-93615723D01*
X167490151Y-93550612D01*
X167501712Y-93539254D01*
X167500918Y-93538460D01*
X167507190Y-93532187D01*
X167593350Y-93417093D01*
X167593354Y-93417086D01*
X167643596Y-93282379D01*
X167643598Y-93282372D01*
X167649999Y-93222844D01*
X167650000Y-93222827D01*
X167650000Y-92525000D01*
X166683012Y-92525000D01*
X166715925Y-92467993D01*
X166750000Y-92340826D01*
X166750000Y-92209174D01*
X166715925Y-92082007D01*
X166683012Y-92025000D01*
X167650000Y-92025000D01*
X167650000Y-91327172D01*
X167649999Y-91327155D01*
X167643598Y-91267627D01*
X167643596Y-91267620D01*
X167593354Y-91132913D01*
X167593350Y-91132906D01*
X167507190Y-91017812D01*
X167507187Y-91017809D01*
X167392093Y-90931649D01*
X167392086Y-90931645D01*
X167257379Y-90881403D01*
X167257372Y-90881401D01*
X167197844Y-90875000D01*
X166500000Y-90875000D01*
X166500000Y-91841988D01*
X166442993Y-91809075D01*
X166315826Y-91775000D01*
X166184174Y-91775000D01*
X166057007Y-91809075D01*
X166000000Y-91841988D01*
X166000000Y-90875000D01*
X165302155Y-90875000D01*
X165242627Y-90881401D01*
X165242620Y-90881403D01*
X165107913Y-90931645D01*
X165107906Y-90931649D01*
X164992812Y-91017809D01*
X164992809Y-91017812D01*
X164906649Y-91132906D01*
X164906645Y-91132913D01*
X164856403Y-91267620D01*
X164856401Y-91267627D01*
X164850000Y-91327155D01*
X164850000Y-92025000D01*
X165816988Y-92025000D01*
X165784075Y-92082007D01*
X165750000Y-92209174D01*
X165750000Y-92340826D01*
X165784075Y-92467993D01*
X165816988Y-92525000D01*
X164850000Y-92525000D01*
X164850000Y-93222844D01*
X164856401Y-93282372D01*
X164856403Y-93282379D01*
X164906645Y-93417086D01*
X164906649Y-93417093D01*
X164992809Y-93532187D01*
X164992812Y-93532190D01*
X165107906Y-93618350D01*
X165107913Y-93618354D01*
X165188270Y-93648325D01*
X165244204Y-93690196D01*
X165268621Y-93755660D01*
X165253770Y-93823933D01*
X165236168Y-93848489D01*
X165141021Y-93951847D01*
X165141019Y-93951848D01*
X165141016Y-93951853D01*
X165014075Y-94146151D01*
X164920842Y-94358699D01*
X164863866Y-94583691D01*
X164863864Y-94583702D01*
X164844700Y-94814993D01*
X164844700Y-94815006D01*
X164863864Y-95046297D01*
X164863866Y-95046308D01*
X164920842Y-95271300D01*
X165014075Y-95483848D01*
X165141016Y-95678147D01*
X165141019Y-95678151D01*
X165141021Y-95678153D01*
X165298216Y-95848913D01*
X165298219Y-95848915D01*
X165298222Y-95848918D01*
X165475818Y-95987147D01*
X165516631Y-96043857D01*
X165520306Y-96113630D01*
X165485674Y-96174313D01*
X165475818Y-96182853D01*
X165298222Y-96321081D01*
X165298219Y-96321084D01*
X165141016Y-96491852D01*
X165014075Y-96686151D01*
X164920842Y-96898699D01*
X164863866Y-97123691D01*
X164863864Y-97123702D01*
X164844700Y-97354993D01*
X164844700Y-97355006D01*
X164863864Y-97586297D01*
X164863866Y-97586308D01*
X164920842Y-97811300D01*
X165014075Y-98023848D01*
X165141016Y-98218147D01*
X165141019Y-98218151D01*
X165141021Y-98218153D01*
X165216731Y-98300396D01*
X165247652Y-98363049D01*
X165249500Y-98384377D01*
X165249500Y-100174217D01*
X165229815Y-100241256D01*
X165213181Y-100261898D01*
X157397180Y-108077899D01*
X157335857Y-108111384D01*
X157266165Y-108106400D01*
X157210232Y-108064528D01*
X157185815Y-107999064D01*
X157185499Y-107990218D01*
X157185499Y-107857129D01*
X157185498Y-107857123D01*
X157185497Y-107857116D01*
X157179091Y-107797517D01*
X157128796Y-107662669D01*
X157051421Y-107559309D01*
X157027004Y-107493848D01*
X157041855Y-107425575D01*
X157051416Y-107410696D01*
X157128796Y-107307331D01*
X157179091Y-107172483D01*
X157185500Y-107112873D01*
X157185499Y-105317128D01*
X157179091Y-105257517D01*
X157128796Y-105122669D01*
X157051421Y-105019309D01*
X157027004Y-104953848D01*
X157041855Y-104885575D01*
X157051416Y-104870696D01*
X157128796Y-104767331D01*
X157179091Y-104632483D01*
X157185500Y-104572873D01*
X157185499Y-102777128D01*
X157179091Y-102717517D01*
X157128796Y-102582669D01*
X157051421Y-102479309D01*
X157027004Y-102413848D01*
X157041855Y-102345575D01*
X157051416Y-102330696D01*
X157128796Y-102227331D01*
X157179091Y-102092483D01*
X157185500Y-102032873D01*
X157185499Y-100237128D01*
X157179091Y-100177517D01*
X157177860Y-100174217D01*
X157128797Y-100042671D01*
X157128795Y-100042668D01*
X157051421Y-99939309D01*
X157027004Y-99873848D01*
X157041855Y-99805575D01*
X157051416Y-99790696D01*
X157128796Y-99687331D01*
X157179091Y-99552483D01*
X157185500Y-99492873D01*
X157185499Y-97697128D01*
X157179091Y-97637517D01*
X157159991Y-97586308D01*
X157128797Y-97502671D01*
X157128795Y-97502668D01*
X157051421Y-97399309D01*
X157027004Y-97333848D01*
X157041855Y-97265575D01*
X157051416Y-97250696D01*
X157128796Y-97147331D01*
X157179091Y-97012483D01*
X157185500Y-96952873D01*
X157185499Y-95157128D01*
X157179091Y-95097517D01*
X157177146Y-95092303D01*
X157128797Y-94962671D01*
X157128795Y-94962668D01*
X157098682Y-94922442D01*
X157051421Y-94859309D01*
X157027004Y-94793848D01*
X157041855Y-94725575D01*
X157051416Y-94710696D01*
X157128796Y-94607331D01*
X157179091Y-94472483D01*
X157185500Y-94412873D01*
X157185499Y-92617128D01*
X157179091Y-92557517D01*
X157128796Y-92422669D01*
X157051421Y-92319309D01*
X157027004Y-92253848D01*
X157041855Y-92185575D01*
X157051416Y-92170696D01*
X157128796Y-92067331D01*
X157179091Y-91932483D01*
X157185500Y-91872873D01*
X157185499Y-90077128D01*
X157179091Y-90017517D01*
X157128796Y-89882669D01*
X157051421Y-89779309D01*
X157027004Y-89713848D01*
X157041855Y-89645575D01*
X157051416Y-89630696D01*
X157128796Y-89527331D01*
X157179091Y-89392483D01*
X157185500Y-89332873D01*
X157185499Y-87537128D01*
X157179091Y-87477517D01*
X157128796Y-87342669D01*
X157051421Y-87239309D01*
X157027004Y-87173848D01*
X157041855Y-87105575D01*
X157051416Y-87090696D01*
X157128796Y-86987331D01*
X157179091Y-86852483D01*
X157185500Y-86792873D01*
X157185499Y-84997128D01*
X157179091Y-84937517D01*
X157128796Y-84802669D01*
X157051421Y-84699309D01*
X157027004Y-84633848D01*
X157041855Y-84565575D01*
X157051416Y-84550696D01*
X157128796Y-84447331D01*
X157179091Y-84312483D01*
X157185500Y-84252873D01*
X157185499Y-82457128D01*
X157179091Y-82397517D01*
X157148721Y-82316092D01*
X157128797Y-82262671D01*
X157128795Y-82262668D01*
X157051421Y-82159309D01*
X157027004Y-82093848D01*
X157041855Y-82025575D01*
X157051416Y-82010696D01*
X157128796Y-81907331D01*
X157179091Y-81772483D01*
X157185500Y-81712873D01*
X157185499Y-79917128D01*
X157179091Y-79857517D01*
X157128796Y-79722669D01*
X157051109Y-79618893D01*
X157026692Y-79553430D01*
X157041543Y-79485157D01*
X157051110Y-79470271D01*
X157128352Y-79367089D01*
X157128354Y-79367086D01*
X157178596Y-79232379D01*
X157178598Y-79232372D01*
X157184999Y-79172844D01*
X157185000Y-79172827D01*
X157185000Y-78525000D01*
X154479560Y-78525000D01*
X154510245Y-78471853D01*
X154545000Y-78342143D01*
X154545000Y-78207857D01*
X154510245Y-78078147D01*
X154479560Y-78025000D01*
X154685000Y-78025000D01*
X154685000Y-75985000D01*
X155185000Y-75985000D01*
X155185000Y-78025000D01*
X157185000Y-78025000D01*
X157185000Y-77377172D01*
X157184999Y-77377155D01*
X157178598Y-77317627D01*
X157178596Y-77317620D01*
X157128354Y-77182913D01*
X157128352Y-77182910D01*
X157050798Y-77079312D01*
X157026380Y-77013848D01*
X157041231Y-76945574D01*
X157050798Y-76930688D01*
X157128352Y-76827089D01*
X157128354Y-76827086D01*
X157178596Y-76692379D01*
X157178598Y-76692372D01*
X157184999Y-76632844D01*
X157185000Y-76632827D01*
X157185000Y-75985000D01*
X155185000Y-75985000D01*
X154685000Y-75985000D01*
X154479560Y-75985000D01*
X154510245Y-75931853D01*
X154545000Y-75802143D01*
X154545000Y-75667857D01*
X154510245Y-75538147D01*
X154479560Y-75485000D01*
X157185000Y-75485000D01*
X157185000Y-75394282D01*
X157204685Y-75327243D01*
X157257489Y-75281488D01*
X157326647Y-75271544D01*
X157390203Y-75300569D01*
G37*
%TD.AperFunction*%
%TA.AperFunction,Conductor*%
G36*
X154285000Y-77830439D02*
G01*
X154231853Y-77799755D01*
X154102143Y-77765000D01*
X153967857Y-77765000D01*
X153838147Y-77799755D01*
X153785000Y-77830439D01*
X153785000Y-76179560D01*
X153838147Y-76210245D01*
X153967857Y-76245000D01*
X154102143Y-76245000D01*
X154231853Y-76210245D01*
X154285000Y-76179560D01*
X154285000Y-77830439D01*
G37*
%TD.AperFunction*%
%TA.AperFunction,Conductor*%
G36*
X185443039Y-53019685D02*
G01*
X185488794Y-53072489D01*
X185500000Y-53124000D01*
X185500000Y-130376000D01*
X185480315Y-130443039D01*
X185427511Y-130488794D01*
X185376000Y-130500000D01*
X113123202Y-130500000D01*
X113056163Y-130480315D01*
X113010408Y-130427511D01*
X112999205Y-130376800D01*
X112944059Y-121829091D01*
X112931051Y-119812870D01*
X133104500Y-119812870D01*
X133104501Y-119812876D01*
X133110908Y-119872483D01*
X133161202Y-120007328D01*
X133161206Y-120007335D01*
X133247452Y-120122544D01*
X133247455Y-120122547D01*
X133362664Y-120208793D01*
X133362671Y-120208797D01*
X133497517Y-120259091D01*
X133497516Y-120259091D01*
X133504444Y-120259835D01*
X133557127Y-120265500D01*
X136190611Y-120265499D01*
X136201419Y-120265971D01*
X136254999Y-120270659D01*
X136255000Y-120270659D01*
X136255001Y-120270659D01*
X136308580Y-120265971D01*
X136319388Y-120265499D01*
X137152871Y-120265499D01*
X137152872Y-120265499D01*
X137212483Y-120259091D01*
X137347331Y-120208796D01*
X137462546Y-120122546D01*
X137548796Y-120007331D01*
X137599091Y-119872483D01*
X137605500Y-119812873D01*
X137605499Y-118979383D01*
X137605971Y-118968576D01*
X137610659Y-118915000D01*
X137610659Y-118914999D01*
X137605971Y-118861421D01*
X137605499Y-118850613D01*
X137605499Y-118685001D01*
X141249341Y-118685001D01*
X141254028Y-118738574D01*
X141254500Y-118749381D01*
X141254500Y-121382870D01*
X141254501Y-121382876D01*
X141260908Y-121442483D01*
X141311202Y-121577328D01*
X141311206Y-121577335D01*
X141397452Y-121692544D01*
X141397455Y-121692547D01*
X141512664Y-121778793D01*
X141512671Y-121778797D01*
X141647517Y-121829091D01*
X141647516Y-121829091D01*
X141654444Y-121829835D01*
X141707127Y-121835500D01*
X143502872Y-121835499D01*
X143562483Y-121829091D01*
X143697331Y-121778796D01*
X143800690Y-121701421D01*
X143866152Y-121677004D01*
X143934425Y-121691855D01*
X143949303Y-121701416D01*
X144052665Y-121778793D01*
X144052668Y-121778795D01*
X144052671Y-121778797D01*
X144187517Y-121829091D01*
X144187516Y-121829091D01*
X144194444Y-121829835D01*
X144247127Y-121835500D01*
X146042872Y-121835499D01*
X146102483Y-121829091D01*
X146237331Y-121778796D01*
X146340690Y-121701421D01*
X146406152Y-121677004D01*
X146474425Y-121691855D01*
X146489303Y-121701416D01*
X146592665Y-121778793D01*
X146592668Y-121778795D01*
X146592671Y-121778797D01*
X146727517Y-121829091D01*
X146727516Y-121829091D01*
X146734444Y-121829835D01*
X146787127Y-121835500D01*
X148582872Y-121835499D01*
X148642483Y-121829091D01*
X148777331Y-121778796D01*
X148892546Y-121692546D01*
X148978796Y-121577331D01*
X149029091Y-121442483D01*
X149035500Y-121382873D01*
X149035499Y-118915002D01*
X152679341Y-118915002D01*
X152684028Y-118968576D01*
X152684500Y-118979383D01*
X152684500Y-119812870D01*
X152684501Y-119812876D01*
X152690908Y-119872483D01*
X152741202Y-120007328D01*
X152741206Y-120007335D01*
X152827452Y-120122544D01*
X152827455Y-120122547D01*
X152942664Y-120208793D01*
X152942671Y-120208797D01*
X153077517Y-120259091D01*
X153077516Y-120259091D01*
X153084444Y-120259835D01*
X153137127Y-120265500D01*
X153970616Y-120265499D01*
X153981425Y-120265971D01*
X154035000Y-120270659D01*
X154088575Y-120265971D01*
X154099384Y-120265499D01*
X156732871Y-120265499D01*
X156732872Y-120265499D01*
X156792483Y-120259091D01*
X156927331Y-120208796D01*
X157042546Y-120122546D01*
X157128796Y-120007331D01*
X157179091Y-119872483D01*
X157185500Y-119812873D01*
X157185499Y-118017128D01*
X157179091Y-117957517D01*
X157128796Y-117822669D01*
X157051421Y-117719309D01*
X157027004Y-117653848D01*
X157041855Y-117585575D01*
X157051416Y-117570696D01*
X157128796Y-117467331D01*
X157179091Y-117332483D01*
X157185500Y-117272873D01*
X157185499Y-115477128D01*
X157179091Y-115417517D01*
X157128796Y-115282669D01*
X157051421Y-115179309D01*
X157027004Y-115113848D01*
X157041855Y-115045575D01*
X157051416Y-115030696D01*
X157128796Y-114927331D01*
X157179091Y-114792483D01*
X157185500Y-114732873D01*
X157185499Y-112937128D01*
X157179091Y-112877517D01*
X157128796Y-112742669D01*
X157051421Y-112639309D01*
X157027004Y-112573848D01*
X157041855Y-112505575D01*
X157051416Y-112490696D01*
X157128796Y-112387331D01*
X157179091Y-112252483D01*
X157185500Y-112192873D01*
X157185499Y-111170780D01*
X157205183Y-111103742D01*
X157221813Y-111083105D01*
X167027140Y-101277781D01*
X167136632Y-101113914D01*
X167212052Y-100931835D01*
X167250501Y-100738540D01*
X167250501Y-100541459D01*
X167250501Y-100536349D01*
X167250500Y-100536323D01*
X167250500Y-98384377D01*
X167270185Y-98317338D01*
X167283264Y-98300401D01*
X167358979Y-98218153D01*
X167485924Y-98023849D01*
X167579157Y-97811300D01*
X167636134Y-97586305D01*
X167643064Y-97502669D01*
X167655300Y-97355006D01*
X167655300Y-97354993D01*
X167636135Y-97123702D01*
X167636133Y-97123691D01*
X167579157Y-96898699D01*
X167485924Y-96686151D01*
X167358983Y-96491852D01*
X167358980Y-96491849D01*
X167358979Y-96491847D01*
X167201784Y-96321087D01*
X167024180Y-96182853D01*
X166983368Y-96126143D01*
X166979693Y-96056370D01*
X167014324Y-95995687D01*
X167024181Y-95987146D01*
X167201784Y-95848913D01*
X167237713Y-95809882D01*
X167297594Y-95773894D01*
X167321842Y-95770070D01*
X172025089Y-95500703D01*
X172032179Y-95500500D01*
X172098541Y-95500500D01*
X172118342Y-95496561D01*
X172135421Y-95494383D01*
X172155587Y-95493229D01*
X172219837Y-95476578D01*
X172226739Y-95474998D01*
X172291835Y-95462051D01*
X172310484Y-95454325D01*
X172326819Y-95448855D01*
X172346367Y-95443790D01*
X172406156Y-95414913D01*
X172412571Y-95412039D01*
X172473914Y-95386632D01*
X172490702Y-95375414D01*
X172505657Y-95366861D01*
X172523835Y-95358083D01*
X172576833Y-95318104D01*
X172582573Y-95314027D01*
X172637782Y-95277139D01*
X172652054Y-95262865D01*
X172665056Y-95251557D01*
X172681175Y-95239400D01*
X172725362Y-95189841D01*
X172730181Y-95184738D01*
X172777139Y-95137782D01*
X172788353Y-95120996D01*
X172798896Y-95107373D01*
X172812335Y-95092303D01*
X172846011Y-95035066D01*
X172849737Y-95029130D01*
X172886632Y-94973914D01*
X172894361Y-94955252D01*
X172902040Y-94939841D01*
X172912279Y-94922442D01*
X172934143Y-94859732D01*
X172936640Y-94853180D01*
X172962051Y-94791835D01*
X172965990Y-94772030D01*
X172970517Y-94755409D01*
X172977164Y-94736348D01*
X172986369Y-94670608D01*
X172987549Y-94663644D01*
X173000500Y-94598541D01*
X173000500Y-94578361D01*
X173001698Y-94561166D01*
X173002124Y-94558120D01*
X173004498Y-94541172D01*
X173000703Y-94474910D01*
X173000500Y-94467820D01*
X173000500Y-89529610D01*
X173020185Y-89462571D01*
X173025236Y-89455630D01*
X173091248Y-89356837D01*
X173091248Y-89356836D01*
X173107253Y-89332883D01*
X173136632Y-89288914D01*
X173212051Y-89106835D01*
X173239974Y-88966459D01*
X173250500Y-88913543D01*
X173250500Y-85757790D01*
X173270185Y-85690751D01*
X173322989Y-85644996D01*
X173331146Y-85641616D01*
X173392331Y-85618796D01*
X173507546Y-85532546D01*
X173593796Y-85417331D01*
X173622455Y-85340493D01*
X173664326Y-85284559D01*
X173729790Y-85260141D01*
X173798063Y-85274992D01*
X173829866Y-85299843D01*
X173837302Y-85307920D01*
X173838215Y-85308912D01*
X173838222Y-85308918D01*
X174021365Y-85451464D01*
X174021371Y-85451468D01*
X174021374Y-85451470D01*
X174225497Y-85561936D01*
X174339487Y-85601068D01*
X174445015Y-85637297D01*
X174445017Y-85637297D01*
X174445019Y-85637298D01*
X174673951Y-85675500D01*
X174673952Y-85675500D01*
X174906048Y-85675500D01*
X174906049Y-85675500D01*
X175134981Y-85637298D01*
X175354503Y-85561936D01*
X175558626Y-85451470D01*
X175741784Y-85308913D01*
X175898979Y-85138153D01*
X176025924Y-84943849D01*
X176119157Y-84731300D01*
X176176134Y-84506305D01*
X176181021Y-84447328D01*
X176195300Y-84275006D01*
X176195300Y-84274993D01*
X176176135Y-84043702D01*
X176176133Y-84043691D01*
X176119157Y-83818699D01*
X176025924Y-83606151D01*
X175898979Y-83411846D01*
X175898977Y-83411844D01*
X175823270Y-83329603D01*
X175792348Y-83266948D01*
X175790500Y-83245621D01*
X175790500Y-82691456D01*
X175752052Y-82498170D01*
X175752051Y-82498169D01*
X175752051Y-82498165D01*
X175735056Y-82457135D01*
X175676635Y-82316092D01*
X175676628Y-82316079D01*
X175567139Y-82152218D01*
X175567136Y-82152214D01*
X175427785Y-82012863D01*
X175427781Y-82012860D01*
X175357986Y-81966224D01*
X175323775Y-81932013D01*
X175277139Y-81862218D01*
X175277136Y-81862214D01*
X175137785Y-81722863D01*
X175137781Y-81722860D01*
X174973920Y-81613371D01*
X174973907Y-81613364D01*
X174791839Y-81537950D01*
X174791829Y-81537947D01*
X174598543Y-81499500D01*
X174598541Y-81499500D01*
X168604863Y-81499500D01*
X168539586Y-81480927D01*
X168442404Y-81420754D01*
X168442398Y-81420752D01*
X168234940Y-81340382D01*
X168016243Y-81299500D01*
X167793757Y-81299500D01*
X167575060Y-81340382D01*
X167443864Y-81391207D01*
X167367601Y-81420752D01*
X167367595Y-81420754D01*
X167178439Y-81537874D01*
X167178437Y-81537876D01*
X167038538Y-81665411D01*
X166975734Y-81696028D01*
X166906347Y-81687830D01*
X166871462Y-81665411D01*
X166731562Y-81537876D01*
X166731560Y-81537874D01*
X166542404Y-81420754D01*
X166542398Y-81420751D01*
X166400536Y-81365794D01*
X166334940Y-81340382D01*
X166334936Y-81340381D01*
X166334931Y-81340380D01*
X166280883Y-81330276D01*
X166218603Y-81298608D01*
X166215989Y-81296069D01*
X157337784Y-72417863D01*
X157337780Y-72417860D01*
X157235900Y-72349786D01*
X157191095Y-72296174D01*
X157181501Y-72259936D01*
X157179091Y-72237516D01*
X157128797Y-72102671D01*
X157128795Y-72102668D01*
X157051421Y-71999309D01*
X157027004Y-71933848D01*
X157041855Y-71865575D01*
X157051416Y-71850696D01*
X157128796Y-71747331D01*
X157179091Y-71612483D01*
X157185500Y-71552873D01*
X157185499Y-69757128D01*
X157179091Y-69697517D01*
X157145901Y-69608531D01*
X157128797Y-69562671D01*
X157128793Y-69562664D01*
X157042547Y-69447455D01*
X157042544Y-69447452D01*
X156927335Y-69361206D01*
X156927328Y-69361202D01*
X156792482Y-69310908D01*
X156792483Y-69310908D01*
X156732883Y-69304501D01*
X156732881Y-69304500D01*
X156732873Y-69304500D01*
X156732865Y-69304500D01*
X154099385Y-69304500D01*
X154088578Y-69304028D01*
X154035001Y-69299341D01*
X154034997Y-69299341D01*
X153981419Y-69304028D01*
X153970613Y-69304500D01*
X153137129Y-69304500D01*
X153137123Y-69304501D01*
X153077516Y-69310908D01*
X152942671Y-69361202D01*
X152942664Y-69361206D01*
X152827455Y-69447452D01*
X152827452Y-69447455D01*
X152741206Y-69562664D01*
X152741202Y-69562671D01*
X152690908Y-69697517D01*
X152685149Y-69751087D01*
X152684501Y-69757123D01*
X152684500Y-69757135D01*
X152684500Y-70590616D01*
X152684028Y-70601423D01*
X152679341Y-70654997D01*
X152679341Y-70655002D01*
X152684028Y-70708576D01*
X152684500Y-70719383D01*
X152684500Y-71552870D01*
X152684501Y-71552876D01*
X152690908Y-71612483D01*
X152741202Y-71747328D01*
X152741203Y-71747330D01*
X152818578Y-71850689D01*
X152842995Y-71916153D01*
X152828144Y-71984426D01*
X152818578Y-71999311D01*
X152741203Y-72102669D01*
X152741202Y-72102671D01*
X152690908Y-72237517D01*
X152684602Y-72296174D01*
X152684501Y-72297123D01*
X152684500Y-72297135D01*
X152684500Y-73130616D01*
X152684028Y-73141423D01*
X152679341Y-73194997D01*
X152679341Y-73195002D01*
X152684028Y-73248576D01*
X152684500Y-73259383D01*
X152684500Y-74092870D01*
X152684501Y-74092876D01*
X152690908Y-74152483D01*
X152741202Y-74287328D01*
X152741206Y-74287335D01*
X152818889Y-74391105D01*
X152843307Y-74456569D01*
X152828456Y-74524842D01*
X152818890Y-74539727D01*
X152741647Y-74642910D01*
X152741645Y-74642913D01*
X152691403Y-74777620D01*
X152691401Y-74777627D01*
X152685000Y-74837155D01*
X152685000Y-75485000D01*
X153590440Y-75485000D01*
X153559755Y-75538147D01*
X153525000Y-75667857D01*
X153525000Y-75802143D01*
X153559755Y-75931853D01*
X153590440Y-75985000D01*
X152685000Y-75985000D01*
X152685000Y-76632844D01*
X152691401Y-76692372D01*
X152691403Y-76692379D01*
X152741645Y-76827086D01*
X152741647Y-76827088D01*
X152819202Y-76930689D01*
X152843619Y-76996153D01*
X152828768Y-77064426D01*
X152819202Y-77079311D01*
X152741647Y-77182911D01*
X152741645Y-77182913D01*
X152691403Y-77317620D01*
X152691401Y-77317627D01*
X152685000Y-77377155D01*
X152685000Y-78025000D01*
X153590440Y-78025000D01*
X153559755Y-78078147D01*
X153525000Y-78207857D01*
X153525000Y-78342143D01*
X153559755Y-78471853D01*
X153590440Y-78525000D01*
X152685000Y-78525000D01*
X152685000Y-79172844D01*
X152691401Y-79232372D01*
X152691403Y-79232379D01*
X152741645Y-79367086D01*
X152741646Y-79367088D01*
X152818890Y-79470272D01*
X152843307Y-79535736D01*
X152828456Y-79604009D01*
X152818890Y-79618894D01*
X152741204Y-79722669D01*
X152741202Y-79722671D01*
X152690908Y-79857517D01*
X152684501Y-79917116D01*
X152684501Y-79917123D01*
X152684500Y-79917135D01*
X152684500Y-80750616D01*
X152684028Y-80761423D01*
X152679341Y-80814997D01*
X152679341Y-80815002D01*
X152684028Y-80868576D01*
X152684500Y-80879383D01*
X152684500Y-81712870D01*
X152684501Y-81712876D01*
X152690908Y-81772483D01*
X152741202Y-81907328D01*
X152741203Y-81907330D01*
X152818578Y-82010689D01*
X152842995Y-82076153D01*
X152828144Y-82144426D01*
X152818578Y-82159311D01*
X152741203Y-82262669D01*
X152741202Y-82262671D01*
X152690908Y-82397517D01*
X152684501Y-82457116D01*
X152684501Y-82457123D01*
X152684500Y-82457135D01*
X152684500Y-83290616D01*
X152684028Y-83301423D01*
X152679341Y-83354997D01*
X152679341Y-83355002D01*
X152684028Y-83408576D01*
X152684500Y-83419383D01*
X152684500Y-84252870D01*
X152684501Y-84252876D01*
X152690908Y-84312483D01*
X152741202Y-84447328D01*
X152741203Y-84447330D01*
X152818578Y-84550689D01*
X152842995Y-84616153D01*
X152828144Y-84684426D01*
X152818578Y-84699311D01*
X152741203Y-84802669D01*
X152741202Y-84802671D01*
X152690908Y-84937517D01*
X152684501Y-84997116D01*
X152684501Y-84997123D01*
X152684500Y-84997135D01*
X152684500Y-85830616D01*
X152684028Y-85841423D01*
X152679341Y-85894997D01*
X152679341Y-85895002D01*
X152684028Y-85948576D01*
X152684500Y-85959383D01*
X152684500Y-86792870D01*
X152684501Y-86792876D01*
X152690908Y-86852483D01*
X152741202Y-86987328D01*
X152741203Y-86987330D01*
X152818578Y-87090689D01*
X152842995Y-87156153D01*
X152828144Y-87224426D01*
X152818578Y-87239311D01*
X152741203Y-87342669D01*
X152741202Y-87342671D01*
X152690908Y-87477517D01*
X152684501Y-87537116D01*
X152684501Y-87537123D01*
X152684500Y-87537135D01*
X152684500Y-89332870D01*
X152684501Y-89332876D01*
X152690908Y-89392483D01*
X152741202Y-89527328D01*
X152741203Y-89527330D01*
X152818578Y-89630689D01*
X152842995Y-89696153D01*
X152828144Y-89764426D01*
X152818578Y-89779311D01*
X152741203Y-89882669D01*
X152741202Y-89882671D01*
X152690908Y-90017517D01*
X152684501Y-90077116D01*
X152684501Y-90077123D01*
X152684500Y-90077135D01*
X152684500Y-90910616D01*
X152684028Y-90921423D01*
X152679341Y-90974997D01*
X152679341Y-90975002D01*
X152684028Y-91028576D01*
X152684500Y-91039383D01*
X152684500Y-91872870D01*
X152684501Y-91872876D01*
X152690908Y-91932483D01*
X152741202Y-92067328D01*
X152741203Y-92067330D01*
X152818578Y-92170689D01*
X152842995Y-92236153D01*
X152828144Y-92304426D01*
X152818578Y-92319311D01*
X152741203Y-92422669D01*
X152741202Y-92422671D01*
X152690908Y-92557517D01*
X152684501Y-92617116D01*
X152684501Y-92617123D01*
X152684500Y-92617135D01*
X152684500Y-93450616D01*
X152684028Y-93461423D01*
X152679341Y-93514997D01*
X152679341Y-93515002D01*
X152684028Y-93568576D01*
X152684500Y-93579383D01*
X152684500Y-94412870D01*
X152684501Y-94412876D01*
X152690908Y-94472483D01*
X152741202Y-94607328D01*
X152741203Y-94607330D01*
X152818578Y-94710689D01*
X152842995Y-94776153D01*
X152828144Y-94844426D01*
X152818578Y-94859311D01*
X152741203Y-94962669D01*
X152741202Y-94962671D01*
X152690908Y-95097517D01*
X152684501Y-95157116D01*
X152684501Y-95157123D01*
X152684500Y-95157135D01*
X152684500Y-95990616D01*
X152684028Y-96001423D01*
X152679341Y-96054997D01*
X152679341Y-96055002D01*
X152684028Y-96108576D01*
X152684500Y-96119383D01*
X152684500Y-96952870D01*
X152684501Y-96952876D01*
X152690908Y-97012483D01*
X152741202Y-97147328D01*
X152741203Y-97147330D01*
X152818578Y-97250689D01*
X152842995Y-97316153D01*
X152828144Y-97384426D01*
X152818578Y-97399311D01*
X152741203Y-97502669D01*
X152741202Y-97502671D01*
X152690908Y-97637517D01*
X152684501Y-97697116D01*
X152684501Y-97697123D01*
X152684500Y-97697135D01*
X152684500Y-98530616D01*
X152684028Y-98541423D01*
X152679341Y-98594997D01*
X152679341Y-98595002D01*
X152684028Y-98648576D01*
X152684500Y-98659383D01*
X152684500Y-99492870D01*
X152684501Y-99492876D01*
X152690908Y-99552483D01*
X152741202Y-99687328D01*
X152741203Y-99687330D01*
X152818578Y-99790689D01*
X152842995Y-99856153D01*
X152828144Y-99924426D01*
X152818578Y-99939311D01*
X152741203Y-100042669D01*
X152741202Y-100042671D01*
X152690908Y-100177517D01*
X152684501Y-100237116D01*
X152684501Y-100237123D01*
X152684500Y-100237135D01*
X152684500Y-102032870D01*
X152684501Y-102032876D01*
X152690908Y-102092483D01*
X152741202Y-102227328D01*
X152741203Y-102227330D01*
X152818578Y-102330689D01*
X152842995Y-102396153D01*
X152828144Y-102464426D01*
X152818578Y-102479311D01*
X152741203Y-102582669D01*
X152741202Y-102582671D01*
X152690908Y-102717517D01*
X152684501Y-102777116D01*
X152684501Y-102777123D01*
X152684500Y-102777135D01*
X152684500Y-103610616D01*
X152684028Y-103621423D01*
X152679341Y-103674997D01*
X152679341Y-103675002D01*
X152684028Y-103728576D01*
X152684500Y-103739383D01*
X152684500Y-104572870D01*
X152684501Y-104572876D01*
X152690908Y-104632483D01*
X152741202Y-104767328D01*
X152741203Y-104767330D01*
X152818578Y-104870689D01*
X152842995Y-104936153D01*
X152828144Y-105004426D01*
X152818578Y-105019311D01*
X152741203Y-105122669D01*
X152741202Y-105122671D01*
X152690908Y-105257517D01*
X152684501Y-105317116D01*
X152684501Y-105317123D01*
X152684500Y-105317135D01*
X152684500Y-106150616D01*
X152684028Y-106161423D01*
X152679341Y-106214997D01*
X152679341Y-106215002D01*
X152684028Y-106268576D01*
X152684500Y-106279383D01*
X152684500Y-107112870D01*
X152684501Y-107112876D01*
X152690908Y-107172483D01*
X152741202Y-107307328D01*
X152741203Y-107307330D01*
X152818578Y-107410689D01*
X152842995Y-107476153D01*
X152828144Y-107544426D01*
X152818578Y-107559311D01*
X152741203Y-107662669D01*
X152741202Y-107662671D01*
X152690908Y-107797517D01*
X152684501Y-107857116D01*
X152684501Y-107857123D01*
X152684500Y-107857135D01*
X152684500Y-108690616D01*
X152684028Y-108701423D01*
X152679341Y-108754997D01*
X152679341Y-108755002D01*
X152684028Y-108808576D01*
X152684500Y-108819383D01*
X152684500Y-109652870D01*
X152684501Y-109652876D01*
X152690908Y-109712483D01*
X152741202Y-109847328D01*
X152741203Y-109847330D01*
X152818578Y-109950689D01*
X152842995Y-110016153D01*
X152828144Y-110084426D01*
X152818578Y-110099311D01*
X152741203Y-110202669D01*
X152741202Y-110202671D01*
X152690908Y-110337517D01*
X152684501Y-110397116D01*
X152684501Y-110397123D01*
X152684500Y-110397135D01*
X152684500Y-111230616D01*
X152684028Y-111241423D01*
X152679341Y-111294997D01*
X152679341Y-111295002D01*
X152684028Y-111348576D01*
X152684500Y-111359383D01*
X152684500Y-112192870D01*
X152684501Y-112192876D01*
X152690908Y-112252483D01*
X152741202Y-112387328D01*
X152741203Y-112387330D01*
X152818578Y-112490689D01*
X152842995Y-112556153D01*
X152828144Y-112624426D01*
X152818578Y-112639311D01*
X152741203Y-112742669D01*
X152741202Y-112742671D01*
X152690908Y-112877517D01*
X152684501Y-112937116D01*
X152684501Y-112937123D01*
X152684500Y-112937135D01*
X152684500Y-114732870D01*
X152684501Y-114732876D01*
X152690908Y-114792483D01*
X152741202Y-114927328D01*
X152741203Y-114927330D01*
X152818578Y-115030689D01*
X152842995Y-115096153D01*
X152828144Y-115164426D01*
X152818578Y-115179311D01*
X152741203Y-115282669D01*
X152741202Y-115282671D01*
X152690908Y-115417517D01*
X152684501Y-115477116D01*
X152684501Y-115477123D01*
X152684500Y-115477135D01*
X152684500Y-116310616D01*
X152684028Y-116321423D01*
X152679341Y-116374997D01*
X152679341Y-116375002D01*
X152684028Y-116428576D01*
X152684500Y-116439383D01*
X152684500Y-117272870D01*
X152684501Y-117272876D01*
X152690908Y-117332483D01*
X152741202Y-117467328D01*
X152741203Y-117467330D01*
X152818578Y-117570689D01*
X152842995Y-117636153D01*
X152828144Y-117704426D01*
X152818578Y-117719311D01*
X152741203Y-117822669D01*
X152741202Y-117822671D01*
X152690908Y-117957517D01*
X152684501Y-118017116D01*
X152684501Y-118017123D01*
X152684500Y-118017135D01*
X152684500Y-118850616D01*
X152684028Y-118861423D01*
X152679341Y-118914997D01*
X152679341Y-118915002D01*
X149035499Y-118915002D01*
X149035499Y-118749381D01*
X149035971Y-118738578D01*
X149040659Y-118685000D01*
X149040659Y-118684999D01*
X149035971Y-118631418D01*
X149035499Y-118620610D01*
X149035499Y-117787129D01*
X149035498Y-117787123D01*
X149035497Y-117787116D01*
X149029091Y-117727517D01*
X149026030Y-117719311D01*
X148978797Y-117592671D01*
X148978793Y-117592664D01*
X148892547Y-117477455D01*
X148892544Y-117477452D01*
X148777335Y-117391206D01*
X148777328Y-117391202D01*
X148642482Y-117340908D01*
X148642483Y-117340908D01*
X148582883Y-117334501D01*
X148582881Y-117334500D01*
X148582873Y-117334500D01*
X148582865Y-117334500D01*
X147749383Y-117334500D01*
X147738576Y-117334028D01*
X147685002Y-117329341D01*
X147684999Y-117329341D01*
X147649865Y-117332414D01*
X147631421Y-117334028D01*
X147620616Y-117334500D01*
X146787129Y-117334500D01*
X146787123Y-117334501D01*
X146727516Y-117340908D01*
X146592671Y-117391202D01*
X146592669Y-117391203D01*
X146489311Y-117468578D01*
X146423847Y-117492995D01*
X146355574Y-117478144D01*
X146340689Y-117468578D01*
X146237330Y-117391203D01*
X146237328Y-117391202D01*
X146102482Y-117340908D01*
X146102483Y-117340908D01*
X146042883Y-117334501D01*
X146042881Y-117334500D01*
X146042873Y-117334500D01*
X146042864Y-117334500D01*
X144247129Y-117334500D01*
X144247123Y-117334501D01*
X144187516Y-117340908D01*
X144052671Y-117391202D01*
X144052669Y-117391203D01*
X143949311Y-117468578D01*
X143883847Y-117492995D01*
X143815574Y-117478144D01*
X143800689Y-117468578D01*
X143697330Y-117391203D01*
X143697328Y-117391202D01*
X143562482Y-117340908D01*
X143562483Y-117340908D01*
X143502883Y-117334501D01*
X143502881Y-117334500D01*
X143502873Y-117334500D01*
X143502865Y-117334500D01*
X142669383Y-117334500D01*
X142658576Y-117334028D01*
X142605002Y-117329341D01*
X142604999Y-117329341D01*
X142569865Y-117332414D01*
X142551421Y-117334028D01*
X142540616Y-117334500D01*
X141707129Y-117334500D01*
X141707123Y-117334501D01*
X141647516Y-117340908D01*
X141512671Y-117391202D01*
X141512664Y-117391206D01*
X141397455Y-117477452D01*
X141397452Y-117477455D01*
X141311206Y-117592664D01*
X141311202Y-117592671D01*
X141260908Y-117727517D01*
X141254501Y-117787116D01*
X141254501Y-117787123D01*
X141254500Y-117787135D01*
X141254500Y-118620618D01*
X141254028Y-118631425D01*
X141249341Y-118684997D01*
X141249341Y-118685001D01*
X137605499Y-118685001D01*
X137605499Y-118017129D01*
X137605498Y-118017123D01*
X137605497Y-118017116D01*
X137599091Y-117957517D01*
X137548796Y-117822669D01*
X137471421Y-117719309D01*
X137447004Y-117653848D01*
X137461855Y-117585575D01*
X137471416Y-117570696D01*
X137548796Y-117467331D01*
X137599091Y-117332483D01*
X137605500Y-117272873D01*
X137605499Y-116439383D01*
X137605971Y-116428576D01*
X137610659Y-116375000D01*
X137610659Y-116374999D01*
X137605971Y-116321421D01*
X137605499Y-116310613D01*
X137605499Y-115477129D01*
X137605498Y-115477123D01*
X137605497Y-115477116D01*
X137599091Y-115417517D01*
X137548796Y-115282669D01*
X137471421Y-115179309D01*
X137447004Y-115113848D01*
X137461855Y-115045575D01*
X137471416Y-115030696D01*
X137548796Y-114927331D01*
X137599091Y-114792483D01*
X137605500Y-114732873D01*
X137605499Y-112937128D01*
X137599091Y-112877517D01*
X137548796Y-112742669D01*
X137471421Y-112639309D01*
X137447004Y-112573848D01*
X137461855Y-112505575D01*
X137471416Y-112490696D01*
X137548796Y-112387331D01*
X137599091Y-112252483D01*
X137605500Y-112192873D01*
X137605499Y-111359383D01*
X137605971Y-111348576D01*
X137610659Y-111295000D01*
X137610659Y-111294999D01*
X137605971Y-111241421D01*
X137605499Y-111230613D01*
X137605499Y-110397129D01*
X137605498Y-110397123D01*
X137605497Y-110397116D01*
X137599091Y-110337517D01*
X137548796Y-110202669D01*
X137471421Y-110099309D01*
X137447004Y-110033848D01*
X137461855Y-109965575D01*
X137471416Y-109950696D01*
X137548796Y-109847331D01*
X137599091Y-109712483D01*
X137605500Y-109652873D01*
X137605499Y-108819383D01*
X137605971Y-108808576D01*
X137610659Y-108755000D01*
X137610659Y-108754999D01*
X137605971Y-108701421D01*
X137605499Y-108690613D01*
X137605499Y-107857129D01*
X137605498Y-107857123D01*
X137605497Y-107857116D01*
X137599091Y-107797517D01*
X137548796Y-107662669D01*
X137471421Y-107559309D01*
X137447004Y-107493848D01*
X137461855Y-107425575D01*
X137471416Y-107410696D01*
X137548796Y-107307331D01*
X137599091Y-107172483D01*
X137605500Y-107112873D01*
X137605499Y-106279383D01*
X137605971Y-106268576D01*
X137610659Y-106215000D01*
X137610659Y-106214999D01*
X137605971Y-106161421D01*
X137605499Y-106150613D01*
X137605499Y-105317129D01*
X137605498Y-105317123D01*
X137605497Y-105317116D01*
X137599091Y-105257517D01*
X137548796Y-105122669D01*
X137471421Y-105019309D01*
X137447004Y-104953848D01*
X137461855Y-104885575D01*
X137471416Y-104870696D01*
X137548796Y-104767331D01*
X137599091Y-104632483D01*
X137605500Y-104572873D01*
X137605499Y-103739383D01*
X137605971Y-103728576D01*
X137610659Y-103675000D01*
X137610659Y-103674999D01*
X137605971Y-103621421D01*
X137605499Y-103610613D01*
X137605499Y-102777129D01*
X137605498Y-102777123D01*
X137605497Y-102777116D01*
X137599091Y-102717517D01*
X137548796Y-102582669D01*
X137471421Y-102479309D01*
X137447004Y-102413848D01*
X137461855Y-102345575D01*
X137471416Y-102330696D01*
X137548796Y-102227331D01*
X137599091Y-102092483D01*
X137605500Y-102032873D01*
X137605499Y-100237128D01*
X137599091Y-100177517D01*
X137597860Y-100174217D01*
X137548797Y-100042671D01*
X137548795Y-100042668D01*
X137471421Y-99939309D01*
X137447004Y-99873848D01*
X137461855Y-99805575D01*
X137471416Y-99790696D01*
X137548796Y-99687331D01*
X137599091Y-99552483D01*
X137605500Y-99492873D01*
X137605499Y-98659383D01*
X137605971Y-98648576D01*
X137610659Y-98595000D01*
X137610659Y-98594999D01*
X137605971Y-98541421D01*
X137605499Y-98530613D01*
X137605499Y-97697129D01*
X137605498Y-97697123D01*
X137605497Y-97697116D01*
X137599091Y-97637517D01*
X137579991Y-97586308D01*
X137548797Y-97502671D01*
X137548795Y-97502668D01*
X137471421Y-97399309D01*
X137447004Y-97333848D01*
X137461855Y-97265575D01*
X137471416Y-97250696D01*
X137548796Y-97147331D01*
X137599091Y-97012483D01*
X137605500Y-96952873D01*
X137605499Y-96119383D01*
X137605971Y-96108576D01*
X137610659Y-96055000D01*
X137610659Y-96054999D01*
X137605971Y-96001421D01*
X137605499Y-95990613D01*
X137605499Y-95157129D01*
X137605498Y-95157123D01*
X137605497Y-95157116D01*
X137599091Y-95097517D01*
X137597146Y-95092303D01*
X137548797Y-94962671D01*
X137548795Y-94962668D01*
X137518682Y-94922442D01*
X137471421Y-94859309D01*
X137447004Y-94793848D01*
X137461855Y-94725575D01*
X137471416Y-94710696D01*
X137548796Y-94607331D01*
X137599091Y-94472483D01*
X137605500Y-94412873D01*
X137605499Y-93579383D01*
X137605971Y-93568576D01*
X137610659Y-93515000D01*
X137610659Y-93514999D01*
X137605971Y-93461421D01*
X137605499Y-93450613D01*
X137605499Y-92617129D01*
X137605498Y-92617123D01*
X137605497Y-92617116D01*
X137599091Y-92557517D01*
X137548796Y-92422669D01*
X137471421Y-92319309D01*
X137447004Y-92253848D01*
X137461855Y-92185575D01*
X137471416Y-92170696D01*
X137548796Y-92067331D01*
X137599091Y-91932483D01*
X137605500Y-91872873D01*
X137605499Y-91039383D01*
X137605971Y-91028576D01*
X137610659Y-90975000D01*
X137610659Y-90974999D01*
X137605971Y-90921421D01*
X137605499Y-90910613D01*
X137605499Y-90077129D01*
X137605498Y-90077123D01*
X137605497Y-90077116D01*
X137599091Y-90017517D01*
X137548796Y-89882669D01*
X137471421Y-89779309D01*
X137447004Y-89713848D01*
X137461855Y-89645575D01*
X137471416Y-89630696D01*
X137548796Y-89527331D01*
X137599091Y-89392483D01*
X137605500Y-89332873D01*
X137605499Y-87537128D01*
X137599091Y-87477517D01*
X137548796Y-87342669D01*
X137471421Y-87239309D01*
X137447004Y-87173848D01*
X137461855Y-87105575D01*
X137471416Y-87090696D01*
X137548796Y-86987331D01*
X137599091Y-86852483D01*
X137605500Y-86792873D01*
X137605499Y-85959383D01*
X137605971Y-85948576D01*
X137610659Y-85895000D01*
X137610659Y-85894999D01*
X137605971Y-85841421D01*
X137605499Y-85830613D01*
X137605499Y-84997129D01*
X137605498Y-84997123D01*
X137605497Y-84997116D01*
X137599091Y-84937517D01*
X137548796Y-84802669D01*
X137471421Y-84699309D01*
X137447004Y-84633848D01*
X137461855Y-84565575D01*
X137471416Y-84550696D01*
X137548796Y-84447331D01*
X137599091Y-84312483D01*
X137605500Y-84252873D01*
X137605499Y-83419383D01*
X137605971Y-83408576D01*
X137610659Y-83355000D01*
X137610659Y-83354999D01*
X137605971Y-83301421D01*
X137605499Y-83290613D01*
X137605499Y-82457129D01*
X137605498Y-82457123D01*
X137605497Y-82457116D01*
X137599091Y-82397517D01*
X137568721Y-82316092D01*
X137548797Y-82262671D01*
X137548795Y-82262668D01*
X137471421Y-82159309D01*
X137447004Y-82093848D01*
X137461855Y-82025575D01*
X137471416Y-82010696D01*
X137548796Y-81907331D01*
X137599091Y-81772483D01*
X137605500Y-81712873D01*
X137605499Y-80879383D01*
X137605971Y-80868576D01*
X137610659Y-80815000D01*
X137610659Y-80814999D01*
X137605971Y-80761421D01*
X137605499Y-80750613D01*
X137605499Y-79917129D01*
X137605498Y-79917123D01*
X137605497Y-79917116D01*
X137599091Y-79857517D01*
X137548796Y-79722669D01*
X137471421Y-79619309D01*
X137447004Y-79553848D01*
X137461855Y-79485575D01*
X137471416Y-79470696D01*
X137548796Y-79367331D01*
X137599091Y-79232483D01*
X137605500Y-79172873D01*
X137605499Y-78339384D01*
X137605971Y-78328576D01*
X137610659Y-78275000D01*
X137610659Y-78274999D01*
X137605971Y-78221421D01*
X137605499Y-78210613D01*
X137605499Y-77377129D01*
X137605498Y-77377123D01*
X137605497Y-77377116D01*
X137599091Y-77317517D01*
X137548886Y-77182911D01*
X137548797Y-77182671D01*
X137548795Y-77182668D01*
X137471421Y-77079309D01*
X137447004Y-77013848D01*
X137461855Y-76945575D01*
X137471416Y-76930696D01*
X137548796Y-76827331D01*
X137599091Y-76692483D01*
X137605500Y-76632873D01*
X137605499Y-74837128D01*
X137599091Y-74777517D01*
X137598748Y-74776598D01*
X137548797Y-74642671D01*
X137548795Y-74642668D01*
X137533231Y-74621877D01*
X137471421Y-74539309D01*
X137447004Y-74473848D01*
X137461855Y-74405575D01*
X137471416Y-74390696D01*
X137548796Y-74287331D01*
X137599091Y-74152483D01*
X137605500Y-74092873D01*
X137605500Y-73815002D01*
X141464723Y-73815002D01*
X141483793Y-74032975D01*
X141483793Y-74032979D01*
X141540422Y-74244322D01*
X141540424Y-74244326D01*
X141540425Y-74244330D01*
X141560477Y-74287331D01*
X141632897Y-74442638D01*
X141642652Y-74456569D01*
X141758402Y-74621877D01*
X141913123Y-74776598D01*
X142092361Y-74902102D01*
X142290670Y-74994575D01*
X142502023Y-75051207D01*
X142684926Y-75067208D01*
X142719998Y-75070277D01*
X142720000Y-75070277D01*
X142720002Y-75070277D01*
X142748254Y-75067805D01*
X142937977Y-75051207D01*
X143149330Y-74994575D01*
X143347639Y-74902102D01*
X143526877Y-74776598D01*
X143681598Y-74621877D01*
X143807102Y-74442639D01*
X143899575Y-74244330D01*
X143956207Y-74032977D01*
X143975277Y-73815002D01*
X146314723Y-73815002D01*
X146333793Y-74032975D01*
X146333793Y-74032979D01*
X146390422Y-74244322D01*
X146390424Y-74244326D01*
X146390425Y-74244330D01*
X146410477Y-74287331D01*
X146482897Y-74442638D01*
X146492652Y-74456569D01*
X146608402Y-74621877D01*
X146763123Y-74776598D01*
X146942361Y-74902102D01*
X147140670Y-74994575D01*
X147352023Y-75051207D01*
X147534926Y-75067208D01*
X147569998Y-75070277D01*
X147570000Y-75070277D01*
X147570002Y-75070277D01*
X147598254Y-75067805D01*
X147787977Y-75051207D01*
X147999330Y-74994575D01*
X148197639Y-74902102D01*
X148376877Y-74776598D01*
X148531598Y-74621877D01*
X148657102Y-74442639D01*
X148749575Y-74244330D01*
X148806207Y-74032977D01*
X148825277Y-73815000D01*
X148806207Y-73597023D01*
X148749575Y-73385670D01*
X148657102Y-73187362D01*
X148657100Y-73187359D01*
X148657099Y-73187357D01*
X148531599Y-73008124D01*
X148531596Y-73008121D01*
X148376877Y-72853402D01*
X148197639Y-72727898D01*
X148197640Y-72727898D01*
X148197638Y-72727897D01*
X148098484Y-72681661D01*
X147999330Y-72635425D01*
X147999326Y-72635424D01*
X147999322Y-72635422D01*
X147787977Y-72578793D01*
X147570002Y-72559723D01*
X147569998Y-72559723D01*
X147424682Y-72572436D01*
X147352023Y-72578793D01*
X147352020Y-72578793D01*
X147140677Y-72635422D01*
X147140668Y-72635426D01*
X146942361Y-72727898D01*
X146942357Y-72727900D01*
X146763121Y-72853402D01*
X146608402Y-73008121D01*
X146482900Y-73187357D01*
X146482898Y-73187361D01*
X146390426Y-73385668D01*
X146390422Y-73385677D01*
X146333793Y-73597020D01*
X146333793Y-73597024D01*
X146314723Y-73814997D01*
X146314723Y-73815002D01*
X143975277Y-73815002D01*
X143975277Y-73815000D01*
X143956207Y-73597023D01*
X143899575Y-73385670D01*
X143807102Y-73187362D01*
X143807100Y-73187359D01*
X143807099Y-73187357D01*
X143681599Y-73008124D01*
X143681596Y-73008121D01*
X143526877Y-72853402D01*
X143347639Y-72727898D01*
X143347640Y-72727898D01*
X143347638Y-72727897D01*
X143248484Y-72681661D01*
X143149330Y-72635425D01*
X143149326Y-72635424D01*
X143149322Y-72635422D01*
X142937977Y-72578793D01*
X142720002Y-72559723D01*
X142719998Y-72559723D01*
X142574682Y-72572436D01*
X142502023Y-72578793D01*
X142502020Y-72578793D01*
X142290677Y-72635422D01*
X142290668Y-72635426D01*
X142092361Y-72727898D01*
X142092357Y-72727900D01*
X141913121Y-72853402D01*
X141758402Y-73008121D01*
X141632900Y-73187357D01*
X141632898Y-73187361D01*
X141540426Y-73385668D01*
X141540422Y-73385677D01*
X141483793Y-73597020D01*
X141483793Y-73597024D01*
X141464723Y-73814997D01*
X141464723Y-73815002D01*
X137605500Y-73815002D01*
X137605499Y-73259383D01*
X137605971Y-73248576D01*
X137610659Y-73195000D01*
X137610659Y-73194999D01*
X137605971Y-73141421D01*
X137605499Y-73130613D01*
X137605499Y-72297129D01*
X137605498Y-72297123D01*
X137605497Y-72297116D01*
X137599091Y-72237517D01*
X137548796Y-72102669D01*
X137471421Y-71999309D01*
X137447004Y-71933848D01*
X137461855Y-71865575D01*
X137471416Y-71850696D01*
X137548796Y-71747331D01*
X137599091Y-71612483D01*
X137605500Y-71552873D01*
X137605499Y-70785006D01*
X141014700Y-70785006D01*
X141033864Y-71016297D01*
X141033866Y-71016308D01*
X141090842Y-71241300D01*
X141184075Y-71453848D01*
X141311016Y-71648147D01*
X141311019Y-71648151D01*
X141311021Y-71648153D01*
X141468216Y-71818913D01*
X141468219Y-71818915D01*
X141468222Y-71818918D01*
X141651365Y-71961464D01*
X141651371Y-71961468D01*
X141651374Y-71961470D01*
X141855497Y-72071936D01*
X141945019Y-72102669D01*
X142075015Y-72147297D01*
X142075017Y-72147297D01*
X142075019Y-72147298D01*
X142303951Y-72185500D01*
X142303952Y-72185500D01*
X142536048Y-72185500D01*
X142536049Y-72185500D01*
X142764981Y-72147298D01*
X142984503Y-72071936D01*
X143188626Y-71961470D01*
X143371784Y-71818913D01*
X143528979Y-71648153D01*
X143655924Y-71453849D01*
X143749157Y-71241300D01*
X143806134Y-71016305D01*
X143825300Y-70785006D01*
X146464700Y-70785006D01*
X146483864Y-71016297D01*
X146483866Y-71016308D01*
X146540842Y-71241300D01*
X146634075Y-71453848D01*
X146761016Y-71648147D01*
X146761019Y-71648151D01*
X146761021Y-71648153D01*
X146918216Y-71818913D01*
X146918219Y-71818915D01*
X146918222Y-71818918D01*
X147101365Y-71961464D01*
X147101371Y-71961468D01*
X147101374Y-71961470D01*
X147305497Y-72071936D01*
X147395019Y-72102669D01*
X147525015Y-72147297D01*
X147525017Y-72147297D01*
X147525019Y-72147298D01*
X147753951Y-72185500D01*
X147753952Y-72185500D01*
X147986048Y-72185500D01*
X147986049Y-72185500D01*
X148214981Y-72147298D01*
X148434503Y-72071936D01*
X148638626Y-71961470D01*
X148821784Y-71818913D01*
X148978979Y-71648153D01*
X149105924Y-71453849D01*
X149199157Y-71241300D01*
X149256134Y-71016305D01*
X149275300Y-70785000D01*
X149275300Y-70784993D01*
X149256135Y-70553702D01*
X149256133Y-70553691D01*
X149199157Y-70328699D01*
X149105924Y-70116151D01*
X148978983Y-69921852D01*
X148978980Y-69921849D01*
X148978979Y-69921847D01*
X148821784Y-69751087D01*
X148821779Y-69751083D01*
X148821777Y-69751081D01*
X148638634Y-69608535D01*
X148638628Y-69608531D01*
X148434504Y-69498064D01*
X148434495Y-69498061D01*
X148214984Y-69422702D01*
X148043282Y-69394050D01*
X147986049Y-69384500D01*
X147753951Y-69384500D01*
X147708164Y-69392140D01*
X147525015Y-69422702D01*
X147305504Y-69498061D01*
X147305495Y-69498064D01*
X147101371Y-69608531D01*
X147101365Y-69608535D01*
X146918222Y-69751081D01*
X146918219Y-69751084D01*
X146918216Y-69751086D01*
X146918216Y-69751087D01*
X146859267Y-69815122D01*
X146761016Y-69921852D01*
X146634075Y-70116151D01*
X146540842Y-70328699D01*
X146483866Y-70553691D01*
X146483864Y-70553702D01*
X146464700Y-70784993D01*
X146464700Y-70785006D01*
X143825300Y-70785006D01*
X143825300Y-70785000D01*
X143825300Y-70784993D01*
X143806135Y-70553702D01*
X143806133Y-70553691D01*
X143749157Y-70328699D01*
X143655924Y-70116151D01*
X143528983Y-69921852D01*
X143528980Y-69921849D01*
X143528979Y-69921847D01*
X143371784Y-69751087D01*
X143371779Y-69751083D01*
X143371777Y-69751081D01*
X143188634Y-69608535D01*
X143188628Y-69608531D01*
X142984504Y-69498064D01*
X142984495Y-69498061D01*
X142764984Y-69422702D01*
X142593282Y-69394050D01*
X142536049Y-69384500D01*
X142303951Y-69384500D01*
X142258164Y-69392140D01*
X142075015Y-69422702D01*
X141855504Y-69498061D01*
X141855495Y-69498064D01*
X141651371Y-69608531D01*
X141651365Y-69608535D01*
X141468222Y-69751081D01*
X141468219Y-69751084D01*
X141468216Y-69751086D01*
X141468216Y-69751087D01*
X141409267Y-69815122D01*
X141311016Y-69921852D01*
X141184075Y-70116151D01*
X141090842Y-70328699D01*
X141033866Y-70553691D01*
X141033864Y-70553702D01*
X141014700Y-70784993D01*
X141014700Y-70785006D01*
X137605499Y-70785006D01*
X137605499Y-70719383D01*
X137605971Y-70708576D01*
X137610659Y-70655000D01*
X137610659Y-70654999D01*
X137605971Y-70601421D01*
X137605499Y-70590613D01*
X137605499Y-69757129D01*
X137605498Y-69757123D01*
X137605497Y-69757116D01*
X137599091Y-69697517D01*
X137565901Y-69608531D01*
X137548797Y-69562671D01*
X137548793Y-69562664D01*
X137462547Y-69447455D01*
X137462544Y-69447452D01*
X137347335Y-69361206D01*
X137347328Y-69361202D01*
X137212482Y-69310908D01*
X137212483Y-69310908D01*
X137152883Y-69304501D01*
X137152881Y-69304500D01*
X137152873Y-69304500D01*
X137152865Y-69304500D01*
X136319380Y-69304500D01*
X136308573Y-69304028D01*
X136282024Y-69301705D01*
X136255001Y-69299341D01*
X136254998Y-69299341D01*
X136201424Y-69304028D01*
X136190617Y-69304500D01*
X133557129Y-69304500D01*
X133557123Y-69304501D01*
X133497516Y-69310908D01*
X133362671Y-69361202D01*
X133362664Y-69361206D01*
X133247455Y-69447452D01*
X133247452Y-69447455D01*
X133161206Y-69562664D01*
X133161202Y-69562671D01*
X133110908Y-69697517D01*
X133105149Y-69751087D01*
X133104501Y-69757123D01*
X133104500Y-69757135D01*
X133104500Y-71552870D01*
X133104501Y-71552876D01*
X133110908Y-71612483D01*
X133161202Y-71747328D01*
X133161203Y-71747330D01*
X133238578Y-71850689D01*
X133262995Y-71916153D01*
X133248144Y-71984426D01*
X133238578Y-71999311D01*
X133161203Y-72102669D01*
X133161202Y-72102671D01*
X133110908Y-72237517D01*
X133104602Y-72296174D01*
X133104501Y-72297123D01*
X133104500Y-72297135D01*
X133104500Y-74092870D01*
X133104501Y-74092876D01*
X133110908Y-74152483D01*
X133161202Y-74287328D01*
X133161203Y-74287330D01*
X133238578Y-74390689D01*
X133262995Y-74456153D01*
X133248144Y-74524426D01*
X133238578Y-74539309D01*
X133233946Y-74545499D01*
X133161203Y-74642669D01*
X133161202Y-74642671D01*
X133110908Y-74777517D01*
X133104501Y-74837116D01*
X133104501Y-74837123D01*
X133104500Y-74837135D01*
X133104500Y-76632870D01*
X133104501Y-76632876D01*
X133110908Y-76692483D01*
X133161202Y-76827328D01*
X133161203Y-76827330D01*
X133238578Y-76930689D01*
X133262995Y-76996153D01*
X133248144Y-77064426D01*
X133238578Y-77079311D01*
X133161203Y-77182669D01*
X133161202Y-77182671D01*
X133110908Y-77317517D01*
X133104501Y-77377116D01*
X133104501Y-77377123D01*
X133104500Y-77377135D01*
X133104500Y-79172870D01*
X133104501Y-79172876D01*
X133110908Y-79232483D01*
X133161202Y-79367328D01*
X133161203Y-79367330D01*
X133238578Y-79470689D01*
X133262995Y-79536153D01*
X133248144Y-79604426D01*
X133238578Y-79619311D01*
X133161203Y-79722669D01*
X133161202Y-79722671D01*
X133110908Y-79857517D01*
X133104501Y-79917116D01*
X133104501Y-79917123D01*
X133104500Y-79917135D01*
X133104500Y-81712870D01*
X133104501Y-81712876D01*
X133110908Y-81772483D01*
X133161202Y-81907328D01*
X133161203Y-81907330D01*
X133238578Y-82010689D01*
X133262995Y-82076153D01*
X133248144Y-82144426D01*
X133238578Y-82159311D01*
X133161203Y-82262669D01*
X133161202Y-82262671D01*
X133110908Y-82397517D01*
X133104501Y-82457116D01*
X133104501Y-82457123D01*
X133104500Y-82457135D01*
X133104500Y-84252870D01*
X133104501Y-84252876D01*
X133110908Y-84312483D01*
X133161202Y-84447328D01*
X133161203Y-84447330D01*
X133238578Y-84550689D01*
X133262995Y-84616153D01*
X133248144Y-84684426D01*
X133238578Y-84699311D01*
X133161203Y-84802669D01*
X133161202Y-84802671D01*
X133110908Y-84937517D01*
X133104501Y-84997116D01*
X133104501Y-84997123D01*
X133104500Y-84997135D01*
X133104500Y-86792870D01*
X133104501Y-86792876D01*
X133110908Y-86852483D01*
X133161202Y-86987328D01*
X133161203Y-86987330D01*
X133238578Y-87090689D01*
X133262995Y-87156153D01*
X133248144Y-87224426D01*
X133238578Y-87239311D01*
X133161203Y-87342669D01*
X133161202Y-87342671D01*
X133110908Y-87477517D01*
X133104501Y-87537116D01*
X133104501Y-87537123D01*
X133104500Y-87537135D01*
X133104500Y-89332870D01*
X133104501Y-89332876D01*
X133110908Y-89392483D01*
X133161202Y-89527328D01*
X133161203Y-89527330D01*
X133238578Y-89630689D01*
X133262995Y-89696153D01*
X133248144Y-89764426D01*
X133238578Y-89779311D01*
X133161203Y-89882669D01*
X133161202Y-89882671D01*
X133110908Y-90017517D01*
X133104501Y-90077116D01*
X133104501Y-90077123D01*
X133104500Y-90077135D01*
X133104500Y-91872870D01*
X133104501Y-91872876D01*
X133110908Y-91932483D01*
X133161202Y-92067328D01*
X133161203Y-92067330D01*
X133238578Y-92170689D01*
X133262995Y-92236153D01*
X133248144Y-92304426D01*
X133238578Y-92319311D01*
X133161203Y-92422669D01*
X133161202Y-92422671D01*
X133110908Y-92557517D01*
X133104501Y-92617116D01*
X133104501Y-92617123D01*
X133104500Y-92617135D01*
X133104500Y-94412870D01*
X133104501Y-94412876D01*
X133110908Y-94472483D01*
X133161202Y-94607328D01*
X133161203Y-94607330D01*
X133238578Y-94710689D01*
X133262995Y-94776153D01*
X133248144Y-94844426D01*
X133238578Y-94859311D01*
X133161203Y-94962669D01*
X133161202Y-94962671D01*
X133110908Y-95097517D01*
X133104501Y-95157116D01*
X133104501Y-95157123D01*
X133104500Y-95157135D01*
X133104500Y-96952870D01*
X133104501Y-96952876D01*
X133110908Y-97012483D01*
X133161202Y-97147328D01*
X133161203Y-97147330D01*
X133238578Y-97250689D01*
X133262995Y-97316153D01*
X133248144Y-97384426D01*
X133238578Y-97399311D01*
X133161203Y-97502669D01*
X133161202Y-97502671D01*
X133110908Y-97637517D01*
X133104501Y-97697116D01*
X133104501Y-97697123D01*
X133104500Y-97697135D01*
X133104500Y-99492870D01*
X133104501Y-99492876D01*
X133110908Y-99552483D01*
X133161202Y-99687328D01*
X133161203Y-99687330D01*
X133238578Y-99790689D01*
X133262995Y-99856153D01*
X133248144Y-99924426D01*
X133238578Y-99939311D01*
X133161203Y-100042669D01*
X133161202Y-100042671D01*
X133110908Y-100177517D01*
X133104501Y-100237116D01*
X133104501Y-100237123D01*
X133104500Y-100237135D01*
X133104500Y-102032870D01*
X133104501Y-102032876D01*
X133110908Y-102092483D01*
X133161202Y-102227328D01*
X133161203Y-102227330D01*
X133238578Y-102330689D01*
X133262995Y-102396153D01*
X133248144Y-102464426D01*
X133238578Y-102479311D01*
X133161203Y-102582669D01*
X133161202Y-102582671D01*
X133110908Y-102717517D01*
X133104501Y-102777116D01*
X133104501Y-102777123D01*
X133104500Y-102777135D01*
X133104500Y-104572870D01*
X133104501Y-104572876D01*
X133110908Y-104632483D01*
X133161202Y-104767328D01*
X133161203Y-104767330D01*
X133238578Y-104870689D01*
X133262995Y-104936153D01*
X133248144Y-105004426D01*
X133238578Y-105019311D01*
X133161203Y-105122669D01*
X133161202Y-105122671D01*
X133110908Y-105257517D01*
X133104501Y-105317116D01*
X133104501Y-105317123D01*
X133104500Y-105317135D01*
X133104500Y-107112870D01*
X133104501Y-107112876D01*
X133110908Y-107172483D01*
X133161202Y-107307328D01*
X133161203Y-107307330D01*
X133238578Y-107410689D01*
X133262995Y-107476153D01*
X133248144Y-107544426D01*
X133238578Y-107559311D01*
X133161203Y-107662669D01*
X133161202Y-107662671D01*
X133110908Y-107797517D01*
X133104501Y-107857116D01*
X133104501Y-107857123D01*
X133104500Y-107857135D01*
X133104500Y-109652870D01*
X133104501Y-109652876D01*
X133110908Y-109712483D01*
X133161202Y-109847328D01*
X133161203Y-109847330D01*
X133238578Y-109950689D01*
X133262995Y-110016153D01*
X133248144Y-110084426D01*
X133238578Y-110099311D01*
X133161203Y-110202669D01*
X133161202Y-110202671D01*
X133110908Y-110337517D01*
X133104501Y-110397116D01*
X133104501Y-110397123D01*
X133104500Y-110397135D01*
X133104500Y-112192870D01*
X133104501Y-112192876D01*
X133110908Y-112252483D01*
X133161202Y-112387328D01*
X133161203Y-112387330D01*
X133238578Y-112490689D01*
X133262995Y-112556153D01*
X133248144Y-112624426D01*
X133238578Y-112639311D01*
X133161203Y-112742669D01*
X133161202Y-112742671D01*
X133110908Y-112877517D01*
X133104501Y-112937116D01*
X133104501Y-112937123D01*
X133104500Y-112937135D01*
X133104500Y-114732870D01*
X133104501Y-114732876D01*
X133110908Y-114792483D01*
X133161202Y-114927328D01*
X133161203Y-114927330D01*
X133238578Y-115030689D01*
X133262995Y-115096153D01*
X133248144Y-115164426D01*
X133238578Y-115179311D01*
X133161203Y-115282669D01*
X133161202Y-115282671D01*
X133110908Y-115417517D01*
X133104501Y-115477116D01*
X133104501Y-115477123D01*
X133104500Y-115477135D01*
X133104500Y-117272870D01*
X133104501Y-117272876D01*
X133110908Y-117332483D01*
X133161202Y-117467328D01*
X133161203Y-117467330D01*
X133238578Y-117570689D01*
X133262995Y-117636153D01*
X133248144Y-117704426D01*
X133238578Y-117719311D01*
X133161203Y-117822669D01*
X133161202Y-117822671D01*
X133110908Y-117957517D01*
X133104501Y-118017116D01*
X133104501Y-118017123D01*
X133104500Y-118017135D01*
X133104500Y-119812870D01*
X112931051Y-119812870D01*
X112500805Y-53124799D01*
X112520056Y-53057635D01*
X112572564Y-53011540D01*
X112624802Y-53000000D01*
X185376000Y-53000000D01*
X185443039Y-53019685D01*
G37*
%TD.AperFunction*%
%TD*%
%TA.AperFunction,Conductor*%
%TO.N,VCC*%
G36*
X157165713Y-72964685D02*
G01*
X157186355Y-72981319D01*
X165454963Y-81249927D01*
X165488448Y-81311250D01*
X165483464Y-81380942D01*
X165441592Y-81436875D01*
X165432560Y-81443035D01*
X165278738Y-81538278D01*
X165114391Y-81688099D01*
X164980368Y-81865574D01*
X164954192Y-81918141D01*
X164906688Y-81969377D01*
X164839025Y-81986797D01*
X164772685Y-81964870D01*
X164755512Y-81950548D01*
X157754146Y-74949181D01*
X157751562Y-74946687D01*
X157741161Y-74936650D01*
X157734683Y-74930618D01*
X157721235Y-74918537D01*
X157600195Y-74840750D01*
X157537132Y-74811950D01*
X157536652Y-74811728D01*
X157536636Y-74811723D01*
X157398583Y-74771189D01*
X157398582Y-74771189D01*
X157262826Y-74771189D01*
X157195787Y-74751504D01*
X157150032Y-74698700D01*
X157146644Y-74690521D01*
X157128798Y-74642673D01*
X157128795Y-74642668D01*
X157051109Y-74538893D01*
X157026692Y-74473430D01*
X157041543Y-74405157D01*
X157051110Y-74390271D01*
X157128352Y-74287089D01*
X157128354Y-74287086D01*
X157178596Y-74152379D01*
X157178598Y-74152372D01*
X157184999Y-74092844D01*
X157185000Y-74092827D01*
X157185000Y-73445000D01*
X154479560Y-73445000D01*
X154510245Y-73391853D01*
X154545000Y-73262143D01*
X154545000Y-73127857D01*
X154510245Y-72998147D01*
X154479560Y-72945000D01*
X157098674Y-72945000D01*
X157165713Y-72964685D01*
G37*
%TD.AperFunction*%
%TA.AperFunction,Conductor*%
G36*
X153559755Y-72998147D02*
G01*
X153525000Y-73127857D01*
X153525000Y-73262143D01*
X153559755Y-73391853D01*
X153590440Y-73445000D01*
X153314000Y-73445000D01*
X153246961Y-73425315D01*
X153201206Y-73372511D01*
X153190000Y-73321000D01*
X153190000Y-73259404D01*
X153190000Y-73259382D01*
X153189519Y-73237326D01*
X153189047Y-73226519D01*
X153187605Y-73204520D01*
X153187604Y-73204515D01*
X153187516Y-73203163D01*
X153187724Y-73203149D01*
X153187750Y-73186847D01*
X153187517Y-73186832D01*
X153189045Y-73163507D01*
X153189047Y-73163480D01*
X153189519Y-73152673D01*
X153190000Y-73130616D01*
X153190000Y-73069000D01*
X153209685Y-73001961D01*
X153262489Y-72956206D01*
X153314000Y-72945000D01*
X153590440Y-72945000D01*
X153559755Y-72998147D01*
G37*
%TD.AperFunction*%
%TD*%
M02*
